<?xml version="1.0" encoding="UTF-8"?>
<svg id="_图层_1" data-name="图层 1" xmlns="http://www.w3.org/2000/svg" viewBox="0 0 1873.21 526.84">
  <defs>
    <style>
      .cls-1 {
        fill: #5c75ec;
        stroke-width: 0px;
      }
    </style>
  </defs>
  <path class="cls-1" d="M58.54,380.49v58.54h-29.27v-58.54h29.27ZM117.08,351.23h-29.27v29.27h-29.27V0h29.27v29.27h321.96V0h29.27v29.27h29.27v29.27H117.08v292.69ZM117.08,468.3v-29.27h29.27v29.27h-29.27ZM321.96,87.81v234.15h-29.27V117.08h-117.08v204.88h-29.27V87.81h175.61ZM263.42,351.23h-29.27v58.54h-29.27v29.27h-58.54v-29.27h29.27v-58.54h29.27v-204.88h29.27v29.27h29.27v175.61ZM263.42,409.76v-58.54h29.27v29.27h29.27v29.27h29.27v29.27h-29.27v29.27h-29.27v-58.54h-29.27ZM380.49,351.23h-29.27v-175.61h29.27v175.61ZM380.49,439.03v-29.27h29.27V87.81h58.54v351.23h-29.27v29.27h-29.27v-29.27h-29.27Z"/>
  <path class="cls-1" d="M526.84,439.03v29.27h-29.27v-29.27h29.27ZM731.72,29.27h29.27v29.27h29.27v-29.27h58.54V0h29.27v29.27h29.27v29.27h-87.81v29.27h-29.27v87.81h87.81v-29.27h29.27v29.27h29.27v29.27h-58.54v263.42h-58.54V204.88h-29.27v117.07h-29.27v58.54h-29.27v29.27h-29.27v29.27h-58.54v-29.27h29.27v-29.27h29.27v-58.54h29.27v-146.34h-29.27v117.07h-29.27v29.27h-29.27v-29.27h-58.54v87.81h-29.27v58.54h-29.27V29.27h29.27v29.27h29.27v-29.27h58.54V0h29.27v29.27h29.27v29.27h-87.81v29.27h-29.27v58.54h87.81v-29.27h29.27v29.27h29.27V29.27ZM585.38,263.42h58.54v-87.81h-58.54v87.81ZM643.91,439.03v29.27h-29.27v-29.27h29.27Z"/>
  <path class="cls-1" d="M1024.41,409.76v29.27h-29.27v-29.27h-29.27v-29.27h29.27v-58.54h29.27v-29.27h29.27v117.08h-29.27ZM1317.1,87.81v-29.27h29.27v29.27h29.27v29.27h-29.27v117.08h-29.27v29.27h-29.27v-29.27h-234.15v29.27h-29.27V58.54h29.27v29.27h58.54v-29.27h-29.27v-29.27h58.54v58.54h58.54v-29.27h29.27v-29.27h29.27V0h58.54v29.27h-29.27v29.27h-29.27v29.27h58.54ZM1053.68,29.27V0h29.27v29.27h-29.27ZM1287.83,204.88v-87.81h-204.88v87.81h204.88ZM1317.1,409.76v29.27h-29.27v29.27h-175.61v-29.27h-29.27v-146.34h29.27v29.27h29.27v87.81h117.08v-58.54h29.27v58.54h29.27ZM1170.75,263.42v29.27h-29.27v-29.27h29.27ZM1170.75,292.69h58.54v29.27h29.27v29.27h-29.27v29.27h-29.27v-58.54h-29.27v-29.27ZM1317.1,292.69v29.27h-29.27v-29.27h29.27ZM1317.1,380.49v-58.54h29.27v29.27h29.27v29.27h29.27v29.27h-29.27v29.27h-29.27v-58.54h-29.27Z"/>
  <path class="cls-1" d="M1668.32,58.54v58.54h-29.27v29.27h-29.27v-58.54h-87.81v29.27h29.27v58.54h29.27v-29.27h29.27v29.27h87.81V29.27h29.27v29.27h87.81v-29.27h29.27v29.27h29.27v29.27h-29.27v87.81h-29.27v29.27h-29.27v-117.08h-29.27v117.08h29.27v29.27h-29.27v117.07h58.54v-87.81h-29.27v-29.27h58.54v29.27h29.27v87.81h-29.27v29.27h-29.27v29.27h-29.27v-29.27h-29.27v87.81h-58.54v-175.61h-29.27v117.08h-29.27v29.27h-29.27v-29.27h-117.08v29.27h-29.27v-204.88h29.27v29.27h146.34v-29.27h29.27v29.27h29.27v-58.54h-263.42v-29.27h87.81v-29.27h-29.27v-58.54h-29.27v-29.27h87.81v-29.27h-29.27V0h58.54v29.27h29.27v29.27h58.54ZM1521.98,380.49h87.81v-87.81h-87.81v87.81Z"/>
</svg>