<svg width="164" height="124" viewBox="0 0 164 124" fill="currentColor" xmlns="http://www.w3.org/2000/svg">
<path fill="currentColor" d="M164 43.8043C164 51.4332 157.386 57.9564 149.65 57.9564H117.666C122.9 63.4615 123.543 74.0267 115.649 80.8654C120.225 88.2373 116.337 97.9855 110.38 100.988C113.254 116.856 103.35 124 87.125 124C86.2454 124 82.8725 123.934 82 123.937C62.1499 123.991 57.3699 113.906 42.3674 111.564C38.6284 110.981 35.875 107.725 35.875 103.91V48.5218L35.8756 48.5215C35.8792 42.5908 39.2732 36.9323 44.993 34.3632C54.2456 30.1672 75.555 18.528 79.4375 9.39429C81.935 3.51915 86.2871 0.00258468 92.25 1.35148e-06C103.212 -0.00451948 110.749 11.3337 106.382 21.6057C105.234 24.305 103.719 26.9887 101.848 29.6521H149.65C157.161 29.6521 164 36.2858 164 43.8043ZM30.75 43.9167V105.917C30.75 110.197 27.3082 113.667 23.0625 113.667H7.6875C3.44176 113.667 0 110.197 0 105.917V43.9167C0 39.6364 3.44176 36.1667 7.6875 36.1667H23.0625C27.3082 36.1667 30.75 39.6364 30.75 43.9167ZM21.7812 98.1667C21.7812 94.5997 18.9132 91.7083 15.375 91.7083C11.8368 91.7083 8.96875 94.5997 8.96875 98.1667C8.96875 101.734 11.8368 104.625 15.375 104.625C18.9132 104.625 21.7812 101.734 21.7812 98.1667Z" fill="#5C75EC"/>
</svg>
