<svg width="339" height="274" viewBox="0 0 339 274" fill="none" xmlns="http://www.w3.org/2000/svg">
<path d="M3 250V214.6H4.8V250H3ZM6.6 250V214.6H8.4V250H6.6ZM12 250V214.6H19.2V250H12ZM8.64 258.94H10.26V260.98C10.5 260.22 10.9 259.66 11.46 259.3C12.02 258.9 12.66 258.7 13.38 258.7C14.14 258.7 14.86 258.9 15.54 259.3C16.18 259.7 16.68 260.3 17.04 261.1C17.44 261.86 17.64 262.82 17.64 263.98C17.64 265.1 17.44 266.08 17.04 266.92C16.64 267.76 16.12 268.38 15.48 268.78C14.8 269.18 14.08 269.38 13.32 269.38C12.72 269.38 12.16 269.24 11.64 268.96C11.08 268.68 10.64 268.3 10.32 267.82V272.86H8.64V258.94ZM13.08 268C13.88 268 14.56 267.68 15.12 267.04C15.68 266.44 15.96 265.44 15.96 264.04C15.96 262.76 15.72 261.78 15.24 261.1C14.76 260.42 14.06 260.08 13.14 260.08C12.3 260.08 11.62 260.44 11.1 261.16C10.54 261.88 10.26 262.96 10.26 264.4C10.3 265.56 10.56 266.44 11.04 267.04C11.56 267.68 12.24 268 13.08 268ZM22.8047 250V214.6H26.4047V250H22.8047ZM30.0047 250V214.6H31.8047V250H30.0047ZM33.6047 250V214.6H35.4047V250H33.6047ZM28.8647 267.82H31.9247V255.58H29.0447V254.32H33.5447V267.82H36.5447V269.14H28.8647V267.82ZM42.6094 250V214.6H44.4094V250H42.6094ZM48.0094 250V214.6H49.8094V250H48.0094ZM51.6094 250V214.6H55.2094V250H51.6094ZM52.3894 258.7C53.8294 258.7 54.9294 259.08 55.6894 259.84C56.4494 260.6 56.8294 261.9 56.8294 263.74V269.14H55.0894V267.58C54.4894 268.78 53.3294 269.38 51.6094 269.38C50.4894 269.38 49.6094 269.12 48.9694 268.6C48.3294 268.08 48.0094 267.4 48.0094 266.56C48.0094 265.84 48.2494 265.22 48.7294 264.7C49.1694 264.18 49.7894 263.76 50.5894 263.44C51.3494 263.16 52.2094 263.02 53.1694 263.02C54.0094 263.02 54.7694 263.06 55.4494 263.14C55.3694 262.02 55.0694 261.22 54.5494 260.74C54.0294 260.26 53.2694 260.02 52.2694 260.02C51.7494 260.02 51.2694 260.12 50.8294 260.32C50.3494 260.52 49.9094 260.8 49.5094 261.16L48.7294 260.14C49.6894 259.18 50.9094 258.7 52.3894 258.7ZM51.7894 268.18C52.9094 268.18 53.7894 267.84 54.4294 267.16C55.0694 266.52 55.4094 265.6 55.4494 264.4C54.7694 264.28 54.0494 264.22 53.2894 264.22C52.1694 264.22 51.2694 264.42 50.5894 264.82C49.9494 265.18 49.6294 265.74 49.6294 266.5C49.6294 267.62 50.3494 268.18 51.7894 268.18ZM62.4141 250V214.6H66.0141V250H62.4141ZM67.8141 250V214.6H71.4141V250H67.8141ZM73.2141 250V214.6H80.4141V250H73.2141ZM76.6341 258.94C76.5141 259.54 76.3741 260.14 76.2141 260.74C76.0141 261.34 75.7541 262.14 75.4341 263.14L72.8541 270.28C72.5341 271.24 72.0941 271.94 71.5341 272.38C70.9741 272.82 70.3141 273.04 69.5541 273.04C68.5941 273.04 67.8141 272.74 67.2141 272.14L67.9341 271.06L68.0541 270.88L68.1741 270.94C68.2141 271.1 68.2741 271.22 68.3541 271.3C68.4341 271.42 68.5741 271.52 68.7741 271.6C69.0541 271.68 69.3541 271.72 69.6741 271.72C70.1941 271.72 70.6341 271.52 70.9941 271.12C71.3141 270.72 71.6341 270.08 71.9541 269.2L67.7541 258.94H69.4341L72.6141 267.1L73.9341 263.02C74.2541 261.98 74.4941 261.2 74.6541 260.68C74.8141 260.12 74.9341 259.54 75.0141 258.94H76.6341ZM82.2188 250V214.6H84.0188V250H82.2188ZM87.6188 250V214.6H91.2188V250H87.6188ZM94.8188 250V214.6H100.219V250H94.8188ZM91.8188 269.38C91.4988 269.38 91.1988 269.26 90.9188 269.02C90.6788 268.74 90.5588 268.44 90.5588 268.12C90.5588 267.76 90.6788 267.46 90.9188 267.22C91.1988 266.98 91.4988 266.86 91.8188 266.86C92.1788 266.86 92.4788 266.98 92.7188 267.22C92.9988 267.46 93.1388 267.76 93.1388 268.12C93.1388 268.44 92.9988 268.74 92.7188 269.02C92.4788 269.26 92.1788 269.38 91.8188 269.38ZM102.023 250V214.6H103.823V250H102.023ZM107.423 250V214.6H114.623V250H107.423ZM116.423 250V214.6H118.223V250H116.423ZM116.243 268.18C115.283 268.94 114.203 269.32 113.003 269.32C111.883 269.32 111.083 268.98 110.603 268.3C110.123 267.58 109.883 266.46 109.883 264.94C109.883 264.66 109.903 264.22 109.943 263.62L110.183 260.26H107.903V258.94H110.243L110.423 256.24L112.163 255.94H112.403V256.06C112.323 256.18 112.263 256.3 112.223 256.42C112.143 256.54 112.103 256.7 112.103 256.9L111.863 258.94H115.223V260.26H111.743L111.563 263.74C111.523 264.34 111.503 264.72 111.503 264.88C111.503 266.08 111.643 266.9 111.923 267.34C112.203 267.74 112.643 267.94 113.243 267.94C113.683 267.94 114.103 267.86 114.503 267.7C114.863 267.54 115.283 267.28 115.763 266.92L116.243 268.18ZM121.828 250V214.6H123.628V250H121.828ZM129.028 250V214.6H136.228V250H129.028ZM138.028 250V214.6H139.828V250H138.028ZM131.728 269.32C130.808 269.32 129.988 269.1 129.268 268.66C128.588 268.22 128.048 267.6 127.648 266.8C127.208 266 126.988 265.08 126.988 264.04C126.988 263 127.208 262.08 127.648 261.28C128.048 260.48 128.588 259.86 129.268 259.42C129.988 258.94 130.808 258.7 131.728 258.7C132.648 258.7 133.448 258.94 134.128 259.42C134.848 259.86 135.408 260.48 135.808 261.28C136.208 262.08 136.408 263 136.408 264.04C136.408 265.08 136.208 266 135.808 266.8C135.408 267.6 134.848 268.22 134.128 268.66C133.448 269.1 132.648 269.32 131.728 269.32ZM131.728 268C132.288 268 132.808 267.82 133.288 267.46C133.728 267.14 134.088 266.68 134.368 266.08C134.608 265.44 134.728 264.74 134.728 263.98C134.728 262.82 134.448 261.88 133.888 261.16C133.328 260.44 132.608 260.08 131.728 260.08C130.848 260.08 130.128 260.44 129.568 261.16C129.008 261.88 128.728 262.82 128.728 263.98C128.728 264.74 128.848 265.44 129.088 266.08C129.368 266.68 129.728 267.14 130.168 267.46C130.608 267.82 131.128 268 131.728 268ZM141.633 250V214.6H143.433V250H141.633ZM150.633 250V214.6H154.233V250H150.633ZM156.033 250V214.6H157.833V250H156.033ZM148.173 267.82H150.813V260.26H148.293V258.94H152.373V267.82H154.773V269.14H148.173V267.82ZM151.533 256.78C151.213 256.78 150.933 256.68 150.693 256.48C150.493 256.24 150.393 255.96 150.393 255.64C150.393 255.32 150.493 255.06 150.693 254.86C150.893 254.62 151.173 254.5 151.533 254.5C151.813 254.5 152.073 254.62 152.313 254.86C152.553 255.1 152.673 255.36 152.673 255.64C152.673 255.96 152.553 256.24 152.313 256.48C152.073 256.68 151.813 256.78 151.533 256.78ZM161.438 250V214.6H165.038V250H161.438ZM168.638 250V214.6H170.438V250H168.638ZM172.238 250V214.6H174.038V250H172.238ZM167.498 267.82H170.558V255.58H167.678V254.32H172.178V267.82H175.178V269.14H167.498V267.82ZM181.242 250V214.6H183.042V250H181.242ZM184.842 250V214.6H188.442V250H184.842ZM192.042 250V214.6H193.842V250H192.042ZM191.622 269.38C190.102 269.38 188.902 268.92 188.022 268C187.102 267.08 186.642 265.78 186.642 264.1C186.642 262.98 186.862 262 187.302 261.16C187.702 260.36 188.262 259.76 188.982 259.36C189.662 258.92 190.442 258.7 191.322 258.7C192.562 258.7 193.562 259.1 194.322 259.9C195.082 260.74 195.462 261.96 195.462 263.56C195.462 263.72 195.462 263.96 195.462 264.28H188.202C188.242 265.52 188.582 266.46 189.222 267.1C189.862 267.74 190.682 268.06 191.682 268.06C192.762 268.06 193.642 267.68 194.322 266.92L195.222 267.82C194.342 268.86 193.142 269.38 191.622 269.38ZM193.842 263.02C193.842 262.06 193.602 261.3 193.122 260.74C192.642 260.18 192.002 259.9 191.202 259.9C190.482 259.9 189.842 260.16 189.282 260.68C188.722 261.2 188.382 261.98 188.262 263.02H193.842ZM201.047 250V214.6H202.847V250H201.047ZM206.447 250V214.6H213.647V250H206.447ZM215.447 250V214.6H217.247V250H215.447ZM215.267 268.18C214.307 268.94 213.227 269.32 212.027 269.32C210.907 269.32 210.107 268.98 209.627 268.3C209.147 267.58 208.907 266.46 208.907 264.94C208.907 264.66 208.927 264.22 208.967 263.62L209.207 260.26H206.927V258.94H209.267L209.447 256.24L211.187 255.94H211.427V256.06C211.347 256.18 211.287 256.3 211.247 256.42C211.167 256.54 211.127 256.7 211.127 256.9L210.887 258.94H214.247V260.26H210.767L210.587 263.74C210.547 264.34 210.527 264.72 210.527 264.88C210.527 266.08 210.667 266.9 210.947 267.34C211.227 267.74 211.667 267.94 212.267 267.94C212.707 267.94 213.127 267.86 213.527 267.7C213.887 267.54 214.307 267.28 214.787 266.92L215.267 268.18ZM220.852 250V214.6H228.052V250H220.852ZM229.852 250V214.6H235.252V250H229.852ZM237.052 250V214.6H238.852V250H237.052ZM226.012 258.94H227.512V259.96C227.752 259.6 228.052 259.3 228.412 259.06C228.772 258.82 229.152 258.7 229.552 258.7C229.992 258.7 230.392 258.84 230.752 259.12C231.072 259.4 231.272 259.76 231.352 260.2C231.552 259.76 231.872 259.4 232.312 259.12C232.712 258.84 233.172 258.7 233.692 258.7C234.332 258.7 234.832 258.94 235.192 259.42C235.512 259.9 235.652 260.54 235.612 261.34V269.14H234.172V261.94C234.172 261.06 234.092 260.5 233.932 260.26C233.772 260.02 233.532 259.9 233.212 259.9C232.932 259.9 232.672 260.02 232.432 260.26C232.192 260.5 231.992 260.82 231.832 261.22C231.672 261.62 231.592 262.02 231.592 262.42V269.14H230.092V262.06C230.092 261.22 230.012 260.66 229.852 260.38C229.692 260.06 229.392 259.9 228.952 259.9C228.752 259.9 228.532 260 228.292 260.2C228.052 260.4 227.852 260.7 227.692 261.1C227.572 261.46 227.512 261.88 227.512 262.36V269.14H226.012V258.94ZM240.656 250V214.6H242.456V250H240.656ZM249.656 250V214.6H251.456V250H249.656ZM253.256 250V214.6H256.856V250H253.256ZM251.336 269.38C250.336 269.38 249.456 269.16 248.696 268.72C247.936 268.24 247.336 267.6 246.896 266.8C246.456 266 246.236 265.08 246.236 264.04C246.236 263.04 246.456 262.14 246.896 261.34C247.336 260.54 247.936 259.9 248.696 259.42C249.456 258.98 250.336 258.76 251.336 258.76C252.136 258.76 252.876 258.92 253.556 259.24C254.196 259.56 254.736 260.02 255.176 260.62L254.156 261.64L254.036 261.76L253.916 261.64C253.916 261.52 253.876 261.4 253.796 261.28C253.756 261.2 253.656 261.08 253.496 260.92C253.176 260.64 252.836 260.44 252.476 260.32C252.076 260.16 251.636 260.08 251.156 260.08C250.556 260.08 250.016 260.24 249.536 260.56C249.016 260.88 248.616 261.34 248.336 261.94C248.016 262.5 247.856 263.16 247.856 263.92C247.856 264.68 248.016 265.38 248.336 266.02C248.656 266.62 249.076 267.08 249.596 267.4C250.156 267.76 250.756 267.94 251.396 267.94C252.436 267.94 253.336 267.52 254.096 266.68L254.996 267.76C253.996 268.84 252.776 269.38 251.336 269.38ZM260.461 250V214.6H262.261V250H260.461ZM265.861 250V214.6H269.461V250H265.861ZM273.061 250V214.6H278.461V250H273.061ZM270.061 269.38C269.741 269.38 269.441 269.26 269.161 269.02C268.921 268.74 268.801 268.44 268.801 268.12C268.801 267.76 268.921 267.46 269.161 267.22C269.441 266.98 269.741 266.86 270.061 266.86C270.421 266.86 270.721 266.98 270.961 267.22C271.241 267.46 271.381 267.76 271.381 268.12C271.381 268.44 271.241 268.74 270.961 269.02C270.721 269.26 270.421 269.38 270.061 269.38ZM280.266 250V214.6H283.866V250H280.266ZM291.066 250V214.6H292.866V250H291.066ZM294.666 250V214.6H296.466V250H294.666ZM286.206 258.94H287.766V260.74C288.166 260.14 288.666 259.64 289.266 259.24C289.866 258.88 290.506 258.7 291.186 258.7C292.106 258.7 292.846 259.04 293.406 259.72C293.926 260.44 294.186 261.52 294.186 262.96V269.14H292.626V263.02C292.626 261.98 292.466 261.24 292.146 260.8C291.786 260.32 291.326 260.08 290.766 260.08C290.286 260.08 289.826 260.22 289.386 260.5C288.906 260.78 288.506 261.16 288.186 261.64C287.906 262.12 287.766 262.66 287.766 263.26V269.14H286.206V258.94ZM300.07 250V214.6H301.87V250H300.07ZM303.67 250V214.6H307.27V250H303.67ZM310.87 250V214.6H312.67V250H310.87ZM310.45 269.38C308.93 269.38 307.73 268.92 306.85 268C305.93 267.08 305.47 265.78 305.47 264.1C305.47 262.98 305.69 262 306.13 261.16C306.53 260.36 307.09 259.76 307.81 259.36C308.49 258.92 309.27 258.7 310.15 258.7C311.39 258.7 312.39 259.1 313.15 259.9C313.91 260.74 314.29 261.96 314.29 263.56C314.29 263.72 314.29 263.96 314.29 264.28H307.03C307.07 265.52 307.41 266.46 308.05 267.1C308.69 267.74 309.51 268.06 310.51 268.06C311.59 268.06 312.47 267.68 313.15 266.92L314.05 267.82C313.17 268.86 311.97 269.38 310.45 269.38ZM312.67 263.02C312.67 262.06 312.43 261.3 311.95 260.74C311.47 260.18 310.83 259.9 310.03 259.9C309.31 259.9 308.67 260.16 308.11 260.68C307.55 261.2 307.21 261.98 307.09 263.02H312.67ZM319.875 250V214.6H321.675V250H319.875ZM325.275 250V214.6H332.475V250H325.275ZM334.275 250V214.6H336.075V250H334.275ZM334.095 268.18C333.135 268.94 332.055 269.32 330.855 269.32C329.735 269.32 328.935 268.98 328.455 268.3C327.975 267.58 327.735 266.46 327.735 264.94C327.735 264.66 327.755 264.22 327.795 263.62L328.035 260.26H325.755V258.94H328.095L328.275 256.24L330.015 255.94H330.255V256.06C330.175 256.18 330.115 256.3 330.075 256.42C329.995 256.54 329.955 256.7 329.955 256.9L329.715 258.94H333.075V260.26H329.595L329.415 263.74C329.375 264.34 329.355 264.72 329.355 264.88C329.355 266.08 329.495 266.9 329.775 267.34C330.055 267.74 330.495 267.94 331.095 267.94C331.535 267.94 331.955 267.86 332.355 267.7C332.715 267.54 333.135 267.28 333.615 266.92L334.095 268.18Z" fill="#5C75EC"/>
<path d="M64.5 169H60V178H55.5V182.5H46.5V178H51V169H55.5V137.5H60V142H64.5V169ZM64.5 178V169H69V173.5H73.5V178H78V182.5H73.5V187H69V178H64.5ZM42 187V182.5H46.5V187H42ZM42 169H37.5V173.5H33V115H37.5V119.5H87V115H91.5V119.5H96V124H42V169ZM82.5 182.5V178H87V128.5H96V182.5H91.5V187H87V182.5H82.5ZM82.5 169H78V142H82.5V169ZM73.5 128.5V164.5H69V133H51V164.5H46.5V128.5H73.5ZM33 173.5V182.5H28.5V173.5H33ZM136.5 119.5H141V124H145.5V119.5H154.5V115H159V119.5H163.5V124H150V128.5H145.5V142H159V137.5H163.5V142H168V146.5H159V187H150V146.5H145.5V164.5H141V173.5H136.5V178H132V182.5H123V178H127.5V173.5H132V164.5H136.5V142H132V160H127.5V164.5H123V160H114V173.5H109.5V182.5H105V119.5H109.5V124H114V119.5H123V115H127.5V119.5H132V124H118.5V128.5H114V137.5H127.5V133H132V137.5H136.5V119.5ZM114 155.5H123V142H114V155.5ZM105 182.5V187H100.5V182.5H105ZM123 182.5V187H118.5V182.5H123ZM226.5 128.5V124H231V128.5H235.5V133H231V151H226.5V155.5H222V151H186V155.5H181.5V124H186V128.5H195V124H190.5V119.5H199.5V128.5H208.5V124H213V119.5H217.5V115H226.5V119.5H222V124H217.5V128.5H226.5ZM226.5 178V182.5H222V187H195V182.5H190.5V160H195V164.5H199.5V178H217.5V169H222V178H226.5ZM226.5 173.5V164.5H231V169H235.5V173.5H240V178H235.5V182.5H231V173.5H226.5ZM226.5 160V164.5H222V160H226.5ZM204 155.5V160H199.5V155.5H204ZM204 160H213V164.5H217.5V169H213V173.5H208.5V164.5H204V160ZM181.5 178V182.5H177V178H172.5V173.5H177V164.5H181.5V160H186V178H181.5ZM186 119.5V115H190.5V119.5H186ZM222 146.5V133H190.5V146.5H222ZM280.5 124V133H276V137.5H271.5V128.5H258V133H262.5V142H267V137.5H271.5V142H285V119.5H289.5V124H303V119.5H307.5V124H312V128.5H307.5V142H303V146.5H298.5V128.5H294V146.5H298.5V151H294V169H303V155.5H298.5V151H307.5V155.5H312V169H307.5V173.5H303V178H298.5V173.5H294V187H285V160H280.5V178H276V182.5H271.5V178H253.5V182.5H249V151H253.5V155.5H276V151H280.5V155.5H285V146.5H244.5V142H258V137.5H253.5V128.5H249V124H262.5V119.5H258V115H267V119.5H271.5V124H280.5ZM258 173.5H271.5V160H258V173.5Z" fill="#5C75EC"/>
<path d="M5.132 14.332H0.972V9.6H18.756V14.332H14.96L21.304 38.096H21.512L26.088 21.092L24.008 14.332H20.888V9.6H39.036V14.332H34.252L40.804 38.096H41.012L47.408 14.332H42.884V9.6H56.924V14.332H52.764L44.08 46H34.512L28.948 25.46L23.332 46H13.764L5.132 14.332ZM55.7329 41.268H60.6209V14.332H55.7329V9.6H74.7129V14.332H69.7729V41.268H74.7129V46H55.7329V41.268ZM76.5532 41.268H81.4412V14.332H76.5532V9.6H95.5852V14.332H90.5932V25.616H94.2852L103.749 14.332H99.2252V9.6H114.097V14.332H109.573L101.721 24.004L113.213 41.268H116.853V46H98.0812V41.268H102.085L94.3892 29.932H90.5932V41.268H95.4812V46H76.5532V41.268ZM116.01 41.268H120.898V14.332H116.01V9.6H134.99V14.332H130.05V41.268H134.99V46H116.01V41.268Z" fill="#5C75EC"/>
<path d="M141.764 85.268H146.132L155.596 60.412L154.92 58.332H150.5V53.6H167.764L178.528 85.268H182.948V90H162.98V85.268H168.7L166.204 77.936H153.984L151.228 85.268H157.884V90H141.764V85.268ZM165.06 74.088L160.692 61.348H160.068L155.232 74.088H165.06ZM182.057 85.268H186.945V58.332H182.057V53.6H201.765C206.098 53.6 209.496 54.432 211.957 56.096C214.453 57.7253 215.701 60.0133 215.701 62.96C215.701 65.0053 215.025 66.7733 213.673 68.264C212.356 69.72 210.466 70.7773 208.005 71.436V71.852C210.882 72.372 213.101 73.3947 214.661 74.92C216.221 76.4453 217.001 78.352 217.001 80.64C217.001 83.552 215.77 85.84 213.309 87.504C210.882 89.168 207.537 90 203.273 90H182.057V85.268ZM201.817 85.476C203.585 85.476 204.937 84.9733 205.873 83.968C206.844 82.9627 207.329 81.524 207.329 79.652C207.329 77.78 206.826 76.3413 205.821 75.336C204.85 74.296 203.516 73.776 201.817 73.776H196.097V85.476H201.817ZM200.777 69.772C202.51 69.772 203.862 69.2693 204.833 68.264C205.838 67.224 206.341 65.7853 206.341 63.948C206.341 62.1107 205.838 60.6893 204.833 59.684C203.862 58.644 202.51 58.124 200.777 58.124H196.097V69.772H200.777ZM238.787 90.78C235.147 90.78 231.871 89.9653 228.959 88.336C226.082 86.7067 223.828 84.4533 222.199 81.576C220.57 78.6987 219.755 75.44 219.755 71.8C219.755 68.16 220.57 64.9013 222.199 62.024C223.828 59.1467 226.082 56.8933 228.959 55.264C231.871 53.6347 235.147 52.82 238.787 52.82C242.427 52.82 245.703 53.6347 248.615 55.264C251.527 56.8933 253.78 59.1467 255.375 62.024C257.004 64.9013 257.819 68.16 257.819 71.8C257.819 75.44 257.004 78.6987 255.375 81.576C253.78 84.4533 251.527 86.7067 248.615 88.336C245.703 89.9653 242.427 90.78 238.787 90.78ZM238.787 85.632C240.694 85.632 242.34 85.112 243.727 84.072C245.114 82.9973 246.171 81.42 246.899 79.34C247.662 77.26 248.043 74.7467 248.043 71.8C248.043 68.8533 247.662 66.34 246.899 64.26C246.171 62.18 245.114 60.62 243.727 59.58C242.34 58.5053 240.694 57.968 238.787 57.968C236.88 57.968 235.234 58.5053 233.847 59.58C232.46 60.62 231.386 62.18 230.623 64.26C229.895 66.34 229.531 68.8533 229.531 71.8C229.531 74.7467 229.895 77.26 230.623 79.34C231.386 81.42 232.46 82.9973 233.847 84.072C235.234 85.112 236.88 85.632 238.787 85.632ZM279.911 90.78C276.895 90.78 274.226 90.156 271.903 88.908C269.581 87.66 267.778 85.892 266.495 83.604C265.213 81.316 264.571 78.6813 264.571 75.7V58.332H259.839V53.6H278.923V58.332H273.775V75.544C273.775 77.728 274.105 79.5653 274.763 81.056C275.422 82.512 276.341 83.604 277.519 84.332C278.733 85.0253 280.171 85.372 281.835 85.372C283.395 85.372 284.782 84.956 285.995 84.124C287.209 83.2573 288.145 82.0613 288.803 80.536C289.462 78.976 289.791 77.208 289.791 75.232V58.332H284.643V53.6H299.619V58.332H294.835V75.388C294.835 78.508 294.211 81.2293 292.963 83.552C291.75 85.8747 290.017 87.66 287.763 88.908C285.51 90.156 282.893 90.78 279.911 90.78ZM307.649 85.268H314.617V58.28H310.509C309.885 58.28 309.209 58.5573 308.481 59.112C307.753 59.6667 307.129 60.3427 306.609 61.14C306.124 61.9373 305.881 62.6827 305.881 63.376V67.952H301.201V50.636H305.985V53.6H332.401V50.636H337.133V67.952H332.453V63.376C332.453 62.6827 332.193 61.9373 331.673 61.14C331.188 60.3427 330.581 59.6667 329.853 59.112C329.16 58.5573 328.484 58.28 327.825 58.28H323.717V85.268H330.685V90H307.649V85.268Z" fill="#5C75EC"/>
<path d="M136.975 23.465C136.9 23.15 136.645 22.385 136.45 21.965C136.84 21.875 137.17 21.53 137.635 20.975C138.145 20.42 139.675 18.29 140.665 16.205L142.045 17.075C140.95 19.085 139.48 21.14 138.055 22.625V22.67C138.055 22.67 136.975 23.165 136.975 23.465ZM136.975 23.465L136.87 22.07L137.635 21.545L141.775 20.855C141.715 21.305 141.7 21.995 141.715 22.355C137.995 23.06 137.38 23.24 136.975 23.465ZM136.855 19.805C136.78 19.475 136.51 18.665 136.315 18.215C136.615 18.14 136.87 17.81 137.2 17.33C137.53 16.85 138.535 14.975 139.045 13.22L140.665 13.97C139.945 15.725 138.85 17.615 137.785 18.935V18.98C137.785 18.98 136.855 19.505 136.855 19.805ZM136.855 19.805L136.81 18.605L137.53 18.125L140.035 17.93C139.945 18.365 139.87 18.98 139.87 19.325C137.62 19.565 137.155 19.67 136.855 19.805ZM136.48 24.98C137.86 24.725 139.975 24.23 141.985 23.765L142.165 25.265C140.305 25.775 138.325 26.285 136.81 26.69L136.48 24.98ZM143.77 18.86H149.935V20.465H143.77V18.86ZM143.8 21.74H149.965V23.345H143.8V21.74ZM143.65 24.71H150.505V26.375H143.65V24.71ZM146.38 16.505H148.045V25.595H146.38V16.505ZM144.535 15.95H150.31V17.57H144.535V27.38H142.855V16.985L143.845 15.95H144.535ZM144.07 13.31L145.795 13.805C145 16.1 143.755 18.665 142.24 20.375C142.075 19.925 141.7 19.115 141.46 18.68C142.6 17.315 143.605 15.05 144.07 13.31ZM145.96 13.97L147.475 13.325C147.925 13.985 148.36 14.855 148.555 15.44L146.95 16.175C146.8 15.575 146.365 14.66 145.96 13.97ZM137.275 29.405H149.785V30.86H137.275V29.405ZM137.83 40.46H149.305V41.93H137.83V40.46ZM140.41 31.505H146.53V32.765H140.41V31.505ZM140.41 33.425H146.53V34.685H140.41V33.425ZM136.48 35.345H150.505V36.815H136.48V35.345ZM139.885 38.075H147.13V39.485H139.885V38.075ZM139.345 28.265H141.16V36.155H139.345V28.265ZM145.885 28.28H147.715V36.155H145.885V28.28ZM142.54 37.13H144.385V41.315H142.54V37.13ZM140.275 35.765L141.775 36.32C140.815 37.91 139.195 39.32 137.485 40.085C137.23 39.665 136.72 39.035 136.345 38.705C137.905 38.135 139.48 36.98 140.275 35.765ZM146.785 35.765C147.58 36.92 149.125 38 150.67 38.555C150.28 38.885 149.755 39.53 149.485 39.95C147.865 39.23 146.305 37.805 145.36 36.305L146.785 35.765Z" fill="#5C75EC"/>
<path d="M306.905 39.31H318.35V41.095H306.905V39.31ZM305.885 43.135H319.13V44.92H305.885V43.135ZM313.4 43.69C314.42 46.105 316.505 47.815 319.67 48.49C319.235 48.91 318.665 49.72 318.395 50.275C315.035 49.33 313.01 47.245 311.75 44.125L313.4 43.69ZM315.35 36.28L317.33 36.925C316.625 38.14 315.8 39.43 315.155 40.27L313.61 39.67C314.225 38.755 314.96 37.33 315.35 36.28ZM308.045 37.075L309.56 36.31C310.22 37.06 310.865 38.08 311.165 38.8L309.545 39.685C309.305 38.965 308.66 37.87 308.045 37.075ZM311.555 39.925H313.67V43.03C313.67 45.61 312.665 48.52 306.77 50.35C306.53 49.915 305.93 49.135 305.435 48.73C310.82 47.17 311.555 44.935 311.555 43V39.925ZM320.75 42.085H334.25V43.87H320.75V42.085ZM326.69 37.87H328.61V48.04C328.61 49.15 328.355 49.66 327.635 49.945C326.93 50.245 325.82 50.29 324.32 50.29C324.215 49.75 323.87 48.895 323.585 48.385C324.695 48.43 325.88 48.43 326.24 48.415C326.57 48.415 326.69 48.325 326.69 48.025V37.87ZM321.77 37.225H333.215V39.01H321.77V37.225Z" fill="#5C75EC"/>
<rect x="3" y="211" width="336" height="63" fill="white" fill-opacity="0.01" id="barcode"/>
</svg>
