<svg width="337" height="373" viewBox="0 0 337 373" fill="none" xmlns="http://www.w3.org/2000/svg">
<path d="M43 114V139.899H68.8022V165.797H94.6169V191.696H120.432V217.594H146.221V269.391H120.419V295.303H94.6097V321.176H68.8147V347.074H43V373H197.851V347.1H223.588V321.199H249.459V295.301H275.196V269.334H301V217.6H275.263V191.766H249.459V165.866H223.655V139.965H197.851V114H43Z" fill="#5C75EC"/>
<path fill-rule="evenodd" clip-rule="evenodd" d="M191.982 0.00127498C192.184 -0.0121443 192.438 0.0817867 192.559 0.215979C192.666 0.336752 192.733 0.524622 192.693 0.618557C192.653 0.699072 192.613 0.833267 192.613 0.913782C192.613 0.994297 192.116 1.04797 190.198 1.04797V1.85313C190.198 2.3899 190.131 2.72538 189.997 2.85957C189.863 2.99376 189.796 3.34266 189.796 3.93311C189.796 4.59065 189.85 4.81878 189.997 4.87245C190.145 4.92613 190.225 5.20793 190.265 5.85206C190.306 6.34857 190.359 7.1403 190.373 7.62339C190.4 8.40171 190.373 8.49564 190.131 8.5359C189.984 8.57616 189.823 8.65667 189.769 8.75061C189.715 8.83112 189.662 9.15318 189.662 9.47525C189.662 9.78389 189.635 10.1328 189.595 10.2401C189.555 10.3475 189.447 10.4414 189.367 10.4414C189.233 10.4414 189.152 11.0856 189.018 12.7495C188.924 14.0244 188.857 15.6615 188.857 17.6878H189.326C189.622 17.6878 189.823 17.7549 189.863 17.8891C189.903 17.9965 189.93 18.4527 189.93 19.7007L190.373 19.741C190.802 19.7678 190.802 19.7678 190.909 20.7071C190.976 21.2305 191.07 23.5252 191.137 25.8064C191.191 28.1011 191.285 30.785 191.325 31.778C191.392 33.026 191.352 34.3142 191.204 35.938C191.084 37.2262 190.963 38.6755 190.923 39.1586C190.882 39.6417 190.775 40.0845 190.681 40.165C190.574 40.2321 190.453 40.6615 190.4 41.1044C190.346 41.5472 190.279 43.4259 190.252 45.2643C190.212 47.1162 190.239 49.7329 190.306 51.1017C190.373 52.4705 190.48 53.705 190.561 53.8526C190.641 54.0002 191.03 54.2552 191.419 54.4162C191.821 54.5773 192.465 54.7383 192.854 54.7786C193.23 54.8188 193.578 54.9262 193.619 54.9933C193.659 55.0738 194.222 55.1275 194.893 55.1275C195.738 55.1275 196.503 55.0201 197.441 54.792C198.568 54.5102 198.957 54.4699 199.896 54.537C200.835 54.6175 201.076 54.6846 201.532 55.0335C201.828 55.2482 202.243 55.6374 202.471 55.8924C202.699 56.1339 203.115 56.4157 203.41 56.5231C203.813 56.6573 204.068 56.872 204.389 57.355C204.631 57.7174 204.899 58.1199 204.993 58.2541C205.074 58.3749 205.288 58.4823 205.463 58.4823C205.637 58.4823 205.865 58.6299 206.012 58.858C206.16 59.0593 206.361 59.4619 206.469 59.7571C206.576 60.0523 206.79 60.5354 206.951 60.8306C207.166 61.2466 207.233 61.6089 207.233 62.4409C207.246 63.3132 207.193 63.5816 206.965 63.8902C206.737 64.1989 206.603 64.2525 206.026 64.2525C205.449 64.2525 205.342 64.2928 205.234 64.5612C205.167 64.7222 204.926 65.1114 204.698 65.4334C204.443 65.7689 204.175 65.997 204.014 65.997C203.866 65.997 203.464 66.2788 203.115 66.6143C202.753 66.9498 202.297 67.3121 202.069 67.4195C201.841 67.5268 201.425 67.661 201.13 67.7013C200.835 67.7415 200.366 67.7147 200.097 67.6208C199.816 67.5402 199.467 67.3121 199.319 67.1108C199.158 66.8961 199.038 66.6009 199.051 66.4399C199.051 66.2654 199.145 66.091 199.266 66.0373C199.44 65.9434 199.494 65.6079 199.547 64.3196C199.601 63.2729 199.561 62.4544 199.453 61.9713C199.373 61.5687 199.239 61.099 199.172 60.938C199.091 60.7099 199.105 60.5757 199.252 60.4281C199.427 60.2536 199.427 60.1731 199.239 59.7973C199.118 59.5558 198.836 59.1532 198.635 58.9251C198.421 58.6836 198.246 58.442 198.246 58.3883C198.246 58.3212 198.058 58.1736 197.817 58.026C197.415 57.8113 197.16 57.7845 195.362 57.8516C193.699 57.9052 193.203 57.9723 192.479 58.2407C191.996 58.4152 191.245 58.7641 190.802 59.0056C190.359 59.2606 189.769 59.6632 189.501 59.9181C189.219 60.1597 188.857 60.4281 188.696 60.5086C188.522 60.5757 188.227 60.938 188.025 61.3137C187.744 61.7968 187.677 62.0384 187.771 62.2128C187.864 62.3738 187.811 62.6422 187.569 63.1522C187.395 63.5279 187.247 64.011 187.247 64.2257C187.247 64.427 187.14 64.8027 187.006 65.0577C186.872 65.3127 186.496 66.0105 186.174 66.6009C185.852 67.1913 185.49 67.7684 185.343 67.8757C185.209 67.9831 185.007 68.4125 184.9 68.8151C184.793 69.2176 184.578 69.6471 184.431 69.7544C184.256 69.8886 184.136 70.1973 184.069 70.6267C184.015 71.0024 183.867 71.405 183.733 71.5392C183.586 71.6868 183.492 71.9686 183.492 72.3041C183.492 72.5993 183.438 72.9616 183.358 73.1092C183.277 73.2703 183.089 73.3776 182.888 73.3776C182.566 73.3776 182.553 73.4179 182.553 74.1828C182.553 74.6256 182.526 75.0818 182.486 75.1892C182.446 75.2966 182.325 75.3905 182.218 75.3905C182.057 75.3905 182.03 75.5247 182.097 76.1017C182.164 76.6519 182.137 76.8532 181.963 77.0411C181.802 77.2155 181.761 77.4302 181.829 77.9804C181.869 78.3561 181.99 79.0405 182.097 79.4834C182.191 79.9262 182.285 80.4227 182.285 80.5972C182.285 80.7716 182.204 80.8924 182.083 80.8924C181.949 80.8924 181.909 80.9729 181.963 81.1339C182.016 81.2547 182.15 81.7512 182.285 82.2343C182.405 82.7174 182.674 83.3883 182.875 83.7507C183.063 84.0996 183.197 84.4887 183.156 84.6229C183.116 84.7437 183.197 85.0121 183.331 85.1999C183.452 85.3878 183.948 85.9783 184.431 86.515C184.914 87.0518 185.477 87.602 185.705 87.7362C185.933 87.8704 186.416 88.0582 186.778 88.1388C187.154 88.2193 187.878 88.34 188.388 88.3937C189.031 88.4742 189.635 88.4474 190.306 88.3266C190.829 88.2193 191.647 87.9509 192.116 87.7228C192.572 87.4946 192.975 87.2665 193.015 87.2128C193.055 87.1726 193.324 86.9713 193.619 86.7834C193.914 86.5956 194.303 86.4077 194.491 86.354C194.678 86.3137 195.081 85.9514 195.429 85.5086C195.765 85.0792 196.476 84.274 197.012 83.7238C197.674 83.0439 198.166 82.3774 198.488 81.7244C198.903 80.9058 199.038 80.7448 199.319 80.7582C199.561 80.7582 199.896 80.5032 200.5 79.8859C201.17 79.1881 201.412 79.0137 201.774 79.0003C202.002 78.9868 202.632 79.1479 203.142 79.3626C203.866 79.6712 204.094 79.8188 204.121 80.0604C204.135 80.2214 204.094 80.4764 204.014 80.624C203.92 80.8119 203.746 80.8924 203.451 80.8924C203.035 80.8924 202.981 80.9595 202.579 81.7646C202.217 82.4893 202.069 82.6503 201.707 82.7442C201.345 82.8247 201.237 82.9589 200.942 83.7104C200.594 84.5827 200.594 84.5827 200.017 84.6229C199.467 84.6498 199.453 84.6632 198.984 85.5891C198.555 86.4345 198.474 86.5285 198.112 86.5285C197.871 86.5285 197.602 86.6492 197.441 86.8371C197.294 86.9981 197.173 87.1726 197.173 87.2397C197.173 87.2933 196.918 87.6154 196.61 87.9509C196.288 88.2998 195.684 88.8231 195.242 89.1318C194.812 89.427 194.33 89.7759 194.169 89.8833C194.008 90.004 193.9 90.1919 193.927 90.3529C193.954 90.5676 193.806 90.7018 193.189 90.9836C192.76 91.1849 191.808 91.5607 191.07 91.8022C190.332 92.0572 189.394 92.3524 188.991 92.4463C188.481 92.5805 187.368 92.6342 185.303 92.6342C183.277 92.6208 182.244 92.5671 182.016 92.4597C181.829 92.3658 181.587 92.245 181.48 92.1779C181.372 92.1108 181.064 91.9632 180.809 91.8559C180.554 91.7351 179.843 91.413 179.226 91.1312C178.395 90.7555 178.086 90.5408 178.019 90.2992C177.952 90.0845 177.617 89.8296 176.919 89.4673C176.369 89.1855 175.779 88.8097 175.618 88.6487C175.457 88.4742 175.015 87.9911 174.639 87.5751C174.277 87.1457 173.968 86.7297 173.968 86.6626C173.968 86.5956 174.036 86.5016 174.103 86.4613C174.183 86.4211 174.089 86.099 173.888 85.6964C173.687 85.3073 173.512 84.7974 173.499 84.5827C173.472 84.368 173.338 83.9117 173.19 83.5762C172.976 83.0797 172.949 82.9187 173.07 82.6637C173.204 82.4222 173.19 82.2343 173.03 81.8049C172.922 81.4962 172.734 81.1205 172.6 80.9595C172.48 80.8119 172.305 80.3959 172.211 80.0201C172.131 79.6578 171.956 79.2552 171.836 79.1479C171.702 79.0271 171.568 78.5977 171.5 78.1414C171.433 77.551 171.313 77.2558 171.071 77.0411C170.843 76.8263 170.749 76.5848 170.749 76.2359C170.736 75.9273 170.843 75.5784 171.018 75.3637C171.232 75.0684 171.272 74.8671 171.205 74.4243C171.152 74.0888 171.179 73.7265 171.272 73.5521C171.407 73.2837 171.541 73.2434 172.332 73.2166C173.177 73.1763 173.231 73.1629 173.271 72.8408C173.284 72.653 173.365 72.2772 173.432 72.0088C173.553 71.5258 173.606 71.4989 174.129 71.4721C174.679 71.4318 174.693 71.4184 174.988 70.6938C175.149 70.2644 175.39 69.902 175.565 69.8215C175.712 69.7544 176.021 69.3116 176.249 68.8553C176.463 68.3857 176.772 67.9294 176.906 67.8489C177.053 67.755 177.362 67.3792 177.59 67.0035C177.818 66.6412 178.18 66.1849 178.381 65.997C178.583 65.8092 178.918 65.3932 179.133 65.0711C179.361 64.7356 179.937 64.1854 180.474 63.8231C180.984 63.4608 181.815 62.8972 182.325 62.5751C182.888 62.1994 183.384 61.7297 183.639 61.3406C183.881 60.9782 184.645 60.1328 185.356 59.4485C186.067 58.7507 186.912 57.9992 187.811 57.3416L185.624 57.3014C184.417 57.2745 182.365 57.3148 181.077 57.3953C179.79 57.4892 178.287 57.5832 177.764 57.61C177.013 57.6637 176.745 57.6369 176.584 57.4758C176.45 57.3416 176.383 56.9927 176.383 56.3754C176.383 55.8655 176.436 55.3824 176.49 55.2885C176.544 55.1677 177.094 55.0738 178.059 54.9933C178.864 54.9262 179.776 54.8054 180.071 54.7115C180.367 54.631 180.769 54.4833 180.984 54.376C181.198 54.2686 181.399 54.0137 181.48 53.7587C181.56 53.5172 181.708 52.7791 181.815 52.1081C181.922 51.4372 182.11 49.5048 182.244 47.814C182.432 45.2912 182.472 43.1441 182.472 36.0051C182.459 28.0206 182.446 27.2557 182.231 26.9471C182.057 26.7055 182.016 26.4506 182.083 26.0077C182.124 25.6723 182.191 25.0147 182.231 24.5316C182.285 24.0083 182.405 23.552 182.539 23.4044C182.714 23.2031 182.754 22.8274 182.741 20.9889C182.727 19.8081 182.647 17.7415 182.566 16.413C182.486 15.0845 182.392 13.5949 182.352 13.0984C182.298 12.2933 182.258 12.1859 182.016 12.1859C181.869 12.1859 181.721 12.092 181.681 11.9846C181.641 11.8773 181.614 11.5686 181.614 11.3137C181.614 11.0587 181.681 10.7232 181.748 10.5756C181.815 10.428 181.976 10.3072 182.083 10.3072C182.244 10.3072 182.285 10.1194 182.285 9.43499C182.285 8.75061 182.325 8.56274 182.486 8.56274C182.647 8.56274 182.687 8.30777 182.687 7.01953C182.687 6.05334 182.62 5.35554 182.526 5.14084C182.378 4.87245 182.218 4.79194 181.614 4.72484C181.212 4.67116 180.38 4.67116 178.663 4.80536L178.583 4.44304C178.529 4.22833 178.542 3.85259 178.583 3.59763C178.636 3.34266 178.784 2.92666 178.904 2.69854C179.025 2.45699 179.253 2.20203 179.401 2.12151C179.548 2.05441 180.125 1.86655 180.675 1.71894C181.225 1.57132 182.016 1.39687 182.419 1.31636C182.821 1.23584 183.76 1.11507 184.498 1.04797C185.235 0.967459 186.322 0.833266 186.912 0.725912C187.502 0.618558 188.347 0.457528 188.79 0.377013C189.233 0.283078 190.051 0.175723 190.601 0.108627C191.151 0.0549501 191.768 0.00127498 191.982 0.00127498ZM249.082 4.67116C249.149 4.67116 249.189 5.83864 249.176 7.42211C249.149 9.82415 249.176 10.1865 249.364 10.3341C249.551 10.4817 249.619 10.9916 249.753 13.1253C249.847 14.5611 249.887 16.158 249.833 16.6814C249.793 17.2047 249.726 18.0233 249.619 19.4323H249.994C250.195 19.4323 251.174 19.3652 252.167 19.2713C253.16 19.1908 254.139 19.1639 254.353 19.2042C254.568 19.2579 254.863 19.5128 255.091 19.8617C255.386 20.318 255.467 20.5998 255.494 21.3647C255.52 22.0088 255.48 22.3711 255.359 22.4919C255.239 22.5993 255.078 22.6127 254.85 22.5322C254.622 22.4651 254.058 22.5187 253.106 22.72C252.328 22.8811 251.483 23.0689 251.228 23.1494C250.973 23.23 250.423 23.3373 249.283 23.4715L249.176 24.7061C249.122 25.3905 249.082 27.0142 249.082 28.3293C249.082 30.3153 249.109 30.7179 249.283 30.7716C249.431 30.8252 249.484 31.0534 249.484 31.6438C249.484 32.0866 249.551 32.5832 249.632 32.7576C249.726 32.9589 249.726 33.5225 249.632 34.6631C249.551 35.5488 249.431 36.7297 249.35 37.2799C249.283 37.8301 249.216 38.4474 249.216 38.6621C249.216 38.8633 249.069 41.0909 248.881 43.6272C248.693 46.15 248.546 48.7533 248.546 49.4243C248.559 50.0952 248.613 51.0883 248.68 51.6385C248.747 52.1886 248.854 52.6852 248.908 52.7523C248.961 52.8059 249.471 52.5241 250.021 52.1081C250.571 51.7056 251.107 51.3164 251.201 51.2359C251.282 51.1688 251.51 51.1017 251.698 51.1017C251.921 51.1017 252.391 50.7886 253.106 50.1623C254.166 49.2364 254.192 49.223 254.957 49.2096C255.373 49.2096 256.057 49.1022 257.197 48.7399L257.358 48.0153C257.452 47.6127 257.573 47.2235 257.626 47.1699C257.693 47.1028 257.854 47.0759 258.002 47.1028C258.149 47.1296 258.377 47.3577 258.511 47.6127C258.632 47.8677 258.753 48.3105 258.78 48.5923C258.807 49.0083 258.86 49.1156 259.142 49.1693C259.33 49.2096 259.571 49.2767 259.678 49.3169C259.786 49.3438 260.336 49.4377 260.886 49.5182C261.436 49.5853 262.374 49.6793 262.965 49.7195C263.555 49.7464 264.252 49.7195 264.507 49.6524C264.762 49.5719 265.527 49.4377 266.184 49.3572C266.841 49.2767 267.874 49.1291 268.464 49.0486C269.054 48.9546 269.872 48.9278 270.275 48.968C270.677 49.0217 271.442 49.2096 271.951 49.4109C272.555 49.6256 273.078 49.9342 273.4 50.2563C273.668 50.5381 273.896 50.8467 273.896 50.9407C273.896 51.048 273.682 51.1017 273.293 51.1017C272.77 51.1017 272.703 51.1285 272.783 51.3432C272.823 51.464 272.89 52.3094 272.957 54.8591H273.36C273.695 54.8591 273.789 54.9262 273.896 55.3019C273.977 55.53 274.03 55.8923 274.03 56.1071C274.03 56.3083 273.937 56.5633 273.829 56.6707C273.695 56.8049 273.628 57.1269 273.628 57.61C273.628 58.2407 273.588 58.3615 273.36 58.4152C273.118 58.4688 273.092 58.5896 273.092 59.4887C273.092 60.0657 273.038 60.4952 272.957 60.4952C272.877 60.4952 272.823 60.8709 272.823 61.3674C272.823 62.1323 272.864 62.2531 273.092 62.3067C273.32 62.3604 273.36 62.4812 273.36 63.1119C273.36 63.5145 273.333 63.9439 273.293 64.0512C273.253 64.1586 273.105 64.2525 272.957 64.2525C272.716 64.2525 272.689 64.3465 272.689 65.997H264.507V67.7415H265.312C265.902 67.7415 266.13 67.7952 266.184 67.9428C266.224 68.0502 266.251 68.5064 266.251 69.7544H267.86V71.4989H268.866C269.644 71.4989 269.886 71.5392 269.939 71.7002C269.98 71.8076 270.007 72.2101 270.007 73.2434H271.683C273.051 73.2434 273.373 73.2837 273.427 73.4447C273.467 73.5521 273.494 74.0083 273.494 75.2563H273.963C274.258 75.2563 274.46 75.3234 274.5 75.4576C274.54 75.5649 274.567 75.9944 274.567 76.3969C274.567 76.7995 274.621 77.1618 274.701 77.2021C274.782 77.2423 274.835 77.6047 274.835 78.0072C274.835 78.4098 274.808 78.8392 274.768 78.9466C274.728 79.0539 274.554 79.1479 274.366 79.1479C274.044 79.1479 274.03 79.1881 274.03 80.7582H274.567C275.01 80.7582 275.117 80.8119 275.171 81.0668C275.211 81.2279 275.224 82.1806 275.157 84.9852L275.667 85.4549C275.949 85.7099 276.217 86.0722 276.257 86.2601C276.297 86.4479 276.458 86.7834 276.619 86.9981C276.78 87.2128 276.941 87.4275 276.981 87.4678C277.022 87.5081 277.183 87.7228 277.33 87.9375C277.491 88.1522 277.706 88.6084 277.84 88.9439C277.974 89.2794 278.175 89.7759 278.296 90.0577C278.417 90.3261 278.578 90.5542 278.658 90.5542C278.738 90.5542 279.074 90.3663 279.436 90.1516C279.865 89.8698 280.201 89.5075 280.509 88.9976C280.737 88.5816 281.005 88.2058 281.086 88.1522C281.166 88.1119 281.3 87.8569 281.394 87.602C281.515 87.2128 281.676 87.0652 282.32 86.7834C282.736 86.5821 283.192 86.3808 283.326 86.3406C283.487 86.2869 283.567 86.3406 283.621 86.5955C283.661 86.7834 283.634 87.2128 283.554 87.5751C283.487 87.924 283.379 88.2327 283.312 88.2729C283.245 88.3132 283.111 88.6755 283.017 89.0781C282.923 89.4807 282.749 90.004 282.615 90.2187C282.494 90.4334 282.32 90.8897 282.226 91.2252C282.105 91.7351 281.958 91.9096 281.367 92.2987C280.992 92.5537 280.375 92.8757 279.999 92.9965C279.637 93.1307 279.087 93.2246 278.792 93.2381C278.497 93.2381 278.014 93.171 277.719 93.0905C277.424 92.9965 276.968 92.7952 276.713 92.6342C276.378 92.4329 276.217 92.2048 276.15 91.8827C276.109 91.6278 276.123 91.1581 276.203 90.8226C276.311 90.3127 276.284 90.0711 275.707 88.2729H275.104C274.768 88.2729 274.165 88.2059 273.762 88.1119C273.36 88.0314 272.81 87.9643 272.555 87.9643C272.3 87.9643 271.187 88.0314 270.074 88.1119C268.209 88.2461 268.035 88.2327 267.659 88.0046C267.431 87.8704 267.082 87.5617 266.854 87.3336C266.573 87.0384 266.452 86.77 266.439 86.4211C266.425 86.1527 266.318 85.6696 266.197 85.361C266.076 85.0389 265.889 84.69 265.781 84.5827C265.674 84.4753 265.58 84.2338 265.58 84.0459C265.58 83.858 265.527 83.7104 265.446 83.7104C265.366 83.7104 265.151 83.9788 264.95 84.3009C264.735 84.6229 264.36 85.0523 264.091 85.267C263.836 85.4817 263.434 85.8709 263.206 86.1259C262.978 86.3808 262.294 86.9042 261.677 87.2665C260.564 87.924 260.537 87.9375 259.424 87.9375C258.337 87.9375 258.283 87.924 258.015 87.5483C257.854 87.3336 257.613 87.0115 257.197 86.5016L255.789 86.8102C254.675 87.0518 254.26 87.2128 253.817 87.5617C253.495 87.8033 253.267 88.0448 253.307 88.1119C253.334 88.1656 253.294 88.3132 253.2 88.4474C253.093 88.6084 252.516 88.8231 251.496 89.0915C250.651 89.3062 249.686 89.4807 249.35 89.4807C249.015 89.4807 248.505 89.4002 248.21 89.2928C247.915 89.1989 247.285 88.9305 246.802 88.6889C246.212 88.4071 245.729 88.2729 245.3 88.2729C244.776 88.2729 244.615 88.2193 244.468 87.9777C244.361 87.8033 244.226 87.4946 244.159 87.2799C244.106 87.0652 243.931 86.8102 243.784 86.7029C243.636 86.609 243.261 86.5285 242.952 86.5285C242.402 86.5285 242.349 86.4882 241.946 85.8306C241.705 85.4549 241.356 85.0255 241.168 84.8913C240.9 84.69 240.605 84.6363 239.666 84.6498C238.499 84.6498 238.486 84.6498 238.137 84.2203C237.936 83.9788 237.667 83.5494 237.533 83.281C237.319 82.865 237.211 82.7711 236.876 82.7711C236.608 82.7711 236.407 82.6771 236.286 82.4758C236.179 82.3014 236.058 81.9525 236.004 81.6975C235.951 81.4426 235.83 81.0802 235.736 80.8924C235.642 80.7045 235.508 80.2885 235.427 79.953C235.347 79.5773 235.334 79.2552 235.414 79.121C235.481 78.9868 235.535 78.4903 235.535 78.0072C235.535 77.2289 235.508 77.135 235.267 77.135C235.119 77.135 234.971 77.0411 234.931 76.9337C234.891 76.8263 234.864 76.6251 234.864 76.5043C234.864 76.3701 234.931 76.0346 234.998 75.7662C235.092 75.4173 235.213 75.2563 235.374 75.2563C235.535 75.2563 235.669 75.0416 235.843 74.4243C235.977 73.9546 236.165 73.4984 236.246 73.4044C236.353 73.2971 236.729 73.23 238.083 73.2434L238.486 72.3712C238.875 71.5392 238.915 71.4989 239.358 71.4989C239.72 71.4989 239.854 71.4318 239.948 71.2037C240.015 71.0292 240.256 70.6401 240.484 70.3314C240.82 69.8618 240.981 69.7544 241.343 69.7544C241.651 69.7544 241.986 69.58 242.51 69.164C242.912 68.8419 243.583 68.3722 243.998 68.1307C244.414 67.8757 245.125 67.3255 245.581 66.9095C246.145 66.3593 246.373 66.0641 246.332 65.9031C246.279 65.7286 246.453 65.5274 246.949 65.1919C247.325 64.9369 247.875 64.588 248.183 64.4136C248.639 64.172 248.961 64.1183 249.86 64.1183C250.464 64.1183 251.698 64.0512 252.61 63.9573C254.166 63.8097 254.327 63.7694 255.99 63.018C256.969 62.5885 257.921 62.2396 258.176 62.2396C258.404 62.2396 259.196 62.0518 259.92 61.8371C260.631 61.6089 261.731 61.2735 262.361 61.0588C262.991 60.8575 263.662 60.5622 263.863 60.4012C264.199 60.1194 264.239 59.9986 264.239 58.4823H265.312V57.6771C265.312 57.1403 265.379 56.8049 265.513 56.6707C265.674 56.5096 265.701 56.2681 265.634 55.5032C265.594 54.9664 265.473 54.2552 265.366 53.9197C265.258 53.5842 265.205 53.2085 265.245 53.0877C265.299 52.8999 265.459 52.8462 265.916 52.8462C266.251 52.8462 266.519 52.8059 266.519 52.7523C266.519 52.6852 266.398 52.457 266.264 52.2423C266.13 52.0276 265.781 51.7458 265.5 51.625C265.205 51.5043 264.708 51.3567 264.373 51.2896C264.038 51.2359 263.622 51.1688 263.434 51.1419C263.246 51.1285 262.321 51.0346 261.355 50.9541C259.92 50.8333 259.598 50.8333 259.531 50.9943C259.477 51.0883 259.477 51.2896 259.504 51.4372C259.544 51.5848 259.41 52.0947 259.196 52.5778C258.968 53.1414 258.565 53.7319 258.082 54.2418C257.626 54.7115 257.049 55.1543 256.634 55.3422C256.097 55.5837 255.856 55.785 255.668 56.1742C255.426 56.6572 255.373 56.6707 254.434 56.8317C253.884 56.9122 253.173 57.1135 252.838 57.2611C252.502 57.3953 252.006 57.5563 251.738 57.5966C251.456 57.6369 251.228 57.7174 251.228 57.7845C251.228 57.8381 251.295 57.9589 251.389 58.0529C251.537 58.187 251.255 58.2139 249.994 58.2139C249.069 58.2139 248.385 58.2676 248.344 58.3481C248.304 58.4286 247.647 58.4823 245.259 58.4688L244.964 59.2472C244.803 59.69 244.455 60.2536 244.146 60.5622C243.864 60.8575 243.301 61.26 242.899 61.4479C242.496 61.6492 241.839 61.9042 241.437 62.0249C241.034 62.1457 240.551 62.2396 240.363 62.2396C240.176 62.2396 239.76 62.1457 239.425 62.0384C239.089 61.931 238.593 61.6358 238.325 61.3942C238.043 61.1661 237.828 60.8977 237.828 60.8306C237.828 60.7635 237.667 60.6159 237.48 60.5354C237.225 60.4012 237.077 60.1463 236.608 58.4823H236.004C235.642 58.4823 235.387 58.4152 235.347 58.3212C235.32 58.2273 235.387 57.8784 235.495 57.5429C235.588 57.2074 235.749 56.8585 235.843 56.7646C235.951 56.6438 236.433 56.5901 237.453 56.6036C238.66 56.6036 238.915 56.5633 239.089 56.3754C239.21 56.2413 239.492 55.8655 239.733 55.53C240.042 55.1006 240.283 54.9128 240.9 54.8591L240.565 54.2955C240.39 53.9734 240.229 53.5574 240.229 52.9804L236.433 53.0475L236.38 53.6513C236.353 53.9868 236.313 54.3894 236.205 54.8591H232.986C230.25 54.8591 229.754 54.8859 229.7 55.0604C229.66 55.1677 229.633 55.5032 229.633 55.7984C229.633 56.1563 229.544 56.4246 229.365 56.6036C229.217 56.7512 228.976 57.2209 228.828 57.6503C228.681 58.0663 228.56 58.5225 228.56 58.6567C228.56 58.7775 228.158 59.2337 227.661 59.6632C227.125 60.1194 226.561 60.4952 226.28 60.5488C226.025 60.6025 225.636 60.6159 225.408 60.5757C225.18 60.5354 224.885 60.361 224.724 60.1999C224.563 60.0255 224.348 59.6095 224.214 59.2606C224.026 58.697 224.026 58.603 224.201 58.5494C224.348 58.4957 224.375 58.3615 224.308 57.9858C224.268 57.704 224.147 57.288 224.04 57.0732C223.932 56.8585 223.758 56.5096 223.651 56.3083C223.543 56.0936 223.369 55.9326 223.262 55.9326C223.154 55.9326 222.886 56.1205 222.658 56.3352C222.43 56.5499 222.256 56.872 222.256 57.0464C222.256 57.2074 222.162 57.5295 222.055 57.7442C221.934 57.9589 221.853 58.2273 221.853 58.3212C221.853 58.4017 221.759 58.4823 221.652 58.4823C221.518 58.4823 221.424 58.6701 221.37 59.0593C221.33 59.3679 221.236 59.8242 221.169 60.0657C221.102 60.2939 220.968 60.4952 220.888 60.4952C220.794 60.4952 220.673 60.7233 220.619 60.9917C220.566 61.2735 220.512 61.6626 220.512 61.8773C220.512 62.1726 220.579 62.2396 220.874 62.2799C221.236 62.3067 221.25 62.3336 221.277 63.2461C221.29 63.7694 221.317 64.8564 221.33 65.6616C221.344 66.4667 221.317 67.2987 221.183 67.8757L218.433 67.9428L218.299 69.6873L216.354 69.7544V71.4989H217.494C218.567 71.4989 218.634 71.5123 218.701 71.8076C218.728 71.9686 218.782 72.3443 218.835 73.1763L220.646 73.2434V74.2499C220.646 75.2295 220.66 75.2563 220.982 75.2563C221.21 75.2563 221.344 75.3502 221.411 75.5649C221.451 75.726 221.491 76.8532 221.491 78.0743C221.491 79.2955 221.451 80.4227 221.411 80.5972C221.344 80.8119 221.21 80.8924 220.512 80.8924L220.445 82.704L219.305 82.7711L219.278 83.7507C219.265 84.274 219.251 84.9316 219.265 85.1865C219.278 85.4683 219.399 85.7636 219.573 85.9246C219.721 86.0722 220.23 86.3137 220.686 86.4748C221.142 86.6358 221.907 86.9042 222.376 87.0786C223.181 87.3873 223.221 87.4141 223.141 87.7764C223.087 88.0448 223.114 88.1388 223.262 88.1388C223.369 88.1388 223.49 88.2595 223.53 88.4071C223.57 88.5547 223.557 88.8097 223.517 88.9842C223.463 89.1452 223.356 89.3197 223.275 89.3733C223.195 89.427 222.833 89.4807 222.457 89.4807C222.095 89.4807 221.545 89.4136 221.25 89.3465C220.861 89.266 220.472 89.2794 219.841 89.427C219.359 89.5478 218.272 89.8698 217.427 90.1516C216.582 90.4334 215.187 90.8763 214.342 91.1312C213.497 91.3862 212.518 91.668 212.169 91.7485C211.807 91.829 211.297 91.8961 211.029 91.8961C210.747 91.8961 210.305 91.829 210.05 91.7619C209.795 91.6814 209.54 91.5472 209.5 91.4533C209.446 91.3728 209.46 91.0776 209.527 90.8226C209.594 90.5676 209.634 90.1651 209.634 89.9504C209.634 89.7356 209.741 89.4538 209.862 89.3465C210.05 89.172 210.144 89.172 210.707 89.3733C211.042 89.5075 211.418 89.6149 211.525 89.6149C211.633 89.6283 211.954 89.3867 212.236 89.0781C212.504 88.7829 212.799 88.3132 212.88 88.0448C212.96 87.763 213.068 87.3202 213.135 87.0652C213.215 86.7432 213.188 86.5553 213.081 86.4613C212.987 86.3808 212.88 85.683 212.826 84.69C212.773 83.7775 212.759 82.9724 212.799 82.9053C212.84 82.8382 212.746 82.7711 212.598 82.7711C212.451 82.7711 212.303 82.6771 212.263 82.5698C212.223 82.4624 212.196 82.1135 212.196 81.8049C212.196 81.4828 212.276 81.1071 212.397 80.9595C212.504 80.7984 212.585 80.3959 212.598 79.9933C212.598 79.537 212.531 79.215 212.397 79.0808C212.263 78.9466 212.196 78.5977 212.196 78.0072C212.196 77.2289 212.169 77.135 211.928 77.135C211.78 77.135 211.633 77.0411 211.592 76.9337C211.552 76.8263 211.525 76.4372 211.525 76.0615C211.525 75.4039 211.512 75.3905 211.123 75.3905C210.881 75.3905 210.694 75.31 210.653 75.1892C210.613 75.0818 210.586 74.6256 210.586 73.3776H210.117C209.822 73.3776 209.621 73.3105 209.58 73.1763C209.54 73.069 209.513 72.6798 209.513 71.6331H208.44V69.7544H209.379V67.7415H212.598V65.997H215.482L215.455 64.1183C215.415 62.2531 215.415 62.2396 215.724 62.2396C216.019 62.2396 216.019 62.2262 215.925 61.1393C215.858 60.522 215.817 59.5826 215.817 59.0593C215.817 58.187 215.791 58.0931 215.589 58.1468C215.455 58.1736 214.597 58.1602 213.671 58.0931C212.746 58.026 211.539 57.8784 210.989 57.7576C210.439 57.6503 209.326 57.2745 208.507 56.9256C207.703 56.5767 206.697 56.0802 206.294 55.8253C205.892 55.5703 205.194 55.0201 204.752 54.6175C204.309 54.2015 203.652 53.5037 203.29 53.0609C202.941 52.6046 202.458 51.88 202.243 51.4372C202.029 50.9943 201.801 50.5649 201.734 50.4978C201.68 50.4307 201.439 49.7598 201.224 49.0217C200.996 48.2837 200.714 47.4114 200.594 47.0759C200.473 46.7404 200.298 46.0829 200.191 45.5998C200.097 45.1167 199.95 43.8821 199.856 42.8489C199.775 41.8156 199.695 39.9771 199.695 38.756C199.681 37.253 199.762 36.1258 199.909 35.267C200.03 34.5692 200.352 33.3078 200.634 32.4624C200.956 31.4425 201.224 30.8655 201.398 30.7581C201.546 30.6642 201.895 30.2616 202.176 29.8456C202.445 29.4296 202.82 29.0405 203.008 28.96C203.196 28.8929 203.665 28.5171 204.054 28.1548C204.43 27.7791 204.993 27.3094 205.288 27.1215C205.583 26.9202 206.133 26.4774 206.495 26.1419C206.871 25.793 207.34 25.4039 207.568 25.2697C207.796 25.1221 208.454 24.5853 209.044 24.062C209.634 23.5386 210.385 22.9079 210.72 22.6395C211.056 22.3711 211.458 22.0893 211.633 22.0088C211.82 21.9015 212.303 21.8746 213.041 21.9283C213.645 21.982 214.409 22.0893 214.744 22.1967C215.294 22.3577 215.402 22.3443 215.952 22.1027C216.287 21.9551 216.636 21.8478 216.73 21.8478C216.81 21.8478 217.722 21.4184 218.742 20.895C220.15 20.157 220.7 19.9422 221.116 19.9422C221.411 19.9557 221.827 20.0228 222.055 20.1033C222.283 20.1838 222.631 20.4119 222.833 20.6132C223.034 20.8145 223.463 21.3647 223.771 21.8478C224.08 22.3309 224.563 22.9884 224.844 23.3239C225.126 23.6594 225.515 24.1961 225.716 24.5316C225.904 24.8671 226.28 25.4307 226.548 25.793C226.803 26.1553 227.286 26.7324 227.621 27.0813C227.956 27.4168 228.345 27.9401 228.479 28.2353C228.614 28.5171 228.801 28.7989 228.882 28.8526C228.962 28.9063 229.177 28.96 229.365 28.9465C229.633 28.9465 229.754 29.0673 230.009 29.6309C230.17 29.9932 230.465 30.4629 230.679 30.6776C230.88 30.8789 231.122 31.3217 231.229 31.6438C231.323 31.9793 231.497 32.4624 231.618 32.7174C231.739 33.0126 231.806 33.5896 231.806 34.2606C231.793 34.851 231.725 35.5488 231.645 35.8038C231.564 36.0587 231.283 36.5418 231.001 36.8639C230.733 37.1994 230.304 37.5349 230.076 37.6422C229.834 37.7361 228.707 38.0045 227.594 38.2326C226.467 38.4474 225.059 38.7157 224.469 38.8231C223.879 38.917 222.014 39.0646 220.311 39.1586C218.607 39.2391 215.2 39.3599 212.732 39.427C210.264 39.4941 208.226 39.5746 208.212 39.588C208.199 39.6148 208.252 40.6884 208.32 41.9766C208.387 43.2649 208.507 44.5934 208.574 44.9288C208.641 45.2643 208.816 45.9487 208.977 46.4721C209.124 46.9954 209.312 47.4382 209.379 47.4785C209.446 47.5188 209.634 47.8811 209.782 48.2837C209.942 48.6862 210.466 49.6122 210.962 50.3502C211.458 51.0749 212.142 51.9203 212.478 52.2289C212.813 52.5241 213.51 52.9804 214.02 53.2353C214.53 53.4769 215.066 53.7453 215.214 53.8124C215.402 53.9063 215.75 53.8795 216.421 53.7184C216.931 53.5977 217.575 53.3695 217.829 53.2219C218.084 53.0609 218.728 52.5107 219.251 51.9874C219.788 51.464 220.472 50.8065 220.794 50.5247C221.116 50.2429 221.451 50.0416 221.518 50.0684C221.599 50.0952 221.666 50.3368 221.692 50.6052C221.706 50.9675 221.666 51.1017 221.518 51.1017C221.357 51.1017 221.317 51.2896 221.317 52.041C221.317 52.5778 221.263 52.9804 221.183 52.9804C221.116 52.9804 221.049 53.1012 221.049 53.2488C221.049 53.5037 221.062 53.5172 221.666 53.3024C222.014 53.1817 222.376 52.9535 222.47 52.8059C222.578 52.6449 222.658 52.4302 222.658 52.3497C222.658 52.2557 222.765 51.9337 222.9 51.6385C223.061 51.2627 223.208 51.1017 223.396 51.1017C223.557 51.1017 224.053 50.7125 224.603 50.1758C225.301 49.478 225.636 49.2364 225.918 49.223C226.186 49.223 226.347 49.1022 226.548 48.7936C226.696 48.552 227.071 47.8274 227.38 47.1833C227.701 46.5392 228.037 46.0158 228.131 46.0024C228.211 46.0024 228.654 46.1903 229.096 46.405C229.539 46.6197 229.941 46.9149 229.995 47.0491C230.035 47.1699 230.009 47.3711 229.915 47.4785C229.834 47.5859 229.713 47.8006 229.646 47.9482C229.579 48.0958 229.378 48.5386 229.177 48.9278C228.989 49.3035 228.868 49.6524 228.936 49.6927C228.989 49.7329 229.19 49.7598 229.405 49.7598C229.606 49.7598 229.995 49.8537 230.277 49.9611C230.545 50.0684 231.162 50.2429 231.645 50.3636C232.181 50.4844 233.187 50.5649 234.261 50.5649C235.374 50.5649 236.272 50.4844 236.742 50.3636C237.144 50.2563 237.842 50.1623 238.284 50.1623C238.727 50.1623 239.304 50.216 239.559 50.2965C239.814 50.3636 240.042 50.4039 240.055 50.3905C240.082 50.3771 240.216 48.646 240.363 46.5392C240.511 44.4323 240.699 42.4194 240.793 42.0437C240.873 41.668 240.994 39.5477 241.034 37.2799C241.101 34.7034 241.222 32.61 241.356 31.6438C241.477 30.7984 241.638 29.7651 241.705 29.3625C241.772 28.96 241.839 28.3561 241.839 28.0206C241.839 27.6851 241.919 27.296 242.04 27.1484C242.147 26.9873 242.241 26.5713 242.241 25.4039L240.471 24.9074C239.492 24.639 238.083 24.2498 237.346 24.0485C236.608 23.8472 235.991 23.6325 235.977 23.5654C235.951 23.5118 235.763 23.4581 235.535 23.4581C235.267 23.4581 235.11 23.382 235.065 23.23C235.025 23.0958 235.038 22.6932 235.092 22.3443C235.186 21.7538 235.173 21.7002 234.891 21.6062C234.717 21.5526 234.556 21.4184 234.529 21.311C234.502 21.2037 234.529 20.8682 234.596 20.573C234.663 20.2777 234.797 19.9959 234.891 19.9422C234.985 19.8886 235.374 19.8886 235.736 19.9154C236.112 19.9557 236.769 20.0764 237.211 20.1838C237.654 20.2911 238.164 20.4656 238.352 20.5595C238.539 20.6669 239.116 20.9755 239.626 21.2439C240.135 21.5257 240.685 21.8612 240.833 21.9954C240.981 22.1296 241.249 22.2906 241.437 22.3577C241.624 22.4248 242.08 22.5322 243.113 22.6664L243.221 22.0893C243.274 21.7673 243.422 20.6669 243.529 19.6336C243.65 18.6003 243.77 16.9498 243.797 15.9836C243.851 14.2659 243.838 14.1988 243.583 14.1988C243.435 14.1988 243.261 14.078 243.18 13.9304C243.113 13.7828 243.046 12.9642 243.046 12.1188C243.046 10.7098 243.073 10.5622 243.314 10.4414C243.462 10.3743 244.066 10.3072 244.656 10.3072C245.648 10.3072 245.742 10.2804 245.97 9.97176C246.091 9.78389 246.426 9.34106 246.695 8.99216C246.976 8.64326 247.365 7.95888 247.566 7.44895C247.768 6.95244 247.969 6.54986 248.009 6.54986C248.049 6.54986 248.183 6.26805 248.304 5.91915C248.438 5.55683 248.639 5.14084 248.747 4.9798C248.867 4.80536 249.015 4.67116 249.082 4.67116ZM217.964 24.3303C217.709 24.4645 217.347 24.6658 217.159 24.8C216.971 24.9208 216.314 25.1892 215.683 25.3905C215.053 25.6052 214.329 25.8735 214.074 26.0077C213.819 26.1419 213.47 26.3969 213.309 26.5713C213.135 26.7324 212.558 27.7522 212.022 28.8258C211.19 30.4495 210.975 30.7716 210.707 30.8118C210.439 30.8387 210.331 30.9863 210.09 31.778L209.782 32.7174C208.655 32.7844 208.641 32.7844 208.548 33.3883C208.494 33.7238 208.413 34.1264 208.373 34.3008C208.333 34.4618 208.212 34.596 208.105 34.596C207.944 34.596 207.904 34.7839 207.904 35.4414C207.89 35.9648 207.957 36.3271 208.065 36.4211C208.185 36.5284 209.46 36.5418 212.732 36.4613C215.2 36.4076 217.615 36.3137 218.098 36.2734C218.581 36.2198 219.305 36.1258 219.707 36.0453C220.11 35.9648 220.66 35.8038 220.914 35.6696C221.169 35.5354 221.451 35.2938 221.531 35.1194C221.625 34.9449 221.719 34.5826 221.773 34.3277C221.813 34.0727 221.88 32.5563 221.92 30.9729C221.961 29.2686 221.934 27.8864 221.853 27.5912C221.764 27.2512 221.764 27.0589 221.853 27.0142C221.934 26.9739 221.947 26.786 221.907 26.5848C221.853 26.3701 221.558 25.6723 221.25 25.0013C220.834 24.1156 220.593 23.7667 220.365 23.6996C220.19 23.646 219.989 23.5923 219.908 23.5923C219.841 23.6057 219.479 23.713 219.104 23.8472C218.742 23.9814 218.218 24.1961 217.964 24.3303ZM255.587 50.9675C255.547 51.0346 255.212 51.1017 254.823 51.1017H254.125C253.629 52.6046 253.455 53.2353 253.414 53.4501C253.374 53.6648 253.374 54.0137 253.428 54.2284L253.508 54.5907C254.729 54.0137 255.292 53.6648 255.547 53.4501C255.789 53.2353 256.191 52.6852 256.432 52.2423C256.674 51.7995 256.862 51.303 256.862 51.1419C256.862 50.9675 256.902 50.6857 256.969 50.4978C257.023 50.31 257.036 50.1623 256.996 50.1623C256.956 50.1758 256.647 50.3234 256.298 50.4978C255.936 50.6857 255.628 50.9004 255.587 50.9675ZM259.075 63.9171C258.766 64.1049 258.337 64.2525 258.069 64.2391C257.814 64.2391 257.452 64.3599 257.264 64.4941C257.076 64.6283 256.365 65.0174 255.695 65.3663L254.447 65.997H251.362C249.256 67.084 248.586 67.4866 248.492 67.5805C248.371 67.7147 248.425 67.755 248.72 67.7415C249.015 67.7415 249.082 67.7952 249.082 68.077C249.082 68.2649 249.028 68.4393 248.948 68.4796C248.881 68.5199 248.666 68.7882 248.478 69.0835C248.197 69.5397 248.17 69.6605 248.318 69.8752C248.452 70.1033 248.425 70.2107 248.076 70.7072C247.848 71.0158 247.553 71.3513 247.405 71.4452C247.258 71.5526 246.936 71.6331 246.708 71.6331C246.306 71.6331 246.252 71.6868 246.051 72.2772C245.93 72.6261 245.782 73.0421 245.715 73.2166C245.648 73.3776 245.554 73.8875 245.501 74.3572C245.461 74.8135 245.353 75.2295 245.273 75.2831C245.192 75.3368 244.75 75.3905 244.294 75.3905H243.449C243.449 76.6385 243.381 76.9337 243.221 77.1081C243.046 77.296 243.019 77.4571 243.113 78.0072C243.167 78.383 243.234 78.8929 243.261 79.1479C243.288 79.4028 243.395 79.8725 243.516 80.1946C243.663 80.624 243.784 80.7582 244.025 80.7582C244.186 80.7582 244.387 80.8119 244.481 80.8655C244.575 80.9192 244.75 81.1742 244.897 81.4291C245.031 81.6841 245.219 82.0464 245.326 82.2343C245.42 82.4222 245.541 82.6637 245.595 82.7711C245.648 82.8784 245.917 83.1065 246.212 83.281C246.614 83.5091 246.882 83.5762 247.405 83.536C247.781 83.5091 248.653 83.3213 249.35 83.12C250.048 82.9187 251.201 82.704 251.899 82.6503C252.623 82.5832 253.374 82.4356 253.643 82.3014C254.085 82.0733 254.166 82.0733 255.185 82.3014C255.775 82.4356 256.741 82.5429 257.331 82.5429C258.122 82.5564 258.525 82.4893 258.874 82.3014C259.128 82.1672 259.585 81.872 259.88 81.6439C260.237 81.3576 260.64 81.1831 261.087 81.1205C261.61 81.0534 261.851 80.9326 262.16 80.5972C262.388 80.3556 262.696 79.953 262.871 79.7249C263.166 79.2821 263.166 79.2821 262.898 79.0808C262.683 78.9197 262.643 78.7856 262.71 78.4501C262.763 78.2085 262.898 77.806 263.018 77.5644C263.139 77.3229 263.38 77.0545 263.555 76.9605C263.729 76.8666 263.984 76.5311 264.118 76.1956C264.279 75.7931 264.36 75.2295 264.36 74.4914L264.373 73.3776C256.003 73.3776 255.373 73.3508 255.319 73.1763C255.279 73.069 255.252 72.6798 255.252 72.3041V71.6331C254.286 71.6331 253.964 71.5526 253.844 71.4318C253.723 71.311 253.643 70.989 253.643 70.6267C253.643 70.2644 253.723 69.9423 253.844 69.8215C253.978 69.6873 254.045 69.3653 254.045 68.8822C254.045 68.4796 254.072 68.0502 254.112 67.9428C254.166 67.7818 254.474 67.7415 255.722 67.7415H257.264C257.264 66.7083 257.291 66.3057 257.331 66.1983C257.385 66.0373 257.64 65.997 258.471 65.997H259.544C259.544 64.7625 259.611 64.4538 259.759 64.3196C259.906 64.172 260.269 64.1183 261.033 64.1183H262.093C262.093 62.763 262.079 62.3738 262.066 62.3738C262.039 62.3738 261.489 62.6422 260.819 62.9777C260.161 63.3132 259.37 63.7426 259.075 63.9171ZM164.579 5.08716C164.687 5.08716 165.357 5.26161 166.055 5.50316C166.752 5.73129 167.637 6.12044 168 6.34857C168.375 6.59011 168.898 6.8585 169.18 6.93901C169.502 7.03295 169.851 7.30133 170.186 7.69049C170.454 8.02597 170.79 8.61642 170.924 9.00558C171.058 9.39473 171.192 10.0925 171.232 10.5756C171.272 11.0587 171.232 11.6089 171.152 11.8102C171.085 12.0249 170.924 12.1859 170.816 12.1859C170.709 12.1859 170.535 12.3201 170.441 12.4812C170.333 12.6556 169.958 12.9911 169.596 13.2326C169.234 13.4742 168.509 13.7962 168 13.9439C167.49 14.1049 166.685 14.3464 166.229 14.4806C165.76 14.6148 165.022 14.7356 164.579 14.7356C164.043 14.7356 163.475 14.6193 162.876 14.3867C162.366 14.1988 161.816 13.917 161.655 13.756C161.481 13.595 161.213 13.2192 161.065 12.924C160.917 12.6288 160.676 12.2933 160.542 12.1859C160.394 12.0652 160.233 11.676 160.153 11.2466C160.072 10.844 160.019 10.1999 160.019 9.83757C160.019 9.46183 160.153 8.84454 160.327 8.42855C160.488 8.02597 160.824 7.38185 161.065 7.01953C161.293 6.64379 161.655 6.22779 161.856 6.06676C162.071 5.91915 162.447 5.67761 162.701 5.54341C162.956 5.40922 163.439 5.26161 163.774 5.20793C164.11 5.15426 164.472 5.10058 164.579 5.08716ZM109.491 6.56328C109.545 6.56328 109.666 6.63037 109.76 6.72431C109.867 6.84955 109.916 7.31028 109.907 8.10649C109.894 8.76403 109.84 11.931 109.787 15.1382C109.719 19.4055 109.652 21.0426 109.532 21.2439C109.424 21.4049 109.035 21.6062 108.539 21.7404C107.868 21.9417 107.667 21.9551 107.506 21.8075C107.386 21.727 107.265 21.4586 107.238 21.2439C107.198 21.0292 107.077 20.2643 106.97 19.5665C106.862 18.8687 106.675 17.8757 106.554 17.3523C106.433 16.829 106.259 16.0238 106.152 15.5407C106.031 15.0576 105.736 14.1183 105.468 13.4608C105.199 12.8032 104.877 12.0652 104.743 11.8505C104.609 11.6357 104.287 11.2868 104.019 11.0721C103.764 10.8709 103.388 10.6427 103.187 10.5622C102.973 10.4951 102.154 10.3341 101.336 10.2267C100.384 10.106 98.6537 10.0389 93.0201 10.0389L93.047 13.2192C93.0738 14.9771 93.114 23.9278 93.1409 33.1199C93.1677 44.4994 93.2347 50.3771 93.3421 51.5714C93.4359 52.5241 93.5567 53.5172 93.6237 53.7453C93.7042 53.9868 93.9456 54.3089 94.1602 54.4565C94.4151 54.6175 95.0589 54.792 95.8771 54.9128C96.588 55.0201 98.0501 55.1811 99.1231 55.2616C100.196 55.3556 101.148 55.4898 101.242 55.5837C101.35 55.6777 101.417 56.04 101.403 56.5633C101.403 57.2209 101.35 57.4624 101.135 57.6771C100.88 57.9321 100.746 57.9455 97.8891 57.865C96.2393 57.8113 92.7519 57.771 90.1363 57.7576C87.5208 57.7442 83.3493 57.7845 80.8812 57.8516C77.984 57.9187 76.3208 57.9052 76.1866 57.8113C76.0659 57.7308 75.9586 57.3685 75.905 56.8451C75.8647 56.3754 75.8513 55.9326 75.8647 55.8655C75.8915 55.7984 76.0123 55.6776 76.1464 55.6105C76.2805 55.5569 77.139 55.4227 78.0645 55.3287C78.99 55.2214 80.3715 55.0738 81.1495 54.9933C81.9275 54.8993 82.7591 54.7383 83.0139 54.6175C83.2688 54.4833 83.5639 54.2418 83.6846 54.0539C83.8187 53.8258 83.9394 53.0341 84.0602 51.5714C84.1675 50.0282 84.2211 43.9224 84.2211 29.7249C84.2345 14.0646 84.1943 10.0389 84.0736 10.0389C83.9797 10.0389 82.4506 10.106 80.68 10.173C78.9095 10.2401 76.9512 10.3878 76.3208 10.5085C75.6904 10.6159 74.8185 10.8843 74.3759 11.0856C73.9332 11.3003 73.3967 11.6626 73.1687 11.8907C72.9541 12.1188 72.6322 12.5751 72.4712 12.8837C72.3102 13.2058 71.9615 13.9439 71.7066 14.5343C71.4518 15.1247 71.0226 16.2117 70.7543 16.9498C70.4995 17.6878 70.1239 18.8687 69.9361 19.5665C69.7483 20.2643 69.4667 21.2305 69.3057 21.7002C69.1447 22.1698 68.957 22.5858 68.8765 22.6127C68.8094 22.6529 68.407 22.5993 68.0046 22.5053C67.6022 22.4114 67.173 22.2369 67.0523 22.1296C66.8645 21.9417 66.8511 21.7941 67.012 20.7742C67.1059 20.1435 67.3206 18.4795 67.4681 17.084C67.6291 15.6749 67.8303 13.8097 67.9376 12.924C68.0449 12.0383 68.1924 10.5219 68.2729 9.56918C68.3668 8.61642 68.4875 7.63681 68.5412 7.42211C68.6082 7.2074 68.7558 6.97927 68.8631 6.91218C68.9838 6.8585 69.574 6.91218 70.191 7.01953C70.7946 7.1403 72.6456 7.28792 74.3088 7.36843C76.2269 7.46237 81.2836 7.4892 88.2585 7.43553C94.2676 7.39527 99.4316 7.36843 99.7267 7.36843C100.022 7.36843 101.739 7.2745 103.549 7.15372C105.36 7.03295 107.412 6.8585 108.11 6.76456C108.807 6.67063 109.424 6.5767 109.491 6.56328ZM168.804 21.4586C168.952 21.4452 169.14 21.5123 169.22 21.6062C169.327 21.727 169.354 22.6663 169.314 24.8C169.274 26.464 169.234 28.9063 169.234 30.2348C169.22 31.5633 169.22 33.858 169.22 35.3341C169.22 36.8102 169.22 41.3727 169.22 45.4656C169.207 52.5912 169.22 52.9401 169.475 53.5708C169.649 54.0002 169.891 54.3223 170.146 54.4699C170.374 54.6041 171.098 54.7786 171.755 54.8591C172.426 54.9396 173.177 55.0469 173.901 55.1946L173.942 56.2278C173.955 57.0196 173.915 57.3282 173.767 57.4758C173.593 57.6503 173.083 57.6637 170.253 57.61C168.415 57.5698 166.658 57.5027 166.323 57.4758C165.988 57.4356 163.976 57.4624 161.83 57.5429C159.697 57.61 157.511 57.7039 156.062 57.8381L156.397 58.1468C156.585 58.3212 157.363 58.6836 158.141 58.9519C158.919 59.2069 159.885 59.529 160.287 59.6363C160.689 59.7437 161.467 60.0389 162.017 60.267C162.809 60.6025 163.117 60.8172 163.466 61.3003C163.721 61.6358 163.909 62.0518 163.909 62.2396C163.909 62.4409 164.043 62.7093 164.257 62.9106C164.445 63.0985 164.687 63.4071 164.794 63.6084C164.901 63.8231 164.955 64.0244 164.915 64.0781C164.888 64.1452 164.995 64.5746 165.156 65.0443C165.33 65.5676 165.545 65.9434 165.693 65.9836C165.84 66.0373 165.974 66.2923 166.068 66.7351C166.135 67.0974 166.283 67.4866 166.363 67.5805C166.457 67.6744 166.631 67.755 166.766 67.7415C166.9 67.7415 167.02 67.8623 167.047 68.0368C167.088 68.2112 167.141 68.5601 167.168 68.8151C167.208 69.07 167.181 69.741 167.128 70.2912C167.074 70.8816 166.873 71.6599 166.658 72.1699C166.457 72.653 166.162 73.1897 166.001 73.3508C165.854 73.5252 165.491 73.7936 165.223 73.9278C164.941 74.062 164.07 74.3706 163.278 74.5988C162.473 74.8269 161.534 75.0818 161.159 75.1892C160.797 75.2831 160.247 75.4039 159.952 75.4576C159.657 75.5113 159.066 75.726 158.651 75.9407C158.221 76.1554 157.792 76.3298 157.712 76.3298C157.618 76.3298 157.028 76.5714 156.397 76.8532C155.767 77.135 154.801 77.4973 154.251 77.6449C153.701 77.7925 152.668 78.0341 151.971 78.1951C150.804 78.4635 150.549 78.4769 149.02 78.3561C148.094 78.289 146.941 78.1146 146.445 77.9804C145.948 77.8462 145.492 77.7925 145.439 77.8462C145.385 77.9133 145.345 78.6916 145.358 79.5907C145.372 80.6508 145.452 81.4426 145.586 81.8317C145.72 82.2343 145.747 82.5161 145.653 82.6637C145.573 82.8382 145.613 83.1334 145.801 83.6433C146.015 84.2472 146.042 84.4216 145.908 84.5827C145.761 84.7571 145.814 84.9181 146.176 85.4952C146.539 86.0588 146.606 86.2332 146.485 86.4211C146.364 86.6224 146.431 86.77 146.834 87.2262C147.102 87.5483 147.37 87.9509 147.437 88.1388C147.504 88.3266 147.799 88.6218 148.121 88.7963C148.43 88.9707 149.087 89.266 149.597 89.4404C150.093 89.6015 150.965 89.8162 151.542 89.9101C152.346 90.0309 153.017 90.0309 154.56 89.9101C155.646 89.8162 156.639 89.6954 156.773 89.6283C156.894 89.5612 157.309 89.4002 157.671 89.266C158.047 89.1318 158.61 88.8366 158.946 88.595C159.281 88.3669 159.67 88.1388 159.818 88.0985C159.965 88.0583 160.354 87.6959 160.689 87.3068C161.025 86.9042 161.548 86.0722 161.856 85.4549C162.165 84.8242 162.514 83.8983 162.648 83.3749C162.782 82.8516 162.97 82.3014 163.064 82.1269C163.157 81.9659 163.345 81.8317 163.479 81.8317C163.6 81.8317 163.909 81.9525 164.15 82.1001C164.378 82.2477 164.673 82.5027 164.78 82.6637C164.928 82.9053 164.941 83.0797 164.834 83.442C164.767 83.697 164.646 84.1801 164.593 84.5156C164.526 84.851 164.378 85.4146 164.244 85.7904C164.11 86.1527 163.922 86.7029 163.828 86.9981C163.734 87.2933 163.144 88.1388 162.54 88.8634C161.736 89.8296 161.32 90.2322 161.025 90.2992C160.797 90.3529 160.327 90.675 159.952 90.9971C159.59 91.3325 158.919 91.8022 158.476 92.0572C158.034 92.3121 157.014 92.7952 156.196 93.1307C155.391 93.4662 154.184 93.8822 153.513 94.0432C152.414 94.3116 152.092 94.3384 149.892 94.2713C148.564 94.2311 146.874 94.0969 146.136 93.9761C145.398 93.8553 144.071 93.5467 143.185 93.2783C142.3 93.0099 141.428 92.7281 141.24 92.6342C141.053 92.5403 140.811 92.3524 140.704 92.2316C140.597 92.0974 140.208 91.7619 139.832 91.4936C139.47 91.2252 139.041 90.7689 138.893 90.4737C138.746 90.1919 138.41 89.682 138.155 89.3465C137.901 89.011 137.458 88.3132 137.19 87.7764C136.908 87.2397 136.693 86.6626 136.693 86.4882C136.707 86.3272 136.613 85.9514 136.479 85.6562C136.345 85.361 136.251 84.9047 136.251 84.6498C136.264 84.3948 136.117 83.6031 135.915 82.9053C135.593 81.7109 135.567 81.456 135.593 79.0137C135.607 77.3765 135.714 75.5918 135.875 74.2499C136.023 73.069 136.264 71.6868 136.398 71.1634C136.546 70.6401 136.747 69.9154 136.854 69.5531C136.962 69.1774 137.176 68.3991 137.337 67.8086C137.512 67.2182 137.726 66.5875 137.833 66.3996C137.927 66.2117 137.981 66.0239 137.954 65.9568C137.914 65.9031 138.061 65.5408 138.263 65.1516C138.518 64.7088 138.625 64.333 138.585 64.1183C138.531 63.8768 138.652 63.5816 138.987 63.1119C139.242 62.7362 139.483 62.2933 139.523 62.1055C139.577 61.9176 140.047 61.3003 140.597 60.7099C141.173 60.0926 142.045 59.3411 142.716 58.9117C143.373 58.4823 144.433 57.9455 145.197 57.6637C145.935 57.3953 146.901 57.0732 147.343 56.9659C147.786 56.8585 148.752 56.6841 149.489 56.6036C150.495 56.4828 151.166 56.4694 152.172 56.5767C152.91 56.6572 153.876 56.8451 154.318 56.9793C154.761 57.1269 155.23 57.2745 155.364 57.3282C155.566 57.3953 155.592 57.3148 155.592 56.5365C155.592 55.8387 155.646 55.6105 155.861 55.3958C156.048 55.208 156.303 55.1275 156.773 55.1275C157.122 55.1275 157.792 55.0604 158.275 54.9799C158.758 54.8993 159.402 54.7249 159.724 54.5773C160.059 54.4297 160.368 54.1613 160.488 53.9197C160.636 53.6245 160.716 52.8194 160.77 50.793C160.81 49.3035 160.904 47.8945 160.971 47.6798C161.038 47.4517 161.119 42.6476 161.145 36.9444C161.186 28.3024 161.172 26.5445 161.011 26.1688C160.864 25.8199 160.73 25.7259 160.327 25.6588C160.046 25.6052 159.362 25.6186 158.812 25.6723C158.262 25.7259 157.671 25.8199 157.511 25.887C157.283 25.9809 157.148 25.9541 156.987 25.7662C156.813 25.5783 156.786 25.3905 156.867 24.7329C156.92 24.2901 157.001 23.8338 157.068 23.7265C157.122 23.6191 157.336 23.4581 157.551 23.3641C157.765 23.2836 158.396 23.1226 158.946 23.0018C159.496 22.8945 160.649 22.7066 161.494 22.5993C162.339 22.4785 163.493 22.3309 164.043 22.2504C164.593 22.1833 165.827 21.982 166.792 21.8075C167.758 21.6331 168.657 21.472 168.804 21.4586ZM148.121 59.6632C147.799 59.8242 147.129 60.361 146.619 60.8575C145.881 61.5821 145.586 61.9981 145.17 62.8838C144.741 63.8365 144.688 64.0244 144.862 64.1183C145.023 64.2123 145.036 64.3599 144.942 64.8832C144.889 65.2321 144.808 66.413 144.781 67.5C144.755 68.6004 144.701 69.5531 144.661 69.6202C144.62 69.6873 144.674 69.7813 144.768 69.8081C144.889 69.8484 144.902 70.0631 144.835 70.6401C144.795 71.0829 144.741 71.8344 144.741 72.3309C144.728 72.8543 144.781 73.2434 144.862 73.2434C144.929 73.2434 145.023 73.3508 145.063 73.4715C145.117 73.6728 145.358 73.7265 146.565 73.807C147.37 73.8607 148.644 73.8473 149.422 73.7668C150.2 73.6997 151.528 73.5118 152.373 73.3642C153.218 73.2032 154.412 72.9616 155.029 72.8274C155.633 72.6932 156.464 72.4248 156.867 72.237C157.269 72.0491 157.604 71.8344 157.604 71.7673C157.604 71.7002 157.511 71.6331 157.403 71.6331C157.296 71.6331 157.175 71.5526 157.135 71.4587C157.095 71.3781 157.175 71.0292 157.323 70.6938C157.457 70.3583 157.551 70.0094 157.524 69.9155C157.497 69.8349 157.309 69.741 157.108 69.7142C156.773 69.6873 156.733 69.6336 156.719 69.2177C156.719 68.9627 156.706 68.5467 156.692 68.3051C156.679 68.0233 156.598 67.8757 156.464 67.8757C156.357 67.8757 156.236 67.7952 156.209 67.7013C156.183 67.6208 156.129 67.1913 156.075 66.7619C156.022 66.2117 155.941 65.997 155.794 65.997C155.686 65.997 155.539 65.8092 155.472 65.5542C155.405 65.3261 155.19 64.5209 154.989 63.7829C154.788 63.0448 154.56 62.3738 154.466 62.3067C154.385 62.2262 154.238 62.0518 154.157 61.9042C154.063 61.7566 153.862 61.4077 153.715 61.1259C153.567 60.8575 153.218 60.3744 152.95 60.0792C152.668 59.7705 152.279 59.435 152.078 59.3411C151.864 59.2337 151.327 59.1264 150.871 59.0861C150.402 59.0593 149.731 59.113 149.355 59.2069C148.993 59.3008 148.43 59.5155 148.121 59.6632ZM133.125 22.143C133.193 22.1296 134.105 22.1833 135.137 22.2504C136.17 22.3174 137.619 22.4919 138.357 22.6529C139.094 22.814 140.208 23.1092 140.838 23.3239C141.468 23.5252 142.246 23.8204 142.582 23.9949C142.917 24.1559 143.722 24.6792 144.392 25.1355C145.063 25.5917 145.841 26.209 146.15 26.4908C146.445 26.7861 147.075 27.4973 147.558 28.0877C148.027 28.6782 148.537 29.3491 148.698 29.5638C148.859 29.792 149.194 30.3824 149.449 30.9058C149.704 31.4291 150.133 32.4758 150.402 33.2541C150.656 34.0324 150.965 35.267 151.086 36.0051C151.206 36.7968 151.3 38.1656 151.3 39.333C151.3 40.42 151.247 41.5606 151.18 41.8827C151.099 42.1913 150.978 42.8354 150.911 43.3185C150.831 43.8016 150.67 44.647 150.563 45.1972C150.455 45.7474 150.16 46.7807 149.932 47.4785C149.704 48.1763 149.235 49.2364 148.899 49.8269C148.564 50.4173 148.108 51.1554 147.88 51.4774C147.652 51.7995 147.048 52.551 146.512 53.1548C145.989 53.7587 145.264 54.4833 144.902 54.7517C144.553 55.0201 143.99 55.4495 143.655 55.7045C143.319 55.946 142.756 56.3083 142.381 56.5096C142.018 56.6975 141.375 57.0062 140.972 57.194C140.57 57.3819 139.537 57.704 138.692 57.9321C137.847 58.1468 136.465 58.4286 135.647 58.5359C134.816 58.6567 133.568 58.7506 132.897 58.7506C132.2 58.7506 130.738 58.603 129.571 58.4017C128.431 58.2139 126.969 57.8784 126.325 57.6637C125.668 57.449 124.702 57.0598 124.179 56.7914C123.642 56.5231 122.757 55.9863 122.207 55.6105C121.657 55.2348 120.718 54.4028 120.128 53.7721C119.524 53.1414 118.706 52.0545 118.277 51.3567C117.848 50.6589 117.298 49.5585 117.043 48.8875C116.788 48.2166 116.466 47.1967 116.305 46.6062C116.158 46.0158 115.957 44.9959 115.863 44.325C115.782 43.654 115.702 42.0303 115.702 40.7018C115.702 39.3599 115.769 37.8167 115.876 37.2128C115.97 36.6223 116.158 35.6562 116.305 35.0657C116.453 34.4753 116.815 33.4554 117.11 32.7844C117.405 32.1269 117.902 31.1607 118.21 30.6374C118.505 30.114 119.122 29.2418 119.578 28.6782C120.021 28.128 120.866 27.2155 121.456 26.6653C122.046 26.1151 122.958 25.3905 123.468 25.055C123.991 24.7195 124.648 24.3035 124.943 24.1425C125.239 23.968 125.842 23.6996 126.285 23.5252C126.727 23.3507 127.478 23.0958 127.961 22.9482C128.444 22.8005 129.222 22.5993 129.705 22.5187C130.188 22.4248 131.113 22.304 131.784 22.2504C132.455 22.1967 133.058 22.143 133.125 22.143ZM129.772 25.5112C129.544 25.6186 129.075 25.9406 128.699 26.2359C128.337 26.5311 127.787 27.1215 127.492 27.5644C127.197 27.9938 126.888 28.4098 126.821 28.4903C126.741 28.5574 126.513 29.0807 126.298 29.6309C126.084 30.1811 125.829 30.8252 125.721 31.0399C125.627 31.2547 125.413 32.0464 125.265 32.7844C125.131 33.5225 124.943 34.9449 124.85 35.938C124.742 37.2933 124.742 38.5681 124.863 40.9702C124.943 42.7415 125.104 44.7812 125.212 45.5059C125.319 46.2171 125.467 47.0357 125.534 47.3175C125.614 47.5858 125.829 48.4178 126.016 49.1559C126.204 49.894 126.62 50.9943 126.929 51.6116C127.237 52.2289 127.733 53.0206 128.028 53.383C128.324 53.7453 128.994 54.3357 129.504 54.6846C130.027 55.0469 130.885 55.4764 131.449 55.6642C132.254 55.9192 132.736 55.9863 133.863 55.9997C134.95 55.9997 135.486 55.9326 136.21 55.7045C136.72 55.5435 137.538 55.1543 138.008 54.8322C138.558 54.4565 139.081 53.96 139.443 53.4501C139.752 53.0072 140.234 52.1081 140.503 51.4372C140.784 50.7662 141.146 49.5987 141.321 48.8204C141.509 48.0421 141.71 47.1162 141.79 46.7404C141.857 46.3781 141.978 45.6132 142.045 45.063C142.126 44.5129 142.179 42.5536 142.193 40.7018C142.193 38.8634 142.126 36.8102 142.045 36.1393C141.965 35.4683 141.817 34.6363 141.723 34.2606C141.616 33.8982 141.388 33.0528 141.227 32.3819C141.066 31.7243 140.851 31.0802 140.758 30.9729C140.664 30.8655 140.422 30.3556 140.208 29.8322C140.006 29.3089 139.497 28.4635 139.094 27.9267C138.692 27.4033 137.994 26.6921 137.552 26.3432C137.109 25.9943 136.586 25.632 136.385 25.5246C136.17 25.4173 135.54 25.216 134.976 25.0684C134.386 24.9208 133.514 24.8134 132.991 24.8134C132.482 24.8134 131.623 24.9342 131.113 25.0684C130.604 25.1892 130 25.3905 129.772 25.5112ZM282.548 24.0083C282.99 24.0083 283.715 24.0485 284.157 24.1156C284.6 24.1827 285.365 24.4243 285.847 24.6524C286.397 24.9074 286.947 25.0684 287.296 25.0684C287.605 25.0684 288.007 25.1757 288.222 25.3099C288.423 25.4575 288.758 25.8467 288.986 26.1822C289.362 26.7726 289.429 26.8129 289.965 26.8129C290.488 26.8129 290.529 26.8397 290.596 27.2155C290.636 27.4302 290.716 27.618 290.797 27.618C290.877 27.618 290.971 27.8596 291.132 28.6916H291.776C292.246 28.6916 292.433 28.7453 292.5 28.9331C292.567 29.0539 292.608 29.4833 292.608 30.5703H293.788C294.781 30.5703 294.968 30.6105 295.035 30.8118C295.089 30.946 295.009 31.1741 294.848 31.3754C294.714 31.5633 294.418 31.8317 294.217 31.9793C294.003 32.1403 293.573 32.2611 293.171 32.3014C292.514 32.3416 292.447 32.3148 292.044 31.8585C291.789 31.5901 291.602 31.2278 291.602 31.0399C291.602 30.7313 291.561 30.7045 290.931 30.7045C290.448 30.7045 290.247 30.6508 290.193 30.5032C290.153 30.3958 290.126 29.9664 290.126 28.8258H289.697C289.456 28.8258 289.174 28.7587 289.08 28.6647C288.986 28.5708 288.919 28.3427 288.919 28.1548C288.919 27.9669 288.879 27.618 288.718 26.9471L287.645 26.9337C286.639 26.9337 286.545 26.9068 286.143 26.5445C285.901 26.3164 285.499 26.048 285.271 25.9272C284.895 25.7394 284.721 25.7259 284.09 25.8601C283.634 25.9541 283.178 26.1553 282.414 26.7995L284.198 26.8129C285.485 26.8129 285.982 26.8531 286.022 26.9873C286.049 27.0679 285.995 27.4973 285.7 28.6916H286.773C287.511 28.6916 287.859 28.7453 287.9 28.866C287.913 28.9465 287.913 29.4028 287.846 30.7045H286.773V31.4425C286.773 31.8451 286.746 32.2745 286.706 32.3819C286.666 32.4892 286.545 32.5832 286.438 32.5832C286.277 32.5832 286.236 32.7576 286.236 34.1935H286.706C287.001 34.1935 287.202 34.2606 287.242 34.3948C287.283 34.5021 287.309 34.9047 287.309 35.267C287.309 35.6427 287.283 36.0319 287.242 36.1393C287.202 36.2734 286.988 36.3405 285.968 36.3405V39.9637H287.175V41.7082H288.114V42.6476C288.114 43.1709 288.155 43.6138 288.222 43.6406C288.275 43.6809 288.772 43.7748 289.321 43.8553C289.871 43.9492 290.462 44.0432 290.636 44.07C290.824 44.1103 290.958 44.2445 291.012 44.4994C291.065 44.7007 290.998 45.3448 290.864 45.9353C290.73 46.5257 290.555 47.0491 290.475 47.1028C290.395 47.1564 289.845 47.1699 289.254 47.1296C288.664 47.0893 287.806 47.0893 286.505 47.2101V48.2166C286.505 49.1291 286.531 49.223 286.773 49.223C286.921 49.223 287.068 49.3303 287.108 49.4645C287.149 49.5853 287.148 50.0013 287.095 50.3636C287.041 50.7394 286.961 51.0614 286.907 51.1017C286.853 51.1419 286.76 51.5579 286.572 52.9133L284.157 52.9938L284.064 54.7249C283.983 55.9863 283.903 56.5231 283.755 56.6707C283.621 56.8049 283.554 57.1403 283.554 57.6771C283.554 58.3078 283.514 58.4823 283.353 58.4823C283.192 58.4823 283.151 58.6701 283.151 59.4216C283.151 60.267 283.178 60.361 283.42 60.361C283.581 60.361 283.715 60.4817 283.768 60.6696C283.809 60.8306 283.822 61.2332 283.795 61.5687C283.755 62.1726 283.755 62.1726 283.218 62.2262C282.923 62.2531 282.601 62.3738 282.494 62.4946C282.347 62.6556 282.32 62.8704 282.4 63.3132C282.441 63.6487 282.561 63.9573 282.655 64.011C282.749 64.0647 283.768 64.1183 284.935 64.1183C286.907 64.1183 287.055 64.1318 287.175 64.3867C287.256 64.5343 287.309 64.9638 287.309 65.997H293.077V65.3261C293.077 64.9638 293.131 64.5343 293.211 64.3867C293.345 64.1318 293.48 64.1183 296.363 64.1183C298.027 64.1183 299.475 64.0915 299.583 64.0512C299.73 63.9976 299.784 63.7694 299.824 62.4409L299.945 63.3803C300.012 63.9036 300.079 64.6819 300.092 65.1248C300.119 65.9165 300.106 65.9299 299.757 65.9702C299.395 65.997 299.381 66.0105 299.381 66.8693C299.381 67.5537 299.328 67.7684 299.153 67.8489C298.966 67.9294 298.952 68.1307 299.033 69.6202C299.126 71.0561 299.113 71.3245 298.925 71.5392C298.791 71.6734 298.711 72.0088 298.711 72.3712C298.711 72.7066 298.684 73.069 298.644 73.1763C298.603 73.3105 298.402 73.3776 297.638 73.3776V74.1828C297.638 74.6256 297.611 75.0818 297.571 75.1892C297.517 75.3368 297.316 75.3905 296.162 75.3905V76.0615C296.162 76.4372 296.135 76.8263 296.095 76.9337C296.041 77.0947 295.773 77.135 293.547 77.135L293.654 77.9401C293.708 78.383 293.721 78.8392 293.681 78.9466C293.641 79.0674 293.453 79.1479 292.809 79.1479L292.876 80.6911L293.386 80.7313C293.775 80.7448 293.895 80.8253 293.962 81.0668C294.003 81.2279 294.003 81.6439 293.882 82.6369H294.459C294.767 82.6369 295.089 82.5832 295.156 82.5295C295.237 82.4758 295.465 82.2343 295.666 82.0062C295.948 81.6707 296.001 81.5097 295.894 81.3352C295.8 81.1473 295.84 81.0266 296.041 80.8253C296.256 80.6106 296.363 80.5837 296.538 80.7045C296.712 80.8119 296.779 81.0802 296.833 82.6369H298.308V83.2407C298.308 83.7104 298.241 83.8983 298 84.0862C297.839 84.2069 297.517 84.3948 297.302 84.4887C297.074 84.5827 296.725 84.9047 296.497 85.1999C296.269 85.4952 295.934 85.8977 295.746 86.099C295.559 86.3003 295.076 86.7566 294.673 87.1189C294.271 87.4812 293.681 87.9106 293.345 88.0717C293.01 88.2461 292.38 88.6218 291.937 88.9171C291.494 89.2123 290.596 89.9235 289.938 90.5005C289.281 91.091 288.503 91.762 288.195 92.0169C287.886 92.2585 287.041 92.755 286.303 93.1173C285.566 93.4796 284.882 93.7748 284.801 93.7748C284.707 93.7748 284.587 93.6406 284.546 93.4796C284.506 93.3052 284.52 92.9831 284.587 92.7684C284.667 92.5134 284.935 92.2182 285.311 91.9632C285.646 91.7485 286.263 91.2654 287.457 90.2187L287.377 89.5478C287.323 89.1855 287.323 88.7426 287.363 88.5816C287.403 88.4071 287.752 88.0717 288.155 87.8301C288.53 87.5751 289.067 87.1189 289.791 86.2064L289.858 82.7711H289.523C289.281 82.7711 289.16 82.6771 289.12 82.4758C289.08 82.3014 289.04 81.872 289.04 81.4962C289.04 81.1339 289.04 79.6041 289.053 75.3905H288.248C287.658 75.3905 287.43 75.3368 287.377 75.1892C287.336 75.0818 287.309 74.6256 287.309 73.3776H284.292C281.73 73.3776 281.26 73.3508 281.207 73.1763C281.166 73.069 281.139 72.7066 281.139 72.3712C281.139 71.9552 281.072 71.7405 280.938 71.7002C280.831 71.6599 280.16 71.6331 279.463 71.6331C278.323 71.6331 278.175 71.6063 278.054 71.3647C277.974 71.2171 277.92 70.8011 277.92 69.7544L276.646 69.6873L276.606 69.0164C276.579 68.654 276.592 68.2112 276.633 68.0502C276.673 67.8757 276.807 67.7415 276.914 67.7415C277.075 67.7415 277.115 67.5537 277.115 66.8693C277.115 66.3728 277.169 65.997 277.25 65.997C277.33 65.997 277.384 65.5945 277.384 65.0577C277.384 64.1452 277.397 64.1183 278.054 64.1183V62.4409C278.054 61.515 278.081 60.6696 278.121 60.5622C278.162 60.4549 278.309 60.361 278.457 60.361C278.698 60.361 278.725 60.267 278.725 58.4823H280.335V56.6036H281.139V55.7313C281.139 54.953 281.113 54.8591 280.871 54.8591C280.63 54.8591 280.603 54.7651 280.603 53.9197C280.603 53.1682 280.563 52.9804 280.402 52.9804C280.294 52.9804 280.16 52.8462 280.12 52.6852C280.08 52.5107 280.066 52.1081 280.093 51.7727C280.133 51.1822 280.147 51.1688 281.139 51.1017V49.223H282.481V47.7469H281.542C280.791 47.7469 280.603 47.7066 280.603 47.5456C280.603 47.4382 280.697 47.3443 280.804 47.3443C280.911 47.3443 281.032 47.2504 281.072 47.143C281.113 47.0357 281.139 46.6063 281.139 46.2037C281.139 45.6266 281.207 45.3985 281.448 45.1301C281.609 44.9423 281.984 44.7141 282.28 44.6202C282.709 44.4726 282.829 44.3518 282.883 44.0432C282.95 43.6674 282.99 43.654 284.493 43.5869V42.7147C284.493 41.8693 284.479 41.8424 284.157 41.8424C283.97 41.8424 283.795 41.7485 283.755 41.6411C283.715 41.5338 283.688 41.1446 283.688 40.7689C283.688 40.4066 283.634 40.0979 283.554 40.0979C283.473 40.0979 283.42 39.6685 283.42 39.0915C283.42 38.5413 283.473 38.0582 283.554 38.0179C283.634 37.9777 283.688 37.5617 283.688 37.0786C283.688 36.5821 283.742 36.2063 283.822 36.2063C283.903 36.2063 283.956 35.8038 283.956 35.267C283.956 34.3545 283.943 34.3277 283.621 34.3277C283.299 34.3277 283.286 34.3008 283.299 33.3615C283.299 32.8247 283.312 32.1135 283.299 31.778C283.299 31.4425 283.326 31.0668 283.353 30.946C283.406 30.7313 283.312 30.7045 282.615 30.7045C282.092 30.7045 281.797 30.6508 281.756 30.5434C281.73 30.4495 281.877 30.0469 282.092 29.6712C282.306 29.282 282.441 28.9331 282.387 28.8929C282.32 28.8526 281.663 28.8258 280.911 28.8258C279.57 28.8258 279.53 28.8124 279.53 28.5306C279.53 28.3561 279.677 27.9804 279.865 27.6851C280.04 27.3899 280.201 27.1081 280.201 27.0544C280.201 26.9873 280.053 26.9471 279.865 26.9471C279.637 26.9471 279.53 26.88 279.53 26.719C279.53 26.5848 279.744 26.209 280.013 25.8735C280.388 25.4039 280.442 25.2563 280.281 25.2428C280.16 25.216 280.066 25.0818 280.066 24.9342C280.066 24.7866 280.201 24.5987 280.375 24.5048C280.536 24.4243 280.911 24.2767 281.207 24.1827C281.502 24.1022 282.105 24.0217 282.548 24.0083ZM301.165 31.107C301.219 31.107 301.353 31.201 301.46 31.3083C301.568 31.4157 301.662 31.7243 301.662 31.9793C301.662 32.2343 301.729 32.4624 301.809 32.4892C301.916 32.5026 301.943 32.7979 301.876 33.4286C301.796 34.274 301.782 34.3277 301.46 34.3277C301.138 34.3277 301.125 34.3679 301.125 35.1328C301.125 35.5756 301.098 36.0319 301.058 36.1393C301.004 36.2869 300.776 36.3405 299.381 36.3405L299.314 40.0308L298.442 40.0979L298.509 40.742C298.55 41.0909 298.55 41.4801 298.509 41.6143C298.456 41.7887 298.295 41.8424 297.235 41.8424V42.7147C297.235 43.5198 297.262 43.5869 297.544 43.6272C297.812 43.654 297.839 43.7345 297.906 45.4656H298.845C299.743 45.4656 299.784 45.479 299.851 45.8011C299.904 46.0963 299.998 46.15 300.696 46.2037C301.112 46.2439 301.823 46.2842 302.265 46.2976C302.708 46.311 303.432 46.2439 303.875 46.15C304.317 46.0561 304.733 45.9219 304.814 45.8682C304.894 45.8145 305.283 45.6937 305.685 45.6132C306.088 45.5193 306.785 45.2509 307.228 44.9959C307.671 44.741 308.368 44.3787 308.771 44.1774C309.173 43.9895 309.991 43.6003 310.581 43.3185C311.171 43.0367 311.802 42.7683 311.99 42.7147C312.177 42.6476 312.929 42.4731 315.008 42.0169L315.893 42.2987C316.429 42.4731 317.006 42.7818 317.368 43.0904C317.932 43.5735 317.999 43.5869 318.938 43.5869C319.488 43.5869 319.903 43.6406 319.903 43.7211C319.903 43.7882 320.011 43.8553 320.145 43.8553C320.333 43.8553 320.359 43.9627 320.333 44.5665C320.292 45.0496 320.333 45.2912 320.467 45.3583C320.561 45.4119 321.044 45.4656 321.553 45.4656C322.237 45.4656 322.465 45.5193 322.519 45.6669C322.559 45.7743 322.586 46.2037 322.586 46.6062C322.586 47.0088 322.613 47.3443 322.653 47.3443C322.693 47.3443 322.908 47.2101 323.123 47.0491C323.351 46.8746 323.686 46.5123 323.86 46.2439C324.048 45.9621 324.37 45.6266 324.598 45.5059C324.813 45.3717 325.081 45.1167 325.188 44.9288C325.296 44.741 325.644 44.325 325.966 43.9895C326.369 43.5601 326.758 43.3051 327.254 43.1441C327.629 43.0233 328.045 42.916 328.152 42.916C328.26 42.916 328.381 43.0099 328.421 43.1172C328.461 43.2246 328.461 43.3856 328.421 43.4527C328.381 43.5198 328.233 43.5869 328.085 43.5869C327.844 43.5869 327.817 43.6809 327.817 44.5263C327.817 45.3717 327.844 45.4656 328.085 45.4656C328.233 45.4656 328.38 45.5461 328.407 45.6401C328.434 45.7206 328.421 45.8682 328.38 45.9487C328.327 46.0426 327.898 46.3781 327.415 46.7002C326.932 47.0222 326.087 47.6127 325.537 47.9884C324.987 48.3776 324.397 48.7936 324.222 48.9278C323.927 49.1425 323.914 49.1827 324.061 50.0281C324.142 50.5112 324.37 51.3567 324.544 51.9068C324.799 52.6449 324.893 53.1817 324.88 53.8929C324.866 54.7786 324.893 54.8591 325.135 54.8591C325.309 54.8591 325.43 54.9664 325.47 55.1677C325.51 55.3287 325.55 55.7313 325.604 56.6707L325.913 56.1071C326.073 55.7716 326.194 55.3422 326.181 55.1006C326.141 54.7115 326.208 54.6309 326.744 54.3357C327.173 54.1076 327.522 54.0137 327.951 54.0405C328.287 54.0539 328.944 53.9466 329.427 53.7855C330.071 53.5977 330.674 53.5172 331.747 53.5172C332.539 53.5172 333.209 53.4769 333.236 53.4232C333.263 53.3561 333.786 53.2353 334.403 53.128C335.02 53.0341 335.664 52.9938 335.838 53.0341C335.999 53.0743 336.174 53.2488 336.214 53.4232C336.254 53.5842 336.241 53.7453 336.2 53.7855C336.147 53.8258 335.624 53.9331 335.02 54.0271C334.416 54.121 333.075 54.282 332.042 54.376C331.009 54.4833 329.99 54.6309 329.762 54.7249C329.534 54.8054 329.065 55.1543 328.689 55.5032C328.327 55.8521 327.951 56.2144 327.871 56.3352C327.777 56.4694 327.764 57.1269 327.844 58.4152C327.911 59.4485 327.978 60.7233 327.992 61.2332C328.018 62.0115 328.072 62.2397 328.327 62.508C328.488 62.6959 328.689 63.0582 328.756 63.3132C328.837 63.5682 328.89 63.8231 328.89 63.8902C328.89 63.9439 329.065 64.2123 329.266 64.4941C329.467 64.7625 329.762 65.259 329.896 65.581C330.044 65.9031 330.258 66.2386 330.366 66.3325C330.473 66.4264 330.956 66.5875 331.439 66.7083C331.922 66.8156 332.579 66.9498 332.914 67.0035C333.451 67.084 333.625 67.0303 334.497 66.5472C335.02 66.2386 335.516 65.997 335.597 65.997C335.677 65.997 335.731 65.9299 335.731 65.8628C335.731 65.7957 335.825 65.7286 335.932 65.7286C336.039 65.7286 336.133 65.7957 336.133 65.8628C336.133 65.9299 336.308 65.997 336.536 65.997C336.764 65.997 336.965 66.0373 336.992 66.1044C337.019 66.1581 336.978 66.2923 336.898 66.413C336.804 66.5338 336.254 66.9364 335.664 67.3121C335.06 67.7013 334.296 68.077 333.92 68.1575C333.424 68.2783 332.874 68.2783 331.774 68.1575C330.352 68.0099 330.285 67.9965 329.963 67.5805C329.776 67.339 329.427 66.9364 329.185 66.668C328.93 66.413 328.635 66.0105 328.528 65.7957C328.407 65.581 328.045 65.0711 327.723 64.6954C327.401 64.3062 327.147 63.9171 327.147 63.85C327.147 63.7829 326.972 63.9036 326.744 64.1183C326.449 64.4136 326.315 64.7088 326.141 65.9299H323.592L323.552 65.1248C323.525 64.6551 323.418 64.2525 323.31 64.1586C323.176 64.0378 323.136 63.7292 323.19 62.3067L326.476 62.2396V61.5687C326.476 61.2064 326.503 60.8038 326.543 60.6964C326.597 60.5488 326.516 60.4952 326.275 60.4952C326.087 60.4952 325.913 60.4281 325.872 60.361C325.832 60.2939 325.537 60.2268 324.598 60.2268V59.5558C324.598 59.1398 324.518 58.8043 324.397 58.6836C324.263 58.5494 323.941 58.4823 323.498 58.4823C323.082 58.4957 322.72 58.4152 322.626 58.3212C322.532 58.2273 322.412 57.8516 322.358 57.5027C322.278 57.0196 322.184 56.8451 321.982 56.7914C321.835 56.7512 320.681 56.7512 317.154 56.8049L317.113 57.3416C317.1 57.6369 317.046 58.0126 317.02 58.187C316.953 58.4688 316.899 58.4823 313.733 58.4823V59.2874C313.733 59.7303 313.707 60.1865 313.666 60.2939C313.613 60.4415 313.411 60.4952 312.258 60.4952V61.3003C312.258 61.8907 312.204 62.1189 312.057 62.1726C311.896 62.2262 311.856 62.4678 311.856 64.2525H310.514V65.1248C310.514 65.9836 310.528 65.997 310.89 66.0373C311.239 66.0641 311.252 66.091 311.319 67.7415H312.929C314.484 67.7415 314.538 67.755 314.592 68.0502C314.632 68.2112 314.699 68.9493 314.739 69.6873C314.793 70.4254 314.793 71.1634 314.753 71.3379C314.672 71.6063 314.592 71.6331 312.66 71.6331V73.3105C312.66 74.2364 312.633 75.0818 312.593 75.1892C312.553 75.3234 312.338 75.3905 311.319 75.3905L311.332 76.1017C311.332 76.4774 311.332 76.88 311.332 76.974C311.319 77.0813 311.051 77.135 309.575 77.135L309.776 77.7791C309.884 78.128 310.152 78.6245 310.353 78.8795C310.608 79.1881 310.876 79.3626 311.131 79.3894C311.346 79.4163 311.829 79.3223 312.191 79.2016C312.566 79.0808 312.942 78.96 313.036 78.9332C313.116 78.9063 313.398 78.4635 313.639 77.9401C314.042 77.0679 314.096 77.0008 314.511 77.0008C314.874 77.0008 314.954 76.9471 315.008 76.6385C315.048 76.4238 315.142 76.0346 315.209 75.7662C315.33 75.3234 315.397 75.2563 315.745 75.2563C315.973 75.2563 316.175 75.1758 316.201 75.0953C316.228 75.0013 316.295 74.6256 316.349 74.2499C316.403 73.8875 316.523 73.4984 316.604 73.4044C316.684 73.3105 317.006 73.23 317.328 73.2434C317.65 73.2434 317.918 73.3105 317.945 73.4179C317.972 73.4984 318.052 73.9546 318.106 74.4109C318.227 75.2295 318.213 75.2429 317.891 75.3637C317.623 75.471 317.516 75.6589 317.355 76.2762C317.181 76.9874 317.113 77.0679 316.765 77.135C316.47 77.1887 316.336 77.3094 316.255 77.6047C316.188 77.8194 316.04 78.2622 315.933 78.5843C315.786 79.0271 315.678 79.1479 315.45 79.1479C315.249 79.1345 314.941 79.3626 314.538 79.8323C314.203 80.208 313.921 80.5703 313.908 80.6374C313.881 80.7045 314.028 80.7716 314.243 80.7984C314.498 80.8119 314.605 80.8924 314.605 81.0937C314.605 81.2815 314.31 81.5231 313.519 81.9659C312.915 82.3014 312.352 82.6503 312.245 82.7308C312.137 82.8247 311.574 83.026 310.984 83.1736C310.393 83.3213 309.481 83.5091 308.972 83.5762C308.301 83.6702 307.899 83.6702 307.563 83.5628C307.309 83.4823 306.732 83.2407 306.289 83.026C305.846 82.8113 305.323 82.4758 305.136 82.2746C304.948 82.0733 304.666 81.6841 304.505 81.4291C304.344 81.1742 304.25 80.9192 304.304 80.8655C304.344 80.7984 304.559 80.7582 304.773 80.7582C304.988 80.7582 305.149 80.6911 305.149 80.5972C305.149 80.5032 305.055 80.1812 304.948 79.8859C304.827 79.5907 304.76 79.2686 304.8 79.1881C304.84 79.0942 305.055 79.0137 305.283 79.0137C305.605 79.0137 305.672 78.9734 305.605 78.7856C305.551 78.6514 305.431 78.289 305.337 77.9804C305.229 77.6583 305.176 77.3094 305.216 77.2021C305.27 77.0545 305.498 77.0008 306.088 77.0008C306.531 77.0008 306.893 76.9605 306.893 76.9069C306.893 76.8398 306.826 76.5848 306.745 76.3298C306.665 76.0749 306.624 75.726 306.678 75.5649C306.745 75.2966 306.839 75.2563 308.234 75.2563V74.4511C308.234 74.0083 308.261 73.5521 308.301 73.4447C308.341 73.3105 308.542 73.2434 309.441 73.2434V72.4383C309.441 71.6734 309.428 71.6331 309.106 71.6331C308.918 71.6331 308.744 71.5392 308.703 71.4318C308.663 71.3245 308.636 70.8951 308.636 70.4925C308.636 70.0899 308.583 69.7544 308.502 69.7544C308.422 69.7544 308.368 69.3518 308.368 67.8757H307.563V66.9364C307.563 66.413 307.51 65.9702 307.429 65.9299C307.349 65.8897 307.295 65.5676 307.295 65.1919C307.295 64.8296 307.322 64.427 307.362 64.3196C307.402 64.1854 307.604 64.1183 308.502 64.1183V62.2396C308.502 60.6562 308.529 60.361 308.703 60.361C308.864 60.361 308.918 60.1597 308.972 58.5494L310.112 58.4823V57.7442C310.112 57.3416 310.139 56.9122 310.179 56.8049C310.233 56.6572 310.461 56.6036 311.856 56.6036V55.9326C311.856 55.5703 311.882 55.1677 311.923 55.0604C311.976 54.8993 312.271 54.8591 313.371 54.8591C314.619 54.8457 314.766 54.8188 314.981 54.5504C315.128 54.3626 315.209 54.0405 315.209 53.6916C315.209 53.3024 315.142 53.0877 315.008 53.0475C314.9 53.0072 313.17 52.9804 311.185 52.9804C307.697 52.9804 307.563 52.967 307.429 52.712C307.349 52.5644 307.295 52.1484 307.295 51.1017L305.216 51.0346L305.149 49.3572H301.863C299.059 49.3572 298.563 49.3304 298.509 49.1559C298.469 49.0486 298.442 48.5923 298.442 47.3443H297.235C296.39 47.3443 296.015 47.2906 295.974 47.1833C295.948 47.0893 295.572 46.9551 295.143 46.888C294.7 46.8344 293.936 46.7673 293.439 46.7539C292.795 46.7404 292.5 46.6868 292.406 46.5392C292.339 46.4318 292.326 46.1768 292.38 45.9621C292.474 45.6132 292.447 45.5998 292.044 45.5998C291.803 45.5998 291.575 45.5193 291.548 45.4388C291.521 45.3448 291.535 45.1838 291.575 45.0899C291.629 44.9825 292.044 44.8752 293.48 44.7276V44.1639C293.48 43.8419 293.426 43.5869 293.345 43.5869C293.265 43.5869 293.211 43.1843 293.211 42.6476C293.211 41.8961 293.251 41.7082 293.412 41.7082C293.56 41.7082 293.614 41.5472 293.614 41.0373C293.614 40.675 293.641 40.2724 293.681 40.165C293.734 40.0174 293.949 39.9637 295.223 39.9637V39.1586C295.223 38.7157 295.25 38.2595 295.29 38.1521C295.331 38.0448 295.451 37.9508 295.559 37.9508C295.72 37.9508 295.76 37.7764 295.76 37.2128C295.76 36.7297 295.827 36.4076 295.961 36.2734C296.095 36.1393 296.162 35.7904 296.162 35.1999C296.162 34.4082 296.189 34.3277 296.471 34.274C296.632 34.2337 297.074 34.1666 297.436 34.113C297.986 34.0459 298.214 33.9117 298.751 33.4017C299.1 33.0662 299.395 32.7442 299.381 32.6905C299.381 32.6234 299.261 32.5563 299.113 32.5161C298.966 32.4758 298.845 32.3819 298.845 32.3148C298.845 32.2477 298.979 32.1269 299.153 32.0464C299.314 31.9793 299.663 31.8317 299.918 31.7109C300.173 31.6036 300.535 31.4157 300.723 31.3083C300.91 31.201 301.098 31.107 301.165 31.107ZM308.167 46.3244C307.51 46.4184 306.812 46.5794 306.624 46.6868C306.437 46.7807 305.565 46.9686 304.68 47.0893L303.07 47.3175L313.868 47.3443C313.854 46.2439 313.814 46.1768 313.291 45.8548C312.982 45.6669 312.62 45.479 312.499 45.4388C312.379 45.3985 311.628 45.5461 310.823 45.7608C310.031 45.9755 308.824 46.2305 308.167 46.3244ZM76.9244 43.4661C77.1524 43.4527 77.6889 43.5735 78.1316 43.7211C78.6278 43.8956 79.1241 44.1908 79.446 44.4994C79.7277 44.7678 80.0899 45.3046 80.2642 45.6669C80.4252 46.0426 80.6398 46.727 80.7471 47.2101C80.8544 47.72 80.8812 48.3507 80.8276 48.7533C80.7873 49.1291 80.5862 49.7598 80.3984 50.1623C80.2106 50.5649 79.8753 51.1017 79.6338 51.3432C79.3924 51.5848 78.9095 51.9605 78.5339 52.1618C78.1718 52.3765 77.595 52.6046 77.2597 52.6852C76.9244 52.7657 76.5086 52.8596 76.3208 52.8999C76.133 52.9401 75.6501 52.8999 75.2477 52.8328C74.8185 52.7523 74.2149 52.4973 73.8125 52.2289C73.4235 51.9739 72.9541 51.5714 72.7931 51.3432C72.6187 51.1017 72.3773 50.6589 72.2566 50.3636C72.1493 50.0684 72.0152 49.4109 71.9615 48.8875C71.881 48.0689 71.9213 47.8274 72.2298 46.9417C72.5383 46.0829 72.7261 45.8145 73.4906 45.0765C73.9735 44.6068 74.5368 44.1371 74.7514 44.0432C74.9526 43.9358 75.4355 43.7748 75.8245 43.6674C76.2001 43.5601 76.7098 43.4661 76.9244 43.4661ZM63.31 44.0163C63.4978 44.0029 63.7258 44.0432 63.8197 44.0969C63.9136 44.1505 64.0478 44.4323 64.1148 44.7276C64.1819 45.0228 64.2489 45.5461 64.2489 45.9085C64.2489 46.4586 64.2087 46.5526 63.9539 46.5928C63.7795 46.6197 62.921 46.7136 62.0358 46.8075C61.1505 46.8881 60.0104 47.0222 59.4873 47.1028C58.7496 47.2235 58.4679 47.3443 57.8106 48.0153V54.4297C57.8106 57.9455 57.7167 63.0985 57.6094 65.8628C57.5021 68.6272 57.4082 73.1763 57.4082 75.9675C57.4082 78.7453 57.4619 82.5564 57.5424 84.4216C57.6094 86.2735 57.7436 88.434 57.824 89.2123C57.9314 90.1919 58.0655 90.7823 58.2667 91.1178C58.5081 91.5472 58.6423 91.6412 59.219 91.7485C59.5946 91.8156 60.7615 91.9767 61.8346 92.0974C62.9076 92.2182 63.9002 92.3658 64.0478 92.4195C64.2624 92.5134 64.3294 92.7013 64.3965 93.3857C64.4501 93.8553 64.4367 94.3384 64.3697 94.4458C64.2758 94.6202 63.1759 94.6471 55.7048 94.6471C50.9968 94.6471 46.2083 94.7008 45.0682 94.7679C43.2171 94.8752 42.9623 94.8618 42.7611 94.6739C42.5867 94.4995 42.5197 94.2311 42.5197 93.6406C42.5197 93.077 42.5867 92.7684 42.7343 92.6342C42.855 92.5134 43.2037 92.4329 43.5659 92.4195C43.9146 92.4195 44.5048 92.3658 44.867 92.2987C45.2425 92.245 45.8998 92.1108 46.3424 92.0035C46.785 91.9096 47.3216 91.7217 47.5228 91.6009C47.724 91.4667 48.0056 91.1581 48.1398 90.93C48.3678 90.5408 48.408 90.1114 48.4885 87.1994C48.5287 85.3878 48.6629 80.3556 48.7702 75.9944C48.8775 71.6331 49.025 67.5 49.0921 66.8022C49.1592 66.1044 49.2396 62.9911 49.2933 59.8913C49.3335 56.7914 49.3872 52.9535 49.4945 48.4849L49.2128 49.0217C49.0653 49.3169 48.6629 50.2294 48.3275 51.0346C47.9922 51.8397 47.5228 53.0475 47.2813 53.7184C47.0399 54.3894 46.5034 55.7984 46.101 56.872C45.6986 57.9455 45.1084 59.4484 44.7999 60.2268C44.4914 61.0051 44.0085 62.2396 43.7268 62.9777C43.4452 63.7158 42.855 65.2858 42.4124 66.4667C41.9563 67.6476 41.3125 69.3384 40.9771 70.2241C40.6284 71.1098 40.1053 72.4651 39.8102 73.2434C39.5151 74.0217 38.9786 75.471 38.603 76.464C38.2409 77.4571 37.7043 78.9063 37.4361 79.6846C37.1544 80.463 36.7922 81.4023 36.6447 81.7646C36.4837 82.1404 36.1618 82.9455 35.9338 83.5762C35.7058 84.2069 35.3436 85.1999 35.1156 85.7904C34.901 86.3808 34.6327 87.0518 34.5388 87.2665C34.4315 87.4812 34.1096 88.3937 33.8011 89.2794C33.506 90.1651 33.1439 91.1312 33.0097 91.4265C32.8756 91.7217 32.6073 92.4597 32.4062 93.077C32.0708 94.1372 32.044 94.1774 31.5611 94.3116C31.2794 94.3787 30.4478 94.58 29.7101 94.7679C28.8383 94.9691 28.2883 95.0497 28.1408 94.9691C27.9932 94.8886 27.6981 94.2579 27.3762 93.2783C27.0945 92.4061 26.5848 90.9434 26.2495 90.0174C25.9142 89.0915 25.3777 87.6154 25.0423 86.7297C24.707 85.8441 24.1705 84.3948 23.8486 83.5091C23.5132 82.6235 23.1511 81.6841 23.0304 81.4291C22.9096 81.1742 22.6146 80.4227 22.3865 79.7517C22.1585 79.0808 21.8232 78.2488 21.6622 77.873C21.5013 77.5107 21.3135 77.0545 21.2598 76.8666C21.2062 76.6787 20.8306 75.6857 20.4282 74.6524C20.0258 73.6192 19.5295 72.3577 19.3149 71.8344C19.1003 71.3111 18.7382 70.3851 18.5101 69.7544C18.2821 69.1237 18.0004 68.4259 17.9065 68.2112C17.7992 67.9965 17.531 67.2987 17.303 66.668C17.0749 66.0373 16.8067 65.3395 16.6994 65.1248C16.6055 64.9101 16.1092 63.7023 15.6263 62.4409C15.13 61.1795 14.5801 59.7705 14.3923 59.2874C14.2045 58.8043 13.8424 57.8381 13.6009 57.1403C13.3595 56.4425 12.8498 55.0469 12.4742 54.0539C12.0852 53.0609 11.5487 51.6385 11.2805 50.9004C11.0122 50.1623 10.7171 49.4377 10.6232 49.2901C10.5025 49.0888 10.4757 50.8333 10.4757 57.0732C10.4757 61.5016 10.5293 67.7281 10.5964 70.8951C10.65 74.062 10.7708 78.9332 10.8512 81.6975C10.9317 84.4619 11.0658 87.4678 11.1329 88.3803C11.2134 89.3062 11.3609 90.1919 11.4682 90.42C11.5755 90.6347 11.8572 91.0105 12.0718 91.2252C12.2998 91.4399 12.7022 91.6814 12.9839 91.7485C13.2522 91.8156 14.057 91.9498 14.7545 92.0303C15.4519 92.1243 16.6189 92.2585 17.3432 92.339C18.2285 92.4463 18.6979 92.5671 18.7784 92.7013C18.8455 92.8086 18.9125 93.2649 18.9125 93.7077C18.9125 94.1506 18.8589 94.58 18.8052 94.6605C18.7382 94.7544 15.908 94.7947 9.45626 94.7947C3.28622 94.7947 0.1699 94.7455 0.107306 94.6471C0.0536531 94.58 0 94.1774 0 93.7748C0 93.3723 0.0670653 92.9294 0.160957 92.7952C0.295089 92.6074 0.670657 92.5134 1.87784 92.3658C2.72287 92.2719 3.78251 92.0974 4.22514 91.9767C4.66777 91.8559 5.17747 91.6546 5.36526 91.5204C5.55304 91.3862 5.86154 90.9568 6.06274 90.5542C6.26394 90.1516 6.49196 89.4538 6.57244 89.011C6.66633 88.5682 6.77364 87.4141 6.8407 86.4613C6.90777 85.5086 7.01507 82.9053 7.09555 80.6911C7.17603 78.4769 7.29675 73.9546 7.37723 70.6267C7.44429 67.3121 7.53819 61.1795 7.59184 57.0061C7.64549 52.8328 7.64549 49.1022 7.59184 48.7265C7.52477 48.0689 7.45771 47.9884 6.94801 47.6529C6.47855 47.3577 6.14322 47.2638 5.16406 47.1833C4.50682 47.1296 3.3667 47.0491 2.6558 47.0088C1.74371 46.9686 1.27425 46.8746 1.14012 46.7404C1.00599 46.6062 0.93892 46.2708 0.93892 45.7072C0.93892 45.2375 1.00599 44.7678 1.07305 44.6605C1.18036 44.486 2.21317 44.4592 9.28189 44.486C13.7351 44.5128 17.3968 44.5263 17.4371 44.5263C17.4773 44.5263 17.7724 45.1972 18.0943 46.0292C18.4297 46.8612 19.1137 48.5386 19.6234 49.7598C20.1331 50.9809 20.777 52.551 21.0452 53.2488C21.3269 53.9466 21.6756 54.792 21.8366 55.1275C21.9976 55.4629 22.3329 56.2681 22.5743 56.9391C22.8292 57.61 23.3255 58.8177 23.6742 59.6229C24.0229 60.4281 24.5595 61.7029 24.8814 62.4409C25.1899 63.179 25.7398 64.4538 26.0886 65.259C26.4373 66.0641 26.947 67.2719 27.2287 67.9428C27.4969 68.6138 27.8457 69.3921 28.0066 69.6873C28.1542 69.9825 28.4359 70.6401 28.6371 71.1634C28.8248 71.6868 29.0395 72.1699 29.1065 72.237C29.1602 72.3041 29.4821 73.0421 29.8174 73.8473C30.1527 74.6524 30.7027 75.9944 31.0514 76.7995C31.4002 77.6047 31.9099 78.8124 32.1915 79.4834C32.4732 80.1543 32.7951 80.879 32.9158 81.0937C33.1036 81.4694 33.1305 81.4694 33.2109 81.2279C33.2646 81.0802 33.5999 80.2348 33.9621 79.3492C34.3242 78.4635 35.0754 76.6251 35.6387 75.2563C36.2021 73.8875 36.8861 72.1699 37.1812 71.4318C37.4763 70.6938 37.7982 69.902 37.9055 69.6873C37.9994 69.4726 38.4018 68.5333 38.7774 67.6073C39.153 66.6814 39.6895 65.3529 39.9712 64.6551C40.2528 63.9573 40.8162 62.5617 41.2186 61.5687C41.621 60.5757 42.238 59.0861 42.5867 58.281C42.9355 57.4758 43.4586 56.201 43.7537 55.4629C44.0488 54.7249 44.5853 53.3695 44.934 52.4436C45.2962 51.5177 45.8998 49.9745 46.2753 49.0217C46.6643 48.0689 47.1472 46.7941 47.3752 46.2037C47.5898 45.6132 47.8447 44.9557 47.9252 44.741C48.019 44.5263 48.18 44.3116 48.2873 44.2445C48.3946 44.1908 49.1592 44.2042 49.964 44.2847C50.9029 44.3787 53.1563 44.3921 56.134 44.325C58.7227 44.2713 61.3115 44.1908 61.9016 44.1371C62.4918 44.07 63.1222 44.0163 63.31 44.0163ZM297.302 54.9262V58.4152H293.278L293.252 57.5832C293.225 56.9391 293.158 56.7378 293.01 56.7378C292.903 56.7378 292.782 56.6438 292.742 56.5365C292.702 56.4291 292.661 56.04 292.648 55.6911C292.634 55.3288 292.688 54.9933 292.742 54.9396C292.809 54.8993 293.855 54.8725 297.302 54.9262ZM117.164 58.3078C117.754 58.3481 118.814 58.5225 119.511 58.697C120.209 58.8848 121.121 59.1801 121.523 59.3679C121.993 59.5692 122.569 59.9986 123.079 60.5354C123.535 60.9917 124.112 61.676 124.367 62.0384C124.608 62.4141 124.93 63.018 125.078 63.3803C125.225 63.756 125.48 64.266 125.641 64.5209C125.815 64.7759 125.963 65.1382 125.963 65.3261C125.963 65.5139 125.963 66.1178 125.963 66.668C125.949 67.2182 125.909 68.1039 125.869 68.6138C125.829 69.1371 125.735 69.6202 125.668 69.6873C125.587 69.7678 125.547 70.9622 125.547 72.5054C125.56 73.9815 125.534 75.5784 125.48 76.0615C125.426 76.5848 125.319 76.9874 125.198 77.0679C125.037 77.1752 125.024 77.5376 125.091 79.0808C125.131 80.1141 125.158 83.1065 125.131 90.4871L125.44 90.7958C125.614 90.9568 125.99 91.1447 126.285 91.2252C126.58 91.2923 127.425 91.3862 128.163 91.4399C128.954 91.507 129.571 91.6143 129.678 91.7217C129.772 91.829 129.839 92.2585 129.839 92.7684C129.839 93.4662 129.786 93.6943 129.571 93.909C129.383 94.0969 129.128 94.1774 128.739 94.1774C128.417 94.1774 126.593 94.1103 124.675 94.0298C122.033 93.909 120.45 93.909 118.17 94.0298C116.507 94.1103 114.642 94.2177 114.012 94.2713C113.059 94.3384 112.831 94.3116 112.644 94.1237C112.496 93.9895 112.402 93.7077 112.402 93.4125C112.402 93.1307 112.469 92.6745 112.536 92.4061C112.657 91.9632 112.737 91.8827 113.18 91.7754C113.448 91.7083 114.065 91.6009 114.548 91.5607C115.031 91.507 115.662 91.3594 115.943 91.2386C116.225 91.1178 116.587 90.8494 116.748 90.6213C117.016 90.2322 117.03 90.0577 117.03 86.4613C117.03 84.3948 117.083 81.7109 117.15 80.4898C117.231 78.8392 117.204 77.4973 117.043 75.1892C116.909 73.1361 116.855 71.0829 116.949 66.0641L116.453 65.0443C116.185 64.4941 115.782 63.8768 115.554 63.6889C115.34 63.4876 114.924 63.2461 114.656 63.1253C114.374 63.0045 113.556 62.8704 112.845 62.8301C112.107 62.7764 111.061 62.8167 110.457 62.8972C109.599 63.018 109.062 63.2058 107.775 63.8365C106.514 64.4672 105.991 64.8027 105.387 65.42C104.958 65.8494 104.435 66.4667 104.207 66.8022C103.992 67.1377 103.643 67.8891 103.456 68.4796C103.107 69.5397 103.107 69.6202 103.013 74.8537C102.959 77.7657 102.973 81.4828 103.026 83.1065C103.093 84.7303 103.201 86.3003 103.268 86.5955C103.348 86.8908 103.429 87.924 103.442 88.8768C103.469 90.2724 103.536 90.7018 103.724 90.9971C103.858 91.2118 104.153 91.413 104.462 91.4936C104.73 91.5741 105.494 91.6814 106.152 91.7351C106.822 91.7888 107.439 91.9096 107.533 92.0035C107.627 92.084 107.708 92.3926 107.708 92.6745C107.708 92.9428 107.64 93.3857 107.56 93.6406C107.466 93.8956 107.345 94.1774 107.278 94.2445C107.198 94.325 104.864 94.3787 100.827 94.3787C97.3392 94.3921 93.5298 94.4458 92.3495 94.4995C90.4448 94.6068 90.1765 94.5934 89.9753 94.3921C89.7876 94.2311 89.7339 93.9627 89.7339 93.3052C89.7339 92.7147 89.801 92.3658 89.9351 92.2316C90.0692 92.0974 90.5119 92.0035 91.1825 91.9498C91.7459 91.9096 92.5238 91.829 92.886 91.7619C93.2616 91.6948 93.731 91.4936 93.9456 91.3325C94.1603 91.1581 94.3883 90.9031 94.4688 90.7555C94.5492 90.6079 94.6565 90.004 94.7236 89.4136C94.7773 88.8231 94.898 87.857 94.965 87.2665C95.0321 86.6761 95.1662 83.7507 95.2467 80.7582C95.3272 77.7657 95.4077 74.0754 95.4211 72.5456C95.4211 71.0024 95.3943 69.7544 95.3406 69.7544C95.2735 69.7544 95.2065 69.3116 95.1796 68.7882C95.1394 68.2515 95.0589 67.2719 94.9785 66.6009C94.898 65.9299 94.8309 65.004 94.8309 64.5209C94.8175 64.0378 94.7907 63.5413 94.7504 63.4205C94.7236 63.2729 94.4822 63.1253 94.2005 63.0448C93.9188 62.9777 93.0604 62.9106 92.2824 62.9106C91.5045 62.9106 90.7936 62.8569 90.6997 62.8033C90.5655 62.7362 90.5521 62.4946 90.6192 61.77C90.6862 61.26 90.807 60.7501 90.9143 60.6696C91.0216 60.5622 91.4642 60.4952 91.9873 60.4952C92.4836 60.4952 93.731 60.361 94.7638 60.2134C95.7967 60.0657 97.8757 59.7034 99.3914 59.435C101.9 58.9788 102.154 58.9519 102.356 59.1398C102.476 59.2606 102.611 59.7705 102.678 60.361C102.745 60.9111 102.798 62.0652 102.812 64.4672L103.214 64.1989C103.442 64.0378 103.952 63.6353 104.354 63.2998C104.757 62.9643 105.722 62.2128 106.5 61.6358C107.278 61.0453 108.365 60.3475 108.915 60.0523C109.465 59.7705 110.591 59.3277 111.396 59.0727C112.38 58.7596 113.408 58.5404 114.481 58.4152C115.366 58.3212 116.574 58.2676 117.164 58.3078ZM80.9885 59.1666C81.069 59.1532 81.23 59.2337 81.3239 59.3277C81.4446 59.4753 81.4714 62.1457 81.4446 71.982C81.4312 78.8392 81.4044 85.8038 81.3909 87.4678C81.3641 90.0711 81.4044 90.5408 81.5921 90.93C81.7129 91.1581 82.0079 91.4533 82.2225 91.5607C82.4506 91.668 83.3493 91.8425 84.2345 91.9364C85.3881 92.0437 85.8843 92.1511 85.9782 92.2987C86.0453 92.4061 86.1124 92.8623 86.1124 93.3052C86.1124 93.748 86.0453 94.2177 85.9514 94.3653C85.7905 94.5934 85.5624 94.6068 82.5579 94.5934C80.7874 94.58 79.0705 94.5397 78.7351 94.486C78.3998 94.4458 75.8245 94.486 72.9943 94.5934C68.4473 94.7544 67.8437 94.7544 67.7364 94.58C67.6693 94.4726 67.6022 94.003 67.6022 93.5467C67.6022 93.0502 67.6693 92.6342 67.7766 92.5268C67.8571 92.4329 68.7558 92.245 69.7483 92.1108C70.7409 91.9767 71.7603 91.7888 72.0017 91.6814C72.2298 91.5741 72.4846 91.3862 72.5517 91.2654C72.6187 91.1312 72.7529 90.6347 72.8334 90.1516C72.9138 89.6685 73.0346 87.4007 73.1016 85.1194C73.1821 82.3953 73.1821 79.3357 73.0882 76.2627C73.0077 73.6862 72.9272 69.8484 72.9138 67.7415C72.887 65.6347 72.8334 63.7829 72.7931 63.6218C72.7261 63.4071 72.5383 63.2729 72.2029 63.179C71.9213 63.1119 70.9287 63.0448 69.9898 63.0448C68.7289 63.0448 68.2595 63.0045 68.2192 62.8838C68.1924 62.7898 68.2327 62.3202 68.2863 61.8371C68.3534 61.354 68.4607 60.8977 68.5277 60.8306C68.5948 60.7635 68.9033 60.6562 69.2252 60.6025C69.5471 60.5488 70.6872 60.4415 71.7603 60.361C72.8334 60.2804 74.6978 60.0926 75.9184 59.945C77.139 59.8108 78.7351 59.5692 79.4729 59.435C80.2106 59.3008 80.8947 59.1801 80.9885 59.1666ZM321.164 73.2703C321.942 73.2971 322.251 73.3642 322.331 73.5118C322.398 73.6191 322.506 74.062 322.586 74.4914C322.72 75.216 322.734 75.2563 323.123 75.2563C323.485 75.2563 323.538 75.31 323.74 75.9675C323.86 76.3433 324.035 76.7458 324.115 76.8398C324.196 76.9337 324.383 77.0142 324.531 77.0142C324.692 77.0008 325.161 77.39 326.677 79.0137H327.884C328.998 79.0137 329.145 78.9868 329.695 78.6245C330.071 78.383 330.392 78.0341 330.54 77.712C330.674 77.4302 330.835 76.8398 330.902 76.3969C330.983 75.9004 331.117 75.5247 331.264 75.4173C331.398 75.3234 331.559 75.2563 331.64 75.2429C331.72 75.2429 331.841 75.3234 331.922 75.4173C332.016 75.5113 332.123 75.8602 332.176 76.1956C332.217 76.5311 332.378 77.1216 332.525 77.5107C332.753 78.1549 332.767 78.2488 332.579 78.6782C332.431 79.0137 332.297 79.1479 332.083 79.1479C331.881 79.1613 331.492 79.4699 330.969 80.0201C330.258 80.7984 330.111 80.8924 329.668 80.8924C329.279 80.8924 329.091 80.9729 328.863 81.2547C328.689 81.456 328.327 81.8586 328.059 82.1538C327.576 82.6906 327.549 82.704 326.717 82.6906C326.073 82.6771 325.684 82.5698 325.067 82.2746C324.625 82.0464 324.155 81.7109 324.035 81.5097C323.901 81.3218 323.82 81.0668 323.86 80.9595C323.914 80.8119 324.129 80.7582 325.403 80.7582L325.148 79.9933C324.907 79.2284 324.893 79.215 324.343 79.1881C323.874 79.1479 323.726 79.0674 323.351 78.5843C323.096 78.2622 322.774 77.7925 322.613 77.5376C322.452 77.2826 322.237 76.8934 322.13 76.6653C322.023 76.4506 321.862 76.0615 321.58 75.3771L320.547 75.3905C319.957 75.3905 319.353 75.31 319.179 75.2295C318.884 75.0684 318.871 75.0148 319.005 74.7195C319.099 74.5317 319.3 74.1693 319.474 73.9144C319.649 73.6594 319.863 73.4044 319.944 73.3508C320.038 73.2837 320.587 73.2568 321.164 73.2703Z" fill="#5C75EC"/>
</svg>
