<svg version="1.2" xmlns="http://www.w3.org/2000/svg" viewBox="0 0 2644 1044" width="2644" height="1044"><style>.a{fill:#5c75ec}</style><path fill-rule="evenodd" class="a" d="m64 89h301v49h24c20 0 24.3 0.3 25.5 1.5 1.3 1.3 1.5 5.5 1.5 49.5h23c12.6 0 23.7 0.2 24.5 0.5 1.3 0.4 1.5 4.1 1.5 48.5h23.5c19.6 0 23.8 0.3 25 1.5 1.3 1.3 1.5 5.5 1.5 49.5h50v50c0 43.6-0.2 50.1-1.5 50.5-0.8 0.3-12.1 0.5-48.5 0.5v24c0 20.5-0.2 24.2-1.6 25.5-1.3 1.2-5.5 1.5-48.4 1.5v24c0 20.4-0.2 24.1-1.5 24.5-0.8 0.3-11.9 0.5-47.5 0.5v23.5c0 20.1-0.2 23.7-1.6 25-1.3 1.2-5.6 1.5-49.4 1.5v50h-301v-25.5c0-21.8 0.2-25.6 1.5-26 0.8-0.3 11.8-0.5 47.5-0.5v-23.5c0-20.1 0.2-23.7 1.6-25 1.3-1.2 5.6-1.5 49.4-1.5v-23c0-12.6 0.2-23.7 0.5-24.5 0.4-1.3 4.1-1.5 48.5-1.5v-24c0-20.5 0.2-24.2 1.6-25.5 1.3-1.2 5.6-1.5 49.4-1.5v-97h-24c-20 0-24.3-0.3-25.5-1.5-1.3-1.3-1.5-5.5-1.5-49.5h-24c-20.4 0-24.1-0.2-24.5-1.5-0.3-0.8-0.5-11.8-0.5-47.5h-24c-20 0-24.3-0.3-25.5-1.5-1.3-1.3-1.5-5.5-1.5-49.5h-49zm1450.3 183.2c1.5-0.1 3.4 0.6 4.3 1.6 0.8 0.9 1.3 2.3 1 3-0.3 0.6-0.6 1.6-0.6 2.2 0 0.6-3.7 1-18 1v6q0 6-1.5 7.5c-1 1-1.5 3.6-1.5 8 0 4.9 0.4 6.6 1.5 7 1.1 0.4 1.7 2.5 2 7.3 0.3 3.7 0.7 9.6 0.8 13.2 0.2 5.8 0 6.5-1.8 6.8-1.1 0.3-2.3 0.9-2.7 1.6-0.4 0.6-0.8 3-0.8 5.4 0 2.3-0.2 4.9-0.5 5.7-0.3 0.8-1.1 1.5-1.7 1.5-1 0-1.6 4.8-2.6 17.2-0.7 9.5-1.2 21.7-1.2 36.8h3.5c2.2 0 3.7 0.5 4 1.5 0.3 0.8 0.5 4.2 0.5 13.5l3.3 0.3c3.2 0.2 3.2 0.2 4 7.2 0.5 3.9 1.2 21 1.7 38 0.4 17.1 1.1 37.1 1.4 44.5 0.5 9.3 0.2 18.9-0.9 31-0.9 9.6-1.8 20.4-2.1 24-0.3 3.6-1.1 6.9-1.8 7.5-0.8 0.5-1.7 3.7-2.1 7-0.4 3.3-0.9 17.3-1.1 31-0.3 13.8-0.1 33.3 0.4 43.5 0.5 10.2 1.3 19.4 1.9 20.5 0.6 1.1 3.5 3 6.4 4.2 3 1.2 7.8 2.4 10.7 2.7 2.8 0.3 5.4 1.1 5.7 1.6 0.3 0.6 4.5 1 9.5 1 6.3 0 12-0.8 19-2.5 8.4-2.1 11.3-2.4 18.3-1.9 7 0.6 8.8 1.1 12.2 3.7 2.2 1.6 5.3 4.5 7 6.4 1.7 1.8 4.8 3.9 7 4.7 3 1 4.9 2.6 7.3 6.2 1.8 2.7 3.8 5.7 4.5 6.7 0.6 0.9 2.2 1.7 3.5 1.7 1.3 0 3 1.1 4.1 2.8 1.1 1.5 2.6 4.5 3.4 6.7 0.8 2.2 2.4 5.8 3.6 8 1.6 3.1 2.1 5.8 2.1 12 0.1 6.5-0.3 8.5-2 10.8-1.7 2.3-2.7 2.7-7 2.7-4.3 0-5.1 0.3-5.9 2.3-0.5 1.2-2.3 4.1-4 6.5-1.9 2.5-3.9 4.2-5.1 4.2-1.1 0-4.1 2.1-6.7 4.6-2.7 2.5-6.1 5.2-7.8 6-1.7 0.8-4.8 1.8-7 2.1-2.2 0.3-5.7 0.1-7.7-0.6-2.1-0.6-4.7-2.3-5.8-3.8-1.2-1.6-2.1-3.8-2-5 0-1.3 0.7-2.6 1.6-3 1.3-0.7 1.7-3.2 2.1-12.8 0.4-7.8 0.1-13.9-0.7-17.5-0.6-3-1.6-6.5-2.1-7.7-0.6-1.7-0.5-2.7 0.6-3.8 1.3-1.3 1.3-1.9-0.1-4.7-0.9-1.8-3-4.8-4.5-6.5-1.6-1.8-2.9-3.6-2.9-4 0-0.5-1.4-1.6-3.2-2.7-3-1.6-4.9-1.8-18.3-1.3-12.4 0.4-16.1 0.9-21.5 2.9-3.6 1.3-9.2 3.9-12.5 5.7-3.3 1.9-7.7 4.9-9.7 6.8-2.1 1.8-4.8 3.8-6 4.4-1.3 0.5-3.5 3.2-5 6-2.1 3.6-2.6 5.4-1.9 6.7 0.7 1.2 0.3 3.2-1.5 7-1.3 2.8-2.4 6.4-2.4 8 0 1.5-0.8 4.3-1.8 6.2-1 1.9-3.8 7.1-6.2 11.5-2.4 4.4-5.1 8.7-6.2 9.5-1 0.8-2.5 4-3.3 7-0.8 3-2.4 6.2-3.5 7-1.3 1-2.2 3.3-2.7 6.5-0.4 2.8-1.5 5.8-2.5 6.8-1.1 1.1-1.8 3.2-1.8 5.7 0 2.2-0.4 4.9-1 6-0.6 1.2-2 2-3.5 2-2.4 0-2.5 0.3-2.5 6 0 3.3-0.2 6.7-0.5 7.5-0.3 0.8-1.2 1.5-2 1.5-1.2 0-1.4 1-0.9 5.3 0.5 4.1 0.3 5.6-1 7-1.2 1.3-1.5 2.9-1 7 0.3 2.8 1.2 7.9 2 11.2 0.7 3.3 1.4 7 1.4 8.3 0 1.3-0.6 2.2-1.5 2.2q-1.5 0-0.9 1.8c0.4 0.9 1.4 4.6 2.4 8.2 0.9 3.6 2.9 8.6 4.4 11.3 1.4 2.6 2.4 5.5 2.1 6.5-0.3 0.9 0.3 2.9 1.3 4.3 0.9 1.4 4.6 5.8 8.2 9.8 3.6 4 7.8 8.1 9.5 9.1 1.7 1 5.3 2.4 8 3 2.8 0.6 8.2 1.5 12 1.9 4.8 0.6 9.3 0.4 14.3-0.5 3.9-0.8 10-2.8 13.5-4.5 3.4-1.7 6.4-3.4 6.7-3.8 0.3-0.3 2.3-1.8 4.5-3.2 2.2-1.4 5.1-2.8 6.5-3.2 1.4-0.3 4.4-3 7-6.3 2.5-3.2 7.8-9.2 11.8-13.3q7.4-7.6 11-14.9c3.1-6.1 4.1-7.3 6.2-7.2 1.8 0 4.3-1.9 8.8-6.5 5-5.2 6.8-6.5 9.5-6.6 1.7-0.1 6.4 1.1 10.2 2.7 5.4 2.3 7.1 3.4 7.3 5.2 0.1 1.2-0.2 3.1-0.8 4.2-0.7 1.4-2 2-4.2 2-3.1 0-3.5 0.5-6.5 6.5-2.7 5.4-3.8 6.6-6.5 7.3-2.7 0.6-3.5 1.6-5.7 7.2-2.6 6.5-2.6 6.5-6.9 6.8-4.1 0.2-4.2 0.3-7.7 7.2-3.2 6.3-3.8 7-6.5 7-1.8 0-3.8 0.9-5 2.3-1.1 1.2-2 2.5-2 3 0 0.4-1.9 2.8-4.2 5.3-2.4 2.6-6.9 6.5-10.2 8.8-3.2 2.2-6.8 4.8-8 5.6-1.2 0.9-2 2.3-1.8 3.5 0.2 1.6-0.9 2.6-5.5 4.7-3.2 1.5-10.3 4.3-15.8 6.1-5.5 1.9-12.5 4.1-15.5 4.8-3.8 1-12.1 1.4-27.5 1.4-15.1-0.1-22.8-0.5-24.5-1.3-1.4-0.7-3.2-1.6-4-2.1-0.8-0.5-3.1-1.6-5-2.4-1.9-0.9-7.2-3.3-11.8-5.4-6.2-2.8-8.5-4.4-9-6.2-0.5-1.6-3-3.5-8.2-6.2-4.1-2.1-8.5-4.9-9.7-6.1-1.2-1.3-4.5-4.9-7.3-8-2.7-3.2-5-6.3-5-6.8 0-0.5 0.5-1.2 1-1.5 0.6-0.3-0.1-2.7-1.6-5.7-1.5-2.9-2.8-6.7-2.9-8.3-0.2-1.6-1.2-5-2.3-7.5-1.6-3.7-1.8-4.9-0.9-6.8 1-1.8 0.9-3.2-0.3-6.4-0.8-2.3-2.2-5.1-3.2-6.3-0.9-1.1-2.2-4.2-2.9-7-0.6-2.7-1.9-5.7-2.8-6.5-1-0.9-2-4.1-2.5-7.5-0.5-4.4-1.4-6.6-3.2-8.2-1.7-1.6-2.4-3.4-2.4-6-0.1-2.3 0.7-4.9 2-6.5 1.6-2.2 1.9-3.7 1.4-7-0.4-2.5-0.2-5.2 0.5-6.5 1-2 2-2.3 7.9-2.5 6.3-0.3 6.7-0.4 7-2.8 0.1-1.4 0.7-4.2 1.2-6.2 0.9-3.6 1.3-3.8 5.2-4 4.1-0.3 4.2-0.4 6.4-5.8 1.2-3.2 3-5.9 4.3-6.5 1.1-0.5 3.4-3.8 5.1-7.2 1.6-3.5 3.9-6.9 4.9-7.5 1.1-0.7 3.4-3.5 5.1-6.3 1.7-2.7 4.4-6.1 5.9-7.5 1.5-1.4 4-4.5 5.6-6.9 1.7-2.5 6-6.6 10-9.3 3.8-2.7 10-6.9 13.8-9.3 4.2-2.8 7.9-6.3 9.8-9.2 1.8-2.7 7.5-9 12.8-14.1 5.3-5.2 11.6-10.8 18.3-15.7l-16.3-0.3c-9-0.2-24.3 0.1-33.9 0.7-9.6 0.7-20.8 1.4-24.7 1.6-5.6 0.4-7.6 0.2-8.8-1-1-1-1.5-3.6-1.5-8.2 0-3.8 0.4-7.4 0.8-8.1 0.4-0.9 4.5-1.6 11.7-2.2 6-0.5 12.8-1.4 15-2.1 2.2-0.6 5.2-1.7 6.8-2.5 1.6-0.8 3.1-2.7 3.7-4.6 0.6-1.8 1.7-7.3 2.5-12.3 0.8-5 2.2-19.4 3.2-32 1.4-18.8 1.7-34.8 1.7-88-0.1-59.5-0.2-65.2-1.8-67.5-1.3-1.8-1.6-3.7-1.1-7 0.3-2.5 0.8-7.4 1.1-11 0.4-3.9 1.3-7.3 2.3-8.4 1.3-1.5 1.6-4.3 1.5-18-0.1-8.8-0.7-24.2-1.3-34.1-0.6-9.9-1.3-21-1.6-24.7-0.4-6-0.7-6.8-2.5-6.8-1.1 0-2.2-0.7-2.5-1.5-0.3-0.8-0.5-3.1-0.5-5 0-1.9 0.5-4.4 1-5.5 0.5-1.1 1.7-2 2.5-2 1.2 0 1.5-1.4 1.5-6.5 0-5.1 0.3-6.5 1.5-6.5 1.2 0 1.5-1.9 1.5-11.5 0-7.2-0.5-12.4-1.2-14-1.1-2-2.3-2.6-6.8-3.1-3-0.4-9.2-0.4-22 0.6l-0.6-2.7c-0.4-1.6-0.3-4.4 0-6.3 0.4-1.9 1.5-5 2.4-6.7 0.9-1.8 2.6-3.7 3.7-4.3 1.1-0.5 5.4-1.9 9.5-3 4.1-1.1 10-2.4 13-3 3-0.6 10-1.5 15.5-2 5.5-0.6 13.6-1.6 18-2.4 4.4-0.8 10.7-2 14-2.6 3.3-0.7 9.4-1.5 13.5-2 4.1-0.4 8.7-0.8 10.3-0.8zm425.7 34.8c0.5 0 0.8 8.7 0.7 20.5-0.2 17.9 0 20.6 1.4 21.7 1.4 1.1 1.9 4.9 2.9 20.8 0.7 10.7 1 22.6 0.6 26.5-0.3 3.9-0.8 10-1.6 20.5h2.8c1.5 0 8.8-0.5 16.2-1.2 7.4-0.6 14.7-0.8 16.3-0.5 1.6 0.4 3.8 2.3 5.5 4.9 2.2 3.4 2.8 5.5 3 11.2 0.2 4.8-0.1 7.5-1 8.4-0.9 0.8-2.1 0.9-3.8 0.3-1.7-0.5-5.9-0.1-13 1.4-5.8 1.2-12.1 2.6-14 3.2-1.9 0.6-6 1.4-14.5 2.4l-0.8 9.2c-0.4 5.1-0.7 17.2-0.7 27 0 14.8 0.2 17.8 1.5 18.2 1.1 0.4 1.5 2.1 1.5 6.5 0 3.3 0.5 7 1.1 8.3 0.7 1.5 0.7 5.7 0 14.2-0.6 6.6-1.5 15.4-2.1 19.5-0.5 4.1-1 8.7-1 10.3 0 1.5-1.1 18.1-2.5 37-1.4 18.8-2.5 38.2-2.5 43.2 0.1 5 0.5 12.4 1 16.5 0.5 4.1 1.3 7.8 1.7 8.3 0.4 0.4 4.2-1.7 8.3-4.8 4.1-3 8.1-5.9 8.8-6.5 0.6-0.5 2.3-1 3.7-1q2.5 0 10.5-7c7.9-6.9 8.1-7 13.8-7.1 3.1 0 8.2-0.8 16.7-3.5l1.2-5.4c0.7-3 1.6-5.9 2-6.3 0.5-0.5 1.7-0.7 2.8-0.5 1.1 0.2 2.8 1.9 3.8 3.8 0.9 1.9 1.8 5.2 2 7.3 0.2 3.1 0.6 3.9 2.7 4.3 1.4 0.3 3.2 0.8 4 1.1 0.8 0.2 4.9 0.9 9 1.5 4.1 0.5 11.1 1.2 15.5 1.5 4.4 0.2 9.6 0 11.5-0.5 1.9-0.6 7.6-1.6 12.5-2.2 4.9-0.6 12.6-1.7 17-2.3 4.4-0.7 10.5-0.9 13.5-0.6 3 0.4 8.7 1.8 12.5 3.3 4.5 1.6 8.4 3.9 10.8 6.3 2 2.1 3.7 4.4 3.7 5.1 0 0.8-1.6 1.2-4.5 1.2-3.9 0-4.4 0.2-3.8 1.8 0.3 0.9 0.8 7.2 1.3 26.2h3c2.5 0 3.2 0.5 4 3.3 0.6 1.7 1 4.4 1 6 0 1.5-0.7 3.4-1.5 4.2-1 1-1.5 3.4-1.5 7 0 4.7-0.3 5.6-2 6-1.8 0.4-2 1.3-2 8 0 4.3-0.4 7.5-1 7.5-0.6 0-1 2.8-1 6.5 0 5.7 0.3 6.6 2 7 1.7 0.4 2 1.3 2 6 0 3-0.2 6.2-0.5 7-0.3 0.8-1.4 1.5-2.5 1.5-1.8 0-2 0.7-2 13h-61v13h6c4.4 0 6.1 0.4 6.5 1.5 0.3 0.8 0.5 4.2 0.5 13.5h12v13h7.5c5.8 0 7.6 0.3 8 1.5 0.3 0.8 0.5 3.8 0.5 11.5h12.5c10.2 0 12.6 0.3 13 1.5 0.3 0.8 0.5 4.2 0.5 13.5h3.5c2.2 0 3.7 0.5 4 1.5 0.3 0.8 0.5 4 0.5 7 0 3 0.4 5.7 1 6 0.6 0.3 1 3 1 6 0 3-0.2 6.2-0.5 7-0.3 0.8-1.6 1.5-3 1.5-2.4 0-2.5 0.3-2.5 12h4c3.3 0 4.1 0.4 4.5 2.3 0.3 1.2 0.4 8.3-0.1 29.2l3.8 3.5c2.1 1.9 4.1 4.6 4.4 6 0.3 1.4 1.5 3.9 2.7 5.5 1.2 1.6 2.4 3.2 2.7 3.5 0.3 0.3 1.5 1.9 2.6 3.5 1.2 1.6 2.8 5 3.8 7.5 1 2.5 2.5 6.2 3.4 8.3 0.9 2 2.1 3.7 2.7 3.7 0.6 0 3.1-1.4 5.8-3 3.2-2.1 5.7-4.8 8-8.6 1.7-3.1 3.7-5.9 4.3-6.3 0.6-0.3 1.6-2.2 2.3-4.1 0.9-2.9 2.1-4 6.9-6.1 3.1-1.5 6.5-3 7.5-3.3 1.2-0.4 1.8 0 2.2 1.9 0.3 1.4 0.1 4.6-0.5 7.3-0.5 2.6-1.3 4.9-1.8 5.2-0.5 0.3-1.5 3-2.2 6-0.7 3-2 6.9-3 8.5-0.9 1.6-2.2 5-2.9 7.5-0.9 3.8-2 5.1-6.4 8-2.8 1.9-7.4 4.3-10.2 5.2-2.7 1-6.8 1.7-9 1.8-2.2 0-5.8-0.5-8-1.1-2.2-0.7-5.6-2.2-7.5-3.4-2.5-1.5-3.7-3.2-4.2-5.6-0.3-1.9-0.2-5.4 0.4-7.9 0.8-3.8 0.6-5.6-3.7-19h-4.5c-2.5 0-7-0.5-10-1.2-3-0.6-7.1-1.1-9-1.1-1.9 0-10.2 0.5-18.5 1.1-13.9 1-15.2 0.9-18-0.8-1.7-1-4.3-3.3-6-5-2.1-2.2-3-4.2-3.1-6.8-0.1-2-0.9-5.6-1.8-7.9-0.9-2.4-2.3-5-3.1-5.8-0.8-0.8-1.5-2.6-1.5-4 0-1.4-0.4-2.5-1-2.5-0.6 0-2.2 2-3.7 4.4-1.6 2.4-4.4 5.6-6.4 7.2-1.9 1.6-4.9 4.5-6.6 6.4-1.7 1.9-6.8 5.8-11.4 8.5-8.3 4.9-8.5 5-16.8 5-8.1 0-8.5-0.1-10.5-2.9-1.2-1.6-3-4-6.1-7.8l-10.5 2.3c-8.3 1.8-11.4 3-14.7 5.6-2.4 1.8-4.1 3.6-3.8 4.1 0.2 0.4-0.1 1.5-0.8 2.5-0.8 1.2-5.1 2.8-12.7 4.8-6.3 1.6-13.5 2.9-16 2.9-2.5 0-6.3-0.6-8.5-1.4-2.2-0.7-6.9-2.7-10.5-4.5-4.4-2.1-8-3.1-11.2-3.1-3.9 0-5.1-0.4-6.2-2.2-0.8-1.3-1.8-3.6-2.3-5.2-0.4-1.6-1.7-3.5-2.8-4.3-1.1-0.7-3.9-1.3-6.2-1.3-4.1 0-4.5-0.3-7.5-5.2-1.8-2.8-4.4-6-5.8-7-2-1.5-4.2-1.9-11.2-1.8-8.7 0-8.8 0-11.4-3.2-1.5-1.8-3.5-5-4.5-7-1.6-3.1-2.4-3.8-4.9-3.8-2 0-3.5-0.7-4.4-2.2-0.8-1.3-1.7-3.9-2.1-5.8-0.4-1.9-1.3-4.6-2-6-0.7-1.4-1.7-4.5-2.3-7-0.6-2.8-0.7-5.2-0.1-6.2 0.5-1 0.9-4.7 0.9-8.3 0-5.8-0.2-6.5-2-6.5-1.1 0-2.2-0.7-2.5-1.5-0.3-0.8-0.5-2.3-0.5-3.2 0-1 0.5-3.5 1-5.5 0.7-2.6 1.6-3.8 2.8-3.8 1.2 0 2.2-1.6 3.5-6.2 1-3.5 2.4-6.9 3-7.6 0.8-0.8 3.6-1.3 13.7-1.2l3-6.5c2.9-6.2 3.2-6.5 6.5-6.5 2.7 0 3.7-0.5 4.4-2.2 0.5-1.3 2.3-4.2 4-6.5 2.5-3.5 3.7-4.3 6.4-4.3 2.3 0 4.8-1.3 8.7-4.4 3-2.4 8-5.9 11.1-7.7 3.1-1.9 8.4-6 11.8-9.1 4.2-4.1 5.9-6.3 5.6-7.5-0.4-1.3 0.9-2.8 4.6-5.3 2.8-1.9 6.9-4.5 9.2-5.8 3.4-1.8 5.8-2.2 12.5-2.2 4.5 0 13.7-0.5 20.5-1.2 11.6-1.1 12.8-1.4 25.2-7 7.3-3.2 14.4-5.8 16.3-5.8 1.7 0 7.6-1.4 13-3 5.3-1.7 13.5-4.2 18.2-5.8 4.7-1.5 9.7-3.7 11.2-4.9 2.5-2.1 2.8-3 2.8-14.3h8v-6q0-6 1.5-7.5c1.2-1.2 1.4-3 0.9-8.7-0.3-4-1.2-9.3-2-11.8-0.8-2.5-1.2-5.3-0.9-6.2 0.4-1.4 1.6-1.8 5-1.8 2.5 0 4.5-0.3 4.5-0.7 0-0.5-0.9-2.2-1.9-3.8-1-1.6-3.6-3.7-5.7-4.6-2.2-0.9-5.9-2-8.4-2.5-2.5-0.4-5.6-0.9-7-1.1-1.4-0.1-8.3-0.8-15.5-1.4-10.7-0.9-13.1-0.9-13.6 0.3-0.4 0.7-0.4 2.2-0.2 3.3 0.3 1.1-0.7 4.9-2.3 8.5-1.7 4.2-4.7 8.6-8.3 12.4-3.4 3.5-7.7 6.8-10.8 8.2-4 1.8-5.8 3.3-7.2 6.2-1.8 3.6-2.2 3.7-9.2 4.9-4.1 0.6-9.4 2.1-11.9 3.2-2.5 1-6.2 2.2-8.2 2.5-2.1 0.3-3.8 0.9-3.8 1.4 0 0.4 0.5 1.3 1.2 2 1.1 1-1 1.2-10.4 1.2-6.9 0-12 0.4-12.3 1-0.3 0.6-5.2 1-23 0.9l-2.2 5.8c-1.2 3.3-3.8 7.5-6.1 9.8-2.1 2.2-6.3 5.2-9.3 6.6-3 1.5-7.9 3.4-10.9 4.3-3 0.9-6.6 1.6-8 1.6-1.4 0-4.5-0.7-7-1.5-2.5-0.8-6.2-3-8.2-4.8-2.1-1.7-3.7-3.7-3.7-4.2 0-0.5-1.2-1.6-2.6-2.2-1.9-1-3-2.9-6.5-15.3h-4.5c-2.7 0-4.6-0.5-4.9-1.2-0.2-0.7 0.3-3.3 1.1-5.8 0.7-2.5 1.9-5.1 2.6-5.8 0.8-0.9 4.4-1.3 12-1.2 9 0 10.9-0.3 12.2-1.7 0.9-1 3-3.8 4.8-6.3 2.3-3.2 4.1-4.6 8.7-5l-2.5-4.2c-1.3-2.4-2.5-5.5-2.5-9.8l-28.3 0.5-0.4 4.5c-0.2 2.5-0.5 5.5-1.3 9h-24c-20.4 0-24.1 0.2-24.5 1.5-0.3 0.8-0.5 3.3-0.5 5.5q0 4-2 6c-1.1 1.1-2.9 4.6-4 7.8-1.1 3.1-2 6.5-2 7.5 0 0.9-3 4.3-6.7 7.5-4 3.4-8.2 6.2-10.3 6.6-1.9 0.4-4.8 0.5-6.5 0.2-1.7-0.3-3.9-1.6-5.1-2.8-1.2-1.3-2.8-4.4-3.8-7-1.4-4.2-1.4-4.9-0.1-5.3 1.1-0.4 1.3-1.4 0.8-4.2-0.3-2.1-1.2-5.2-2-6.8-0.8-1.6-2.1-4.2-2.9-5.7-0.8-1.6-2.1-2.8-2.9-2.8-0.8 0-2.8 1.4-4.5 3-1.7 1.6-3 4-3 5.3 0 1.2-0.7 3.6-1.5 5.2-0.9 1.6-1.5 3.6-1.5 4.3 0 0.6-0.7 1.2-1.5 1.2-1 0-1.7 1.4-2.1 4.3-0.3 2.3-1 5.7-1.5 7.5-0.5 1.7-1.5 3.2-2.1 3.2-0.7 0-1.6 1.7-2 3.7-0.4 2.1-0.8 5-0.8 6.6 0 2.2 0.5 2.7 2.7 3 2.7 0.2 2.8 0.4 3 7.2 0.1 3.9 0.3 12 0.4 18 0.1 6-0.1 12.2-1.1 16.5l-20.5 0.5-1 13-14.5 0.5v13h8.5c8 0 8.5 0.1 9 2.3 0.2 1.2 0.6 4 1 10.2l13.5 0.5v7.5c0 7.3 0.1 7.5 2.5 7.5 1.7 0 2.7 0.7 3.2 2.3 0.3 1.2 0.6 9.6 0.6 18.7 0 9.1-0.3 17.5-0.6 18.8-0.5 1.6-1.5 2.2-6.7 2.2l-0.5 13.5-8.5 0.5-0.2 7.3c-0.1 3.9-0.2 8.8-0.1 10.7 0.1 2.1 1 4.3 2.3 5.5 1.1 1.1 4.9 2.9 8.3 4.1 3.4 1.2 9.1 3.2 12.6 4.5 6 2.3 6.3 2.5 5.7 5.2-0.4 2-0.2 2.7 0.9 2.7 0.8 0 1.7 0.9 2 2 0.3 1.1 0.2 3-0.1 4.3-0.4 1.2-1.2 2.5-1.8 2.9-0.6 0.4-3.3 0.8-6.1 0.8-2.7 0-6.8-0.5-9-1-2.9-0.6-5.8-0.5-10.5 0.6-3.6 0.9-11.7 3.3-18 5.4-6.3 2.1-16.7 5.4-23 7.3-6.3 1.9-13.6 4-16.2 4.6-2.7 0.6-6.5 1.1-8.5 1.1-2.1 0-5.4-0.5-7.3-1-1.9-0.6-3.8-1.6-4.1-2.3-0.4-0.6-0.3-2.8 0.2-4.7 0.5-1.9 0.8-4.9 0.8-6.5 0-1.6 0.8-3.7 1.7-4.5 1.4-1.3 2.1-1.3 6.3 0.2 2.5 1 5.3 1.8 6.1 1.8 0.8 0.1 3.2-1.7 5.3-4 2-2.2 4.2-5.7 4.8-7.7 0.6-2.1 1.4-5.4 1.9-7.3 0.6-2.4 0.4-3.8-0.4-4.5-0.7-0.6-1.5-5.8-1.9-13.2-0.4-6.8-0.5-12.8-0.2-13.3 0.3-0.5-0.4-1-1.5-1-1.1 0-2.2-0.7-2.5-1.5-0.3-0.8-0.5-3.4-0.5-5.7 0-2.4 0.6-5.2 1.5-6.3 0.8-1.2 1.4-4.2 1.5-7.2 0-3.4-0.5-5.8-1.5-6.8-1-1-1.5-3.6-1.5-8 0-5.8-0.2-6.5-2-6.5-1.1 0-2.2-0.7-2.5-1.5-0.3-0.8-0.5-3.7-0.5-6.5 0-4.9-0.1-5-3-5-1.8 0-3.2-0.6-3.5-1.5-0.3-0.8-0.5-4.2-0.5-13.5h-3.5c-2.2 0-3.7-0.5-4-1.5-0.3-0.8-0.5-3.7-0.5-11.5h-8v-14h7v-15h24v-13h21.5l-0.2-14c-0.3-13.9-0.3-14 2-14 2.2 0 2.2-0.1 1.5-8.2-0.5-4.6-0.8-11.6-0.8-15.5 0-6.5-0.2-7.2-1.7-6.8-1 0.2-7.4 0.1-14.3-0.4-6.9-0.5-15.9-1.6-20-2.5-4.1-0.8-12.4-3.6-18.5-6.2-6-2.6-13.5-6.3-16.5-8.2-3-1.9-8.2-6-11.5-9-3.3-3.1-8.2-8.3-10.9-11.6-2.6-3.4-6.2-8.8-7.8-12.1-1.6-3.3-3.3-6.5-3.8-7-0.4-0.5-2.2-5.5-3.8-11-1.7-5.5-3.8-12-4.7-14.5-0.9-2.5-2.2-7.4-3-11-0.7-3.6-1.8-12.8-2.5-20.5-0.6-7.7-1.2-21.4-1.2-30.5-0.1-11.2 0.5-19.6 1.6-26 0.9-5.2 3.3-14.6 5.4-20.9 2.4-7.6 4.4-11.9 5.7-12.7 1.1-0.7 3.7-3.7 5.8-6.8 2-3.1 4.8-6 6.2-6.6 1.4-0.5 4.9-3.3 7.8-6 2.8-2.8 7-6.3 9.2-7.7 2.2-1.5 6.3-4.8 9-7.3 2.8-2.6 6.3-5.5 8-6.5 1.7-1.1 6.6-5.1 11-9 4.4-3.9 10-8.6 12.5-10.6 2.5-2 5.5-4.1 6.8-4.7 1.4-0.8 5-1 10.5-0.6 4.5 0.4 10.2 1.2 12.7 2 4.1 1.2 4.9 1.1 9-0.7 2.5-1.1 5.1-1.9 5.8-1.9 0.6 0 7.4-3.2 15-7.1 10.5-5.5 14.6-7.1 17.7-7.1 2.2 0.1 5.3 0.6 7 1.2 1.7 0.6 4.3 2.3 5.8 3.8 1.5 1.5 4.7 5.6 7 9.2 2.3 3.6 5.9 8.5 8 11 2.1 2.5 5 6.5 6.5 9 1.4 2.5 4.2 6.7 6.2 9.4 1.9 2.7 5.5 7 8 9.6 2.5 2.5 5.4 6.4 6.4 8.6 1 2.1 2.4 4.2 3 4.6 0.6 0.4 2.2 0.8 3.6 0.7 2 0 2.9 0.9 4.8 5.1 1.2 2.7 3.4 6.2 5 7.8 1.5 1.5 3.3 4.8 4.1 7.2 0.7 2.5 2 6.1 2.9 8 0.9 2.2 1.4 6.5 1.4 11.5-0.1 4.4-0.6 9.6-1.2 11.5-0.6 1.9-2.7 5.5-4.8 7.9-2 2.5-5.2 5-6.9 5.8-1.8 0.7-10.2 2.7-18.5 4.4-8.4 1.6-18.9 3.6-23.3 4.4-4.4 0.7-18.3 1.8-31 2.5-12.7 0.6-38.1 1.5-56.5 2-18.4 0.5-33.6 1.1-33.7 1.2-0.1 0.2 0.3 8.2 0.8 17.8 0.5 9.6 1.4 19.5 1.9 22 0.5 2.5 1.8 7.6 3 11.5 1.1 3.9 2.5 7.2 3 7.5 0.5 0.3 1.9 3 3 6 1.2 3 5.1 9.9 8.8 15.4 3.7 5.4 8.8 11.7 11.3 14 2.5 2.2 7.7 5.6 11.5 7.5 3.8 1.8 7.8 3.8 8.9 4.3 1.4 0.7 4 0.5 9-0.7 3.8-0.9 8.6-2.6 10.5-3.7 1.9-1.2 6.7-5.3 10.6-9.2 4-3.9 9.1-8.8 11.5-10.9 2.4-2.1 4.9-3.6 5.4-3.4 0.6 0.2 1.1 2 1.3 4 0.1 2.7-0.2 3.7-1.3 3.7-1.2 0-1.5 1.4-1.5 7 0 4-0.4 7-1 7-0.5 0-1 0.9-1 2 0 1.9 0.1 2 4.6 0.4 2.6-0.9 5.3-2.6 6-3.7 0.8-1.2 1.4-2.8 1.4-3.4 0-0.7 0.8-3.1 1.8-5.3 1.2-2.8 2.3-4 3.7-4 1.2 0 4.9-2.9 9-6.9 5.2-5.2 7.7-7 9.8-7.1 2 0 3.2-0.9 4.7-3.2 1.1-1.8 3.9-7.2 6.2-12 2.4-4.8 4.9-8.7 5.6-8.8 0.6 0 3.9 1.4 7.2 3 3.3 1.6 6.3 3.8 6.7 4.8 0.3 0.9 0.1 2.4-0.6 3.2-0.6 0.8-1.5 2.4-2 3.5-0.5 1.1-2 4.4-3.5 7.3-1.4 2.8-2.3 5.4-1.8 5.7 0.4 0.3 1.9 0.5 3.5 0.5 1.5 0 4.4 0.7 6.5 1.5 2 0.8 6.6 2.1 10.2 3 4 0.9 11.5 1.5 19.5 1.5 8.3 0 15-0.6 18.5-1.5 3-0.8 8.2-1.5 11.5-1.5 3.3 0 7.6 0.4 9.5 1 1.9 0.5 3.6 0.8 3.7 0.7 0.2-0.1 1.2-13 2.3-28.7 1.1-15.7 2.5-30.7 3.2-33.5 0.6-2.8 1.5-18.6 1.8-35.5 0.5-19.2 1.4-34.8 2.4-42 0.9-6.3 2.1-14 2.6-17 0.5-3 1-7.5 1-10 0-2.5 0.6-5.4 1.5-6.5 0.8-1.2 1.5-4.3 1.5-13l-13.2-3.7c-7.3-2-17.8-4.9-23.3-6.4-5.5-1.5-10.1-3.1-10.2-3.6-0.2-0.4-1.6-0.8-3.3-0.8q-3 0-3.5-1.7c-0.3-1-0.2-4 0.2-6.6 0.7-4.4 0.6-4.8-1.5-5.5-1.3-0.4-2.5-1.4-2.7-2.2-0.2-0.8 0-3.3 0.5-5.5 0.5-2.2 1.5-4.3 2.2-4.7 0.7-0.4 3.6-0.4 6.3-0.2 2.8 0.3 7.7 1.2 11 2 3.3 0.8 7.1 2.1 8.5 2.8 1.4 0.8 5.7 3.1 9.5 5.1 3.8 2.1 7.9 4.6 9 5.6 1.1 1 3.1 2.2 4.5 2.7 1.4 0.5 4.8 1.3 12.5 2.3l0.8-4.3c0.4-2.4 1.5-10.6 2.3-18.3 0.9-7.7 1.8-20 2-27.2 0.4-12.8 0.3-13.3-1.6-13.3-1.1 0-2.4-0.9-3-2-0.5-1.1-1-7.2-1-13.5 0-10.5 0.2-11.6 2-12.5 1.1-0.5 5.6-1 10-1 7.4 0 8.1-0.2 9.8-2.5 0.9-1.4 3.4-4.7 5.4-7.3 2.1-2.6 5-7.7 6.5-11.5 1.5-3.7 3-6.7 3.3-6.7 0.3 0 1.3-2.1 2.2-4.7 1-2.7 2.5-5.8 3.3-7 0.9-1.3 2-2.3 2.5-2.3zm-232 146.5c-1.9 1-4.6 2.5-6 3.5-1.4 0.9-6.3 2.9-11 4.4-4.7 1.6-10.1 3.6-12 4.6-1.9 1-4.5 2.9-5.7 4.2-1.3 1.2-5.6 8.8-9.6 16.8-6.2 12.1-7.8 14.5-9.8 14.8-2 0.2-2.8 1.3-4.6 7.2l-2.3 7c-8.4 0.5-8.5 0.5-9.2 5-0.4 2.5-1 5.5-1.3 6.8-0.3 1.2-1.2 2.2-2 2.2-1.2 0-1.5 1.4-1.5 6.3-0.1 3.9 0.4 6.6 1.2 7.3 0.9 0.8 10.4 0.9 34.8 0.3 18.4-0.4 36.4-1.1 40-1.4 3.6-0.4 9-1.1 12-1.7 3-0.6 7.1-1.8 9-2.8 1.9-1 4-2.8 4.6-4.1 0.7-1.3 1.4-4 1.8-5.9 0.3-1.9 0.8-13.2 1.1-25 0.3-12.7 0.1-23-0.5-25.2q-1-3.8 0-4.3c0.6-0.3 0.7-1.7 0.4-3.2-0.4-1.6-2.6-6.8-4.9-11.8-3.1-6.6-4.9-9.2-6.6-9.7-1.3-0.4-2.8-0.8-3.4-0.8-0.5 0.1-3.2 0.9-6 1.9-2.7 1-6.6 2.6-8.5 3.6zm280.5 198.5c-0.3 0.5-2.8 1-5.7 1h-5.2c-3.7 11.2-5 15.9-5.3 17.5-0.3 1.6-0.3 4.2 0.1 5.8l0.6 2.7c9.1-4.3 13.3-6.9 15.2-8.5 1.8-1.6 4.8-5.7 6.6-9 1.8-3.3 3.2-7 3.2-8.2 0-1.3 0.3-3.4 0.8-4.8 0.4-1.4 0.5-2.5 0.2-2.5-0.3 0.1-2.6 1.2-5.2 2.5-2.7 1.4-5 3-5.3 3.5zm26 96.5c-2.3 1.4-5.5 2.5-7.5 2.4-1.9 0-4.6 0.9-6 1.9-1.4 1-6.7 3.9-11.7 6.5l-9.3 4.7h-23c-15.7 8.1-20.7 11.1-21.4 11.8-0.9 1-0.5 1.3 1.7 1.2 2.2 0 2.7 0.4 2.7 2.5 0 1.4-0.4 2.7-1 3-0.5 0.3-2.1 2.3-3.5 4.5-2.1 3.4-2.3 4.3-1.2 5.9 1 1.7 0.8 2.5-1.8 6.2-1.7 2.3-3.9 4.8-5 5.5-1.1 0.8-3.5 1.4-5.2 1.4-3 0-3.4 0.4-4.9 4.8-0.9 2.6-2 5.7-2.5 7-0.5 1.2-1.2 5-1.6 8.5-0.3 3.4-1.1 6.5-1.7 6.9-0.6 0.4-3.9 0.8-7.3 0.8h-6.3c0 9.3-0.5 11.5-1.7 12.8-1.3 1.4-1.5 2.6-0.8 6.7 0.4 2.8 0.9 6.6 1.1 8.5 0.2 1.9 1 5.4 1.9 7.8 1.1 3.2 2 4.2 3.8 4.2 1.2 0 2.7 0.4 3.4 0.8 0.7 0.4 2 2.3 3.1 4.2 1 1.9 2.4 4.6 3.2 6 0.7 1.4 1.6 3.2 2 4 0.4 0.8 2.4 2.5 4.6 3.8 3 1.7 5 2.2 8.9 1.9 2.8-0.2 9.3-1.6 14.5-3.1 5.2-1.5 13.8-3.1 19-3.5 5.4-0.5 11-1.6 13-2.6 3.3-1.7 3.9-1.7 11.5 0 4.4 1 11.6 1.8 16 1.8 5.9 0.1 8.9-0.4 11.5-1.8 1.9-1 5.3-3.2 7.5-4.9q4-3.2 9-3.9c3.9-0.5 5.7-1.4 8-3.9 1.7-1.8 4-4.8 5.3-6.5 2.2-3.3 2.2-3.3 0.2-4.8-1.6-1.2-1.9-2.2-1.4-4.7 0.4-1.8 1.4-4.8 2.3-6.6 0.9-1.8 2.7-3.8 4-4.5 1.3-0.7 3.2-3.2 4.2-5.7 1.2-3 1.8-7.2 1.8-12.7l0.1-8.3c-62.4 0-67.1-0.2-67.5-1.5-0.3-0.8-0.5-3.7-0.5-6.5v-5c-7.2 0-9.6-0.6-10.5-1.5-0.9-0.9-1.5-3.3-1.5-6 0-2.7 0.6-5.1 1.5-6 1-1 1.5-3.4 1.5-7 0-3 0.2-6.2 0.5-7 0.4-1.2 2.7-1.5 12-1.5h11.5c0-7.7 0.2-10.7 0.5-11.5 0.4-1.2 2.3-1.5 8.5-1.5h8c0-9.2 0.5-11.5 1.6-12.5 1.1-1.1 3.8-1.5 9.5-1.5h7.9c0-10.1-0.1-13-0.2-13-0.2 0-4.3 2-9.3 4.5-4.9 2.5-10.8 5.7-13 7zm-704.5-438.4c0.8 0 5.8 1.3 11 3.1 5.2 1.7 11.8 4.6 14.5 6.3 2.8 1.8 6.7 3.8 8.8 4.4 2.4 0.7 5 2.7 7.5 5.6 2 2.5 4.5 6.9 5.5 9.8 1 2.9 2 8.1 2.3 11.7 0.3 3.6 0 7.7-0.6 9.2-0.5 1.6-1.7 2.8-2.5 2.8-0.8 0-2.1 1-2.8 2.2-0.8 1.3-3.6 3.8-6.3 5.6-2.7 1.8-8.1 4.2-11.9 5.3-3.8 1.2-9.8 3-13.2 4-3.5 1-9 1.9-12.3 1.9q-6 0-12.7-2.6c-3.8-1.4-7.9-3.5-9.1-4.7-1.3-1.2-3.3-4-4.4-6.2-1.1-2.2-2.9-4.7-3.9-5.5-1.1-0.9-2.3-3.8-2.9-7-0.6-3-1-7.8-1-10.5 0-2.8 1-7.4 2.3-10.5 1.2-3 3.7-7.8 5.5-10.5 1.7-2.8 4.4-5.9 5.9-7.1 1.6-1.1 4.4-2.9 6.3-3.9 1.9-1 5.5-2.1 8-2.5 2.5-0.4 5.2-0.8 6-0.9zm-410.7 11c0.4 0 1.3 0.5 2 1.2q1.2 1.4 1.1 10.3c-0.1 4.9-0.5 28.5-0.9 52.4-0.5 31.8-1 44-1.9 45.5-0.8 1.2-3.7 2.7-7.4 3.7-5 1.5-6.5 1.6-7.7 0.5-0.9-0.6-1.8-2.6-2-4.2-0.3-1.6-1.2-7.3-2-12.5-0.8-5.2-2.2-12.6-3.1-16.5-0.9-3.9-2.2-9.9-3-13.5-0.9-3.6-3.1-10.6-5.1-15.5-2-4.9-4.4-10.4-5.4-12-1-1.6-3.4-4.2-5.4-5.8-1.9-1.5-4.7-3.2-6.2-3.8-1.6-0.5-7.7-1.7-13.8-2.5-7.1-0.9-20-1.4-62-1.4l0.2 23.7c0.2 13.1 0.5 79.8 0.7 148.3 0.2 84.8 0.7 128.6 1.5 137.5 0.7 7.1 1.6 14.5 2.1 16.2 0.6 1.8 2.4 4.2 4 5.3 1.9 1.2 6.7 2.5 12.8 3.4 5.3 0.8 16.2 2 24.2 2.6 8 0.7 15.1 1.7 15.8 2.4 0.8 0.7 1.3 3.4 1.2 7.3 0 4.9-0.4 6.7-2 8.3-1.9 1.9-2.9 2-24.2 1.4-12.3-0.4-38.3-0.7-57.8-0.8-19.5-0.1-50.6 0.2-69 0.7-21.6 0.5-34 0.4-35-0.3-0.9-0.6-1.7-3.3-2.1-7.2-0.3-3.5-0.4-6.8-0.3-7.3 0.2-0.5 1.1-1.4 2.1-1.9 1-0.4 7.4-1.4 14.3-2.1 6.9-0.8 17.2-1.9 23-2.5 5.8-0.7 12-1.9 13.9-2.8 1.9-1 4.1-2.8 5-4.2 1-1.7 1.9-7.6 2.8-18.5 0.8-11.5 1.2-57 1.2-162.8 0.1-116.7-0.2-146.7-1.1-146.7-0.7 0-12.1 0.5-25.3 1-13.2 0.5-27.8 1.6-32.5 2.5-4.7 0.8-11.2 2.8-14.5 4.3-3.3 1.6-7.3 4.3-9 6-1.6 1.7-4 5.1-5.2 7.4-1.2 2.4-3.8 7.9-5.7 12.3-1.9 4.4-5.1 12.5-7.1 18-1.9 5.5-4.7 14.3-6.1 19.5-1.4 5.2-3.5 12.4-4.7 15.9-1.2 3.5-2.6 6.6-3.2 6.8-0.5 0.3-3.5-0.1-6.5-0.8-3-0.7-6.2-2-7.1-2.8-1.4-1.4-1.5-2.5-0.3-10.1 0.7-4.7 2.3-17.1 3.4-27.5 1.2-10.5 2.7-24.4 3.5-31 0.8-6.6 1.9-17.9 2.5-25 0.7-7.1 1.6-14.4 2-16 0.5-1.6 1.6-3.3 2.4-3.8 0.9-0.4 5.3 0 9.9 0.8 4.5 0.9 18.3 2 30.7 2.6 14.3 0.7 52 0.9 104 0.5 44.8-0.3 83.3-0.5 85.5-0.5 2.2 0 15-0.7 28.5-1.6 13.5-0.9 28.8-2.2 34-2.9 5.2-0.7 9.8-1.4 10.3-1.5zm442.2 111c1.1-0.1 2.5 0.4 3.1 1.1 0.8 0.9 1 7.9 0.7 23.8-0.3 12.4-0.6 30.6-0.6 40.5-0.1 9.9-0.1 27-0.1 38 0 11 0 45 0 75.5-0.1 53.1 0 55.7 1.9 60.4 1.3 3.2 3.1 5.6 5 6.7 1.7 1 7.1 2.3 12 2.9 5 0.6 10.6 1.4 16 2.5l0.3 7.7c0.1 5.9-0.2 8.2-1.3 9.3-1.3 1.3-5.1 1.4-26.2 1-13.7-0.3-26.8-0.8-29.3-1-2.5-0.3-17.5-0.1-33.5 0.5-15.9 0.5-32.2 1.2-43 2.2l2.5 2.3c1.4 1.3 7.2 4 13 6 5.8 1.9 13 4.3 16 5.1 3 0.8 8.8 3 12.9 4.7 5.9 2.5 8.2 4.1 10.8 7.7 1.9 2.5 3.3 5.6 3.3 7 0 1.5 1 3.5 2.6 5 1.4 1.4 3.2 3.7 4 5.2 0.8 1.6 1.2 3.1 0.9 3.5-0.2 0.5 0.6 3.7 1.8 7.2 1.3 3.9 2.9 6.7 4 7 1.1 0.4 2.1 2.3 2.8 5.6 0.5 2.7 1.6 5.6 2.2 6.3 0.7 0.7 2 1.3 3 1.2 1 0 1.9 0.9 2.1 2.2 0.3 1.3 0.7 3.9 0.9 5.8 0.3 1.9 0.1 6.9-0.3 11-0.4 4.4-1.9 10.2-3.5 14-1.5 3.6-3.7 7.6-4.9 8.8-1.1 1.3-3.8 3.3-5.8 4.3-2.1 1-8.6 3.3-14.5 5-6 1.7-13 3.6-15.8 4.4-2.7 0.7-6.8 1.6-9 2-2.2 0.4-6.6 2-9.7 3.6-3.2 1.6-6.4 2.9-7 2.9-0.7 0-5.1 1.8-9.8 3.9-4.7 2.1-11.9 4.8-16 5.9-4.1 1.1-11.8 2.9-17 4.1-8.7 2-10.6 2.1-22 1.2-6.9-0.5-15.5-1.8-19.2-2.8-3.7-1-7.1-1.4-7.5-1-0.4 0.5-0.7 6.3-0.6 13 0.1 7.9 0.7 13.8 1.7 16.7 1 3 1.2 5.1 0.5 6.2-0.6 1.3-0.3 3.5 1.1 7.3 1.6 4.5 1.8 5.8 0.8 7-1.1 1.3-0.7 2.5 2 6.8 2.7 4.2 3.2 5.5 2.3 6.9-0.9 1.5-0.4 2.6 2.6 6 2 2.4 4 5.4 4.5 6.8 0.5 1.4 2.7 3.6 5.1 4.9 2.3 1.3 7.2 3.5 11 4.8 3.7 1.2 10.2 2.8 14.5 3.5 6 0.9 11 0.9 22.5 0 8.1-0.7 15.5-1.6 16.5-2.1 0.9-0.5 4-1.7 6.7-2.7 2.8-1 7-3.2 9.5-5 2.5-1.7 5.4-3.4 6.5-3.7 1.1-0.3 4-3 6.5-5.9 2.5-3 6.4-9.2 8.7-13.8 2.3-4.7 4.9-11.6 5.9-15.5 1-3.9 2.4-8 3.1-9.3 0.7-1.2 2.1-2.2 3.1-2.2 0.9 0 3.2 0.9 5 2 1.7 1.1 3.9 3 4.7 4.2 1.1 1.8 1.2 3.1 0.4 5.8-0.5 1.9-1.4 5.5-1.8 8-0.5 2.5-1.6 6.7-2.6 9.5-1 2.7-2.4 6.8-3.1 9-0.7 2.2-5.1 8.5-9.6 13.9-6 7.2-9.1 10.2-11.3 10.7-1.7 0.4-5.2 2.8-8 5.2-2.7 2.5-7.7 6-11 7.9-3.3 1.9-10.9 5.5-17 8-6 2.5-15 5.6-20 6.8-8.2 2-10.6 2.2-27 1.7-9.9-0.3-22.5-1.3-28-2.2-5.5-0.9-15.4-3.2-22-5.2-6.6-2-13.1-4.1-14.5-4.8-1.4-0.7-3.2-2.1-4-3-0.8-1-3.7-3.5-6.5-5.5-2.7-2-5.9-5.4-7-7.6-1.1-2.1-3.6-5.9-5.5-8.4-1.9-2.5-5.2-7.7-7.2-11.7-2.1-4-3.7-8.3-3.7-9.6 0.1-1.2-0.6-4-1.6-6.2-1-2.2-1.7-5.6-1.7-7.5 0.1-1.9-1-7.8-2.5-13-2.4-8.9-2.6-10.8-2.4-29 0.1-12.2 0.9-25.5 2.1-35.5 1.1-8.8 2.9-19.1 3.9-23 1.1-3.9 2.6-9.3 3.4-12 0.8-2.8 2.4-8.6 3.6-13 1.3-4.4 2.9-9.1 3.7-10.5 0.7-1.4 1.1-2.8 0.9-3.3-0.3-0.4 0.8-3.1 2.3-6 1.9-3.3 2.7-6.1 2.4-7.7-0.4-1.8 0.5-4 3-7.5 1.9-2.8 3.7-6.1 4-7.5 0.4-1.4 3.9-6 8-10.4 4.3-4.6 10.8-10.2 15.8-13.4 4.9-3.2 12.8-7.2 18.5-9.3 5.5-2 12.7-4.4 16-5.2 3.3-0.8 10.5-2.1 16-2.7 7.5-0.9 12.5-1 20-0.2 5.5 0.6 12.7 2 16 3 3.3 1.1 6.8 2.2 7.8 2.6 1.5 0.5 1.7-0.1 1.7-5.9 0-5.2 0.4-6.9 2-8.5 1.4-1.4 3.3-2 6.8-2 2.6 0 7.6-0.5 11.2-1.1 3.6-0.6 8.4-1.9 10.8-3 2.5-1.1 4.8-3.1 5.7-4.9 1.1-2.2 1.7-8.2 2.1-23.3 0.3-11.1 1-21.6 1.5-23.2 0.5-1.7 1.1-37.5 1.3-80 0.3-64.4 0.2-77.5-1-80.3-1.1-2.6-2.1-3.3-5.1-3.8-2.1-0.4-7.2-0.3-11.3 0.1-4.1 0.4-8.5 1.1-9.7 1.6-1.7 0.7-2.7 0.5-3.9-0.9-1.3-1.4-1.5-2.8-0.9-7.7 0.4-3.3 1-6.7 1.5-7.5 0.4-0.8 2-2 3.6-2.7 1.6-0.6 6.3-1.8 10.4-2.7 4.1-0.8 12.7-2.2 19-3 6.3-0.9 14.9-2 19-2.6 4.1-0.5 13.3-2 20.5-3.3 7.2-1.3 13.9-2.5 15-2.6zm-154.2 284.7c-2.4 1.2-7.4 5.2-11.2 8.9-5.5 5.4-7.7 8.5-10.8 15.1-3.2 7.1-3.6 8.5-2.3 9.2 1.2 0.7 1.3 1.8 0.6 5.7-0.4 2.6-1 11.4-1.2 19.5-0.2 8.2-0.6 15.3-0.9 15.8-0.3 0.5 0.1 1.2 0.8 1.4 0.9 0.3 1 1.9 0.5 6.2-0.3 3.3-0.7 8.9-0.7 12.6-0.1 3.9 0.3 6.8 0.9 6.8 0.5 0 1.2 0.8 1.5 1.7 0.4 1.5 2.2 1.9 11.2 2.5 6 0.4 15.5 0.3 21.3-0.3 5.8-0.5 15.7-1.9 22-3 6.3-1.2 15.2-3 19.8-4 4.5-1 10.7-3 13.7-4.4 3-1.4 5.5-3 5.5-3.5 0-0.5-0.7-1-1.5-1-0.8 0-1.7-0.6-2-1.3-0.3-0.6 0.3-3.2 1.4-5.7 1-2.5 1.7-5.1 1.5-5.8-0.2-0.6-1.6-1.3-3.1-1.5-2.5-0.2-2.8-0.6-2.9-3.7 0-1.9-0.1-5-0.2-6.8-0.1-2.1-0.7-3.2-1.7-3.2-0.8 0-1.7-0.6-1.9-1.3-0.2-0.6-0.6-3.8-1-7-0.4-4.1-1-5.7-2.1-5.7-0.8 0-1.9-1.4-2.4-3.3-0.5-1.7-2.1-7.7-3.6-13.2-1.5-5.5-3.2-10.5-3.9-11-0.6-0.6-1.7-1.9-2.3-3-0.7-1.1-2.2-3.7-3.3-5.8-1.1-2-3.7-5.6-5.7-7.8-2.1-2.3-5-4.8-6.5-5.5-1.6-0.8-5.6-1.6-9-1.9-3.5-0.2-8.5 0.2-11.3 0.9-2.7 0.7-6.9 2.3-9.2 3.4zm-111.8-279.6c0.5-0.1 7.3 0.3 15 0.8 7.7 0.5 18.5 1.8 24 3 5.5 1.2 13.8 3.4 18.5 5 4.7 1.5 10.5 3.7 13 5 2.5 1.2 8.5 5.1 13.5 8.5 5 3.4 10.8 8 13.1 10.1 2.2 2.2 6.9 7.5 10.5 11.9 3.5 4.4 7.3 9.4 8.5 11 1.2 1.7 3.7 6.1 5.6 10 1.9 3.9 5.1 11.7 7.1 17.5 1.9 5.8 4.2 15 5.1 20.5 0.9 5.9 1.6 16.1 1.6 24.8 0 8.1-0.4 16.6-0.9 19-0.6 2.3-1.5 7.1-2 10.7-0.6 3.6-1.8 9.9-2.6 14-0.8 4.1-3 11.8-4.7 17-1.7 5.2-5.2 13.1-7.7 17.5-2.5 4.4-5.9 9.9-7.6 12.3-1.7 2.4-6.2 8-10.2 12.5-3.9 4.5-9.3 9.9-12 11.9-2.6 2-6.8 5.2-9.3 7.1-2.5 1.8-6.7 4.5-9.5 6-2.7 1.4-7.5 3.7-10.5 5.1-3 1.4-10.7 3.8-17 5.5-6.3 1.6-16.6 3.7-22.7 4.5-6.2 0.9-15.5 1.6-20.5 1.6-5.2 0-16.1-1.1-24.8-2.6-8.5-1.4-19.4-3.9-24.2-5.5-4.9-1.6-12.1-4.5-16-6.5-4-2-10.6-6-14.7-8.8-4.1-2.8-11.1-9-15.5-13.7-4.5-4.7-10.6-12.8-13.8-18-3.2-5.2-7.3-13.4-9.2-18.4-1.9-5-4.3-12.6-5.5-17-1.1-4.4-2.6-12-3.3-17-0.6-5-1.2-17.1-1.2-27 0-10 0.5-21.5 1.3-26 0.7-4.4 2.1-11.6 3.2-16 1.1-4.4 3.8-12 6-17 2.2-4.9 5.9-12.1 8.2-16 2.2-3.9 6.8-10.4 10.2-14.6 3.3-4.1 9.6-10.9 14-15 4.4-4.1 11.2-9.5 15-12 3.9-2.5 8.8-5.6 11-6.8 2.2-1.3 6.7-3.3 10-4.6 3.3-1.3 8.9-3.2 12.5-4.3 3.6-1.1 9.4-2.6 13-3.2 3.6-0.7 10.5-1.6 15.5-2 5-0.4 9.5-0.8 10-0.8zm-25 25.1c-1.7 0.8-5.2 3.2-8 5.4-2.7 2.2-6.8 6.6-9 9.9-2.2 3.2-4.5 6.3-5 6.9-0.6 0.5-2.3 4.4-3.9 8.5-1.6 4.1-3.5 8.9-4.3 10.5-0.7 1.6-2.3 7.5-3.4 13-1 5.5-2.4 16.1-3.1 23.5-0.8 10.1-0.8 19.6 0.1 37.5 0.6 13.2 1.8 28.4 2.6 33.8 0.8 5.3 1.9 11.4 2.4 13.5 0.6 2 2.2 8.2 3.6 13.7 1.4 5.5 4.5 13.7 6.8 18.3 2.3 4.6 6 10.5 8.2 13.2 2.2 2.7 7.2 7.1 11 9.7 3.9 2.7 10.3 5.9 14.5 7.3 6 1.9 9.6 2.4 18 2.5 8.1 0 12.1-0.5 17.5-2.2 3.8-1.2 9.9-4.1 13.4-6.5 4.1-2.8 8-6.5 10.7-10.3 2.3-3.3 5.9-10 7.9-15 2.1-5 4.8-13.7 6.1-19.5 1.4-5.8 2.9-12.7 3.5-15.5 0.5-2.7 1.4-8.4 1.9-12.5 0.6-4.1 1-18.7 1.1-32.5 0-13.7-0.5-29-1.1-34-0.6-5-1.7-11.2-2.4-14-0.8-2.7-2.5-9-3.7-14-1.2-4.9-2.8-9.7-3.5-10.5-0.7-0.8-2.5-4.6-4.1-8.5-1.5-3.9-5.3-10.2-8.3-14.2-3-3.9-8.2-9.2-11.5-11.8-3.3-2.6-7.2-5.3-8.7-6.1-1.6-0.8-6.3-2.3-10.5-3.4-4.4-1.1-10.9-1.9-14.8-1.9-3.8 0-10.2 0.9-14 1.9-3.8 0.9-8.3 2.4-10 3.3zm1139-11.2c3.3 0 8.7 0.3 12 0.8 3.3 0.5 9 2.3 12.6 4 4.1 1.9 8.2 3.1 10.8 3.1 2.3 0 5.3 0.8 6.9 1.8 1.5 1.1 4 4 5.7 6.5 2.8 4.4 3.3 4.7 7.3 4.7 3.9 0 4.2 0.2 4.7 3 0.3 1.6 0.9 3 1.5 3 0.6 0 1.3 1.8 2.5 8h4.8c3.5 0 4.9 0.4 5.4 1.8 0.5 0.9 0.8 4.1 0.8 12.2h8.8c7.4 0 8.8 0.3 9.3 1.8 0.4 1-0.2 2.7-1.4 4.2-1 1.4-3.2 3.4-4.7 4.5-1.6 1.2-4.8 2.1-7.8 2.4-4.9 0.3-5.4 0.1-8.4-3.3-1.9-2-3.3-4.7-3.3-6.1 0-2.3-0.3-2.5-5-2.5-3.6 0-5.1-0.4-5.5-1.5-0.3-0.8-0.5-4-0.5-12.5h-3.2c-1.8 0-3.9-0.5-4.6-1.2-0.7-0.7-1.2-2.4-1.2-3.8 0-1.4-0.3-4-1.5-9l-8-0.1c-7.5 0-8.2-0.2-11.2-2.9-1.8-1.7-4.8-3.7-6.5-4.6-2.8-1.4-4.1-1.5-8.8-0.5-3.4 0.7-6.8 2.2-12.5 7l13.3 0.1c9.6 0 13.3 0.3 13.6 1.3 0.2 0.6-0.2 3.8-2.4 12.7h8c5.5 0 8.1 0.4 8.4 1.3 0.1 0.6 0.1 4-0.4 13.7h-8v5.5c0 3-0.2 6.2-0.5 7-0.3 0.8-1.2 1.5-2 1.5-1.2 0-1.5 1.3-1.5 12h3.5c2.2 0 3.7 0.5 4 1.5 0.3 0.8 0.5 3.8 0.5 6.5 0 2.8-0.2 5.7-0.5 6.5-0.3 1-1.9 1.5-9.5 1.5v27h9v13h7v7c0 3.9 0.3 7.2 0.8 7.4 0.4 0.3 4.1 1 8.2 1.6 4.1 0.7 8.5 1.4 9.8 1.6 1.4 0.3 2.4 1.3 2.8 3.2 0.4 1.5-0.1 6.3-1.1 10.7-1 4.4-2.3 8.3-2.9 8.7-0.6 0.4-4.7 0.5-9.1 0.2-4.4-0.3-10.8-0.3-20.5 0.6v7.5c0 6.8 0.2 7.5 2 7.5 1.1 0 2.2 0.8 2.5 1.8 0.3 0.9 0.3 4-0.1 6.7-0.4 2.8-1 5.2-1.4 5.5-0.4 0.3-1.1 3.4-2.5 13.5l-18 0.6-0.7 12.9c-0.6 9.4-1.2 13.4-2.3 14.5q-1.5 1.5-1.5 7.5c0 4.7-0.3 6-1.5 6-1.2 0-1.5 1.4-1.5 7 0 6.3 0.2 7 2 7 1.2 0 2.2 0.9 2.6 2.3 0.3 1.2 0.4 4.2 0.2 6.7-0.3 4.5-0.3 4.5-4.3 4.9-2.2 0.2-4.6 1.1-5.4 2-1.1 1.2-1.3 2.8-0.7 6.1 0.3 2.5 1.2 4.8 1.9 5.2 0.7 0.4 8.3 0.8 17 0.8 14.7 0 15.8 0.1 16.7 2 0.6 1.1 1 4.3 1 12h43v-5c0-2.7 0.4-5.9 1-7 1-1.9 2-2 23.5-2 12.4 0 23.2-0.2 24-0.5 1.1-0.4 1.5-2.1 1.8-12l0.9 7c0.5 3.9 1 9.7 1.1 13 0.2 5.9 0.1 6-2.5 6.3-2.7 0.2-2.8 0.3-2.8 6.7 0 5.1-0.4 6.7-1.7 7.3-1.4 0.6-1.5 2.1-0.9 13.2 0.7 10.7 0.6 12.7-0.8 14.3-1 1-1.6 3.5-1.6 6.2 0 2.5-0.2 5.2-0.5 6-0.3 1-1.8 1.5-7.5 1.5v6c0 3.3-0.2 6.7-0.5 7.5-0.4 1.1-1.9 1.5-10.5 1.5v5c0 2.8-0.2 5.7-0.5 6.5-0.4 1.2-2.4 1.5-19 1.5l0.8 6c0.4 3.3 0.5 6.7 0.2 7.5-0.3 0.9-1.7 1.5-6.5 1.5l0.5 11.5 3.8 0.3c2.9 0.1 3.8 0.7 4.3 2.5 0.3 1.2 0.3 4.3-0.6 11.7h4.3c2.3 0 4.7-0.4 5.2-0.8 0.6-0.4 2.3-2.2 3.8-3.9 2.1-2.5 2.5-3.7 1.7-5-0.7-1.4-0.4-2.3 1.1-3.8 1.6-1.6 2.4-1.8 3.7-0.9 1.3 0.8 1.8 2.8 2.2 14.4h11v4.5c0 3.5-0.5 4.9-2.3 6.3-1.2 0.9-3.6 2.3-5.2 3-1.7 0.7-4.3 3.1-6 5.3-1.7 2.2-4.2 5.2-5.6 6.7-1.4 1.5-5 4.9-8 7.6-3 2.7-7.4 5.9-9.9 7.1-2.5 1.3-7.2 4.1-10.5 6.3-3.3 2.2-10 7.5-14.9 11.8-4.9 4.4-10.7 9.4-13 11.3-2.3 1.8-8.6 5.5-14.1 8.2-5.5 2.7-10.6 4.9-11.2 4.9-0.7 0-1.6-1-1.9-2.2-0.3-1.3-0.2-3.7 0.3-5.3 0.6-1.9 2.6-4.1 5.4-6 2.5-1.6 7.1-5.2 16-13l-0.6-5c-0.4-2.7-0.4-6-0.1-7.2 0.3-1.3 2.9-3.8 5.9-5.6 2.8-1.9 6.8-5.3 12.2-12.1l0.5-25.6h-2.5c-1.8 0-2.7-0.7-3-2.2-0.3-1.3-0.6-4.5-0.6-7.3 0-2.7 0-14.1 0.1-45.5h-6c-4.4 0-6.1-0.4-6.5-1.5-0.3-0.8-0.5-4.2-0.5-13.5h-22.5c-19.1 0-22.6-0.2-23-1.5-0.3-0.8-0.5-3.5-0.5-6 0-3.1-0.5-4.7-1.5-5-0.8-0.3-5.8-0.5-11-0.5-8.5 0-9.6-0.2-10.5-2-0.6-1.1-1-4.2-1-12l-9.5-0.5-0.3-5c-0.2-2.7-0.1-6 0.2-7.2 0.3-1.3 1.3-2.3 2.1-2.3 1.2 0 1.5-1.4 1.5-6.5 0-3.7 0.4-6.5 1-6.5 0.6 0 1-3 1-7 0-6.8 0.1-7 5-7v-12.5c0-6.9 0.2-13.2 0.5-14 0.3-0.8 1.4-1.5 2.5-1.5 1.8 0 2-0.7 2-14h12v-14h6v-6.5c0-5.8-0.2-6.5-2-6.5-1.8 0-2-0.7-2-7 0-5.6-0.3-7-1.5-7-0.8 0-1.8-1-2.1-2.2-0.3-1.3-0.4-4.3-0.2-6.8 0.3-4.4 0.4-4.5 7.8-5v-14h10v-11h-7c-5.6 0-7-0.3-7-1.5 0-0.8 0.7-1.5 1.5-1.5 0.8 0 1.7-0.7 2-1.5 0.3-0.8 0.5-4 0.5-7 0-4.3 0.5-6 2.3-8 1.2-1.4 4-3.1 6.2-3.8 3.2-1.1 4.1-2 4.5-4.3 0.5-2.8 0.8-2.9 12-3.4v-6.5c0-6.3-0.1-6.5-2.5-6.5-1.4 0-2.7-0.7-3-1.5-0.3-0.8-0.5-3.7-0.5-6.5 0-2.7-0.4-5-1-5-0.6 0-1-3.2-1-7.5 0-4.1 0.4-7.7 1-8 0.6-0.3 1-3.4 1-7 0-3.7 0.4-6.5 1-6.5 0.6 0 1-3 1-7 0-6.8-0.1-7-2.5-7-2.4 0-2.5-0.2-2.4-7.2 0-4 0.1-9.3 0-11.8 0-2.5 0.2-5.3 0.4-6.2 0.4-1.6-0.3-1.8-5.5-1.8-3.9 0-6.1-0.4-6.4-1.2-0.2-0.7 0.9-3.7 2.5-6.5 1.6-2.9 2.6-5.5 2.2-5.8-0.5-0.3-5.4-0.5-11-0.5-10 0-10.3-0.1-10.3-2.2 0-1.3 1.1-4.1 2.5-6.3 1.3-2.2 2.5-4.3 2.5-4.7 0-0.5-1.1-0.8-2.5-0.8-1.7 0-2.5-0.5-2.5-1.7 0-1 1.6-3.8 3.6-6.3 2.8-3.5 3.2-4.6 2-4.7-0.9-0.2-1.6-1.2-1.6-2.3 0-1.1 1-2.5 2.3-3.2 1.2-0.6 4-1.7 6.2-2.4 2.2-0.6 6.7-1.2 10-1.3zm138.8 52.9c0.4 0 1.4 0.7 2.2 1.5 0.8 0.8 1.5 3.1 1.5 5 0 1.9 0.5 3.6 1.1 3.8 0.8 0.1 1 2.3 0.5 7-0.6 6.3-0.7 6.7-3.1 6.7-2.4 0-2.5 0.3-2.5 6 0 3.3-0.2 6.7-0.5 7.5-0.4 1.1-2.1 1.5-12.5 1.5l-0.5 27.5-6.5 0.5 0.5 4.8c0.3 2.6 0.3 5.5 0 6.5-0.4 1.3-1.6 1.7-9.5 1.7v6.5c0 6 0.2 6.5 2.3 6.8 2 0.2 2.2 0.8 2.7 13.7h7c6.7 0 7 0.1 7.5 2.5 0.4 2.2 1.1 2.6 6.3 3 3.1 0.3 8.4 0.6 11.7 0.7 3.3 0.1 8.7-0.4 12-1.1 3.3-0.7 6.4-1.7 7-2.1 0.6-0.4 3.5-1.3 6.5-1.9 3-0.7 8.2-2.7 11.5-4.6 3.3-1.9 8.5-4.6 11.5-6.1 3-1.4 9.1-4.3 13.5-6.4 4.4-2.1 9.1-4.1 10.5-4.5 1.4-0.5 7-1.8 22.5-5.2l6.6 2.1c4 1.3 8.3 3.6 11 5.9 4.2 3.6 4.7 3.7 11.7 3.7 4.1 0 7.2 0.4 7.2 1 0 0.5 0.8 1 1.8 1 1.4 0 1.6 0.8 1.4 5.3-0.3 3.6 0 5.4 1 5.9 0.7 0.4 4.3 0.8 8.1 0.8 5.1 0 6.8 0.4 7.2 1.5 0.3 0.8 0.5 4 0.5 7 0 3 0.2 5.5 0.5 5.5 0.3 0 1.9-1 3.5-2.2 1.7-1.3 4.2-4 5.5-6 1.4-2.1 3.8-4.6 5.5-5.5 1.6-1 3.6-2.9 4.4-4.3 0.8-1.4 3.4-4.5 5.8-7 3-3.2 5.9-5.1 9.6-6.3 2.8-0.9 5.9-1.7 6.7-1.7 0.8 0 1.7 0.7 2 1.5 0.3 0.8 0.3 2 0 2.5-0.3 0.5-1.4 1-2.5 1-1.8 0-2 0.7-2 7 0 6.3 0.2 7 2 7 1.1 0 2.2 0.6 2.4 1.3 0.2 0.6 0.1 1.7-0.2 2.3-0.4 0.7-3.6 3.2-7.2 5.6-3.6 2.4-9.9 6.8-14 9.6-4.1 2.9-8.5 6-9.8 7-2.2 1.6-2.3 1.9-1.2 8.2 0.6 3.6 2.3 9.9 3.6 14 1.9 5.5 2.6 9.5 2.5 14.8-0.1 6.6 0.1 7.2 1.9 7.2 1.3 0 2.2 0.8 2.5 2.3 0.3 1.2 0.6 4.2 1 11.2l2.3-4.2c1.2-2.5 2.1-5.7 2-7.5-0.3-2.9 0.2-3.5 4.2-5.7 3.2-1.7 5.8-2.4 9-2.2 2.5 0.1 7.4-0.7 11-1.9 4.8-1.4 9.3-2 17.3-2 5.9 0 10.9-0.3 11.1-0.7 0.2-0.5 4.1-1.4 8.7-2.2 4.6-0.7 9.4-1 10.7-0.7 1.2 0.3 2.5 1.6 2.8 2.9 0.3 1.2 0.2 2.4-0.1 2.7-0.4 0.3-4.3 1.1-8.8 1.8-4.5 0.7-14.5 1.9-22.2 2.6-7.7 0.8-15.3 1.9-17 2.6-1.7 0.6-5.2 3.2-8 5.8-2.7 2.6-5.5 5.3-6.1 6.2-0.7 1-0.8 5.9-0.2 15.5 0.5 7.7 1 17.2 1.1 21 0.2 5.8 0.6 7.5 2.5 9.5 1.2 1.4 2.7 4.1 3.2 6 0.6 1.9 1 3.8 1 4.3 0 0.4 1.3 2.4 2.8 4.5 1.5 2 3.7 5.7 4.7 8.1 1.1 2.4 2.7 4.9 3.5 5.6 0.8 0.7 4.4 1.9 8 2.8 3.6 0.8 8.5 1.8 11 2.2 4 0.6 5.3 0.2 11.8-3.4 3.9-2.3 7.6-4.1 8.2-4.1 0.6 0 1-0.5 1-1 0-0.5 0.7-1 1.5-1 0.8 0 1.5 0.5 1.5 1 0 0.5 1.3 1 3 1 1.7 0 3.2 0.3 3.4 0.8 0.2 0.4-0.1 1.4-0.7 2.3-0.7 0.9-4.8 3.9-9.2 6.7-4.5 2.9-10.2 5.7-13 6.3-3.7 0.9-7.8 0.9-16 0-10.6-1.1-11.1-1.2-13.5-4.3-1.4-1.8-4-4.8-5.8-6.8-1.9-1.9-4.1-4.9-4.9-6.5-0.9-1.6-3.6-5.4-6-8.2-2.4-2.9-4.3-5.8-4.3-6.3 0-0.5-1.3 0.4-3 2-2.2 2.2-3.2 4.4-4.5 13.5h-19l-0.3-6c-0.2-3.5-1-6.5-1.8-7.2-1-0.9-1.3-3.2-0.9-13.8l24.5-0.5v-5c0-2.7 0.2-5.7 0.5-6.5 0.4-1.1-0.2-1.5-2-1.5-1.4 0-2.7-0.5-3-1-0.3-0.5-2.5-1-9.5-1v-5c0-3.1-0.6-5.6-1.5-6.5-1-1-3.4-1.5-6.7-1.5-3.1 0.1-5.8-0.5-6.5-1.2-0.7-0.7-1.6-3.5-2-6.1-0.6-3.6-1.3-4.9-2.8-5.3-1.1-0.3-9.7-0.3-36 0.1l-0.3 4c-0.1 2.2-0.5 5-0.7 6.3-0.5 2.1-0.9 2.2-24.5 2.2v6c0 3.3-0.2 6.7-0.5 7.5-0.4 1.1-1.9 1.5-10.5 1.5v6c0 4.4-0.4 6.1-1.5 6.5-1.2 0.4-1.5 2.2-1.5 15.5h-10v6.5c0 6.4 0.1 6.5 2.8 6.8 2.6 0.2 2.7 0.4 3.2 12.7h12c11.6 0 12 0.1 12.4 2.3 0.3 1.2 0.8 6.7 1.1 12.2 0.4 5.5 0.4 11 0.1 12.3-0.6 2-1.2 2.2-15.6 2.2v12.5c0 6.9-0.2 13.2-0.5 14-0.3 1-1.9 1.5-9.5 1.5l0.1 5.3c0 2.8 0 5.8 0 6.5-0.1 0.8-2.1 1.2-13.1 1.2l1.5 4.8c0.8 2.6 2.8 6.3 4.3 8.2 1.9 2.3 3.9 3.6 5.8 3.8 1.6 0.2 5.2-0.5 7.9-1.4 2.8-0.9 5.6-1.8 6.3-2 0.6-0.2 2.7-3.5 4.5-7.4 3-6.5 3.4-7 6.5-7 2.7 0 3.3-0.4 3.7-2.7 0.3-1.6 1-4.5 1.5-6.5 0.9-3.3 1.4-3.8 4-3.8 1.7 0 3.2-0.6 3.4-1.2 0.2-0.7 0.7-3.5 1.1-6.3 0.4-2.7 1.3-5.6 1.9-6.3 0.6-0.7 3-1.3 5.4-1.2 2.4 0 4.4 0.5 4.6 1.3 0.2 0.6 0.8 4 1.2 7.4 0.9 6.1 0.8 6.2-1.6 7.1-2 0.8-2.8 2.2-4 6.8-1.3 5.3-1.8 5.9-4.4 6.4-2.2 0.4-3.2 1.3-3.8 3.5-0.5 1.6-1.6 4.9-2.4 7.3-1.1 3.3-1.9 4.2-3.6 4.2-1.5-0.1-3.8 1.6-6.8 5.1-2.5 2.8-4.6 5.5-4.7 6-0.2 0.5 0.9 1 2.5 1.2 1.9 0.1 2.7 0.7 2.7 2.2 0 1.4-2.2 3.2-8.1 6.5-4.5 2.5-8.7 5.1-9.5 5.7-0.8 0.7-5 2.2-9.4 3.3-4.4 1.1-11.2 2.5-15 3-5 0.7-8 0.7-10.5-0.1-1.9-0.6-6.2-2.4-9.5-4-3.3-1.6-7.2-4.1-8.6-5.6-1.4-1.5-3.5-4.4-4.7-6.3-1.2-1.9-1.9-3.8-1.5-4.2 0.3-0.5 1.9-0.8 3.5-0.8 1.6 0 2.8-0.5 2.8-1.2 0-0.7-0.7-3.1-1.5-5.3-0.9-2.2-1.4-4.6-1.1-5.2 0.3-0.7 1.9-1.3 3.6-1.3 2.4 0 2.9-0.3 2.4-1.7-0.4-1-1.3-3.7-2-6-0.8-2.4-1.2-5-0.9-5.8 0.4-1.1 2.1-1.5 6.5-1.5 3.3 0 6-0.3 6-0.7 0-0.5-0.5-2.4-1.1-4.3-0.6-1.9-0.9-4.5-0.5-5.7 0.5-2 1.2-2.3 11.6-2.3v-6c0-3.3 0.2-6.7 0.5-7.5 0.3-1 1.8-1.5 8.5-1.5v-6c0-5.7-0.1-6-2.5-6-1.4 0-2.7-0.7-3-1.5-0.3-0.8-0.5-4-0.5-7 0-3-0.4-5.5-1-5.5-0.6 0-1-3-1-14h-6v-7c0-3.9-0.4-7.2-1-7.5-0.6-0.3-1-2.7-1-5.5 0-2.7 0.2-5.7 0.5-6.5 0.3-1 1.8-1.5 8.5-1.5v-14c0-11.8 0.2-14 1.5-14 1.2 0 1.6-1.5 2-13.5l8.5-0.5v-5.5c0-3 0.2-6.2 0.5-7 0.4-1.1 2.1-1.5 12.5-1.5v-5c0-2.7 0.2-5.7 0.5-6.5 0.4-1.2 2.6-1.5 10.8-1.5 9.3-0.1 10.4-0.3 12-2.3 1.1-1.4 1.7-3.8 1.7-6.4 0-2.9-0.5-4.5-1.5-4.8-0.8-0.3-13.7-0.5-28.5-0.5-26 0-27-0.1-28-2-0.6-1.1-1-4.2-1-12l-15.5-0.5-0.5-12.5h-24.5c-20.9 0-24.6-0.2-25-1.5-0.3-0.8-0.5-4.2-0.5-13.5h-9c-6.3 0-9.1-0.4-9.4-1.2-0.2-0.7-3-1.7-6.2-2.2-3.3-0.4-9-0.9-12.7-1-4.8-0.1-7-0.5-7.7-1.6-0.5-0.8-0.6-2.7-0.2-4.3 0.7-2.6 0.5-2.7-2.5-2.7-1.8 0-3.5-0.6-3.7-1.2-0.2-0.7-0.1-1.9 0.2-2.6 0.4-0.8 3.5-1.6 14.2-2.7v-4.2c0-2.4-0.4-4.3-1-4.3-0.6 0-1-3-1-7 0-5.6 0.3-7 1.5-7 1.1 0 1.5-1.2 1.5-5 0-2.7 0.2-5.7 0.5-6.5 0.4-1.1 2-1.5 11.5-1.5v-6c0-3.3 0.2-6.7 0.5-7.5 0.3-0.8 1.2-1.5 2-1.5 1.2 0 1.5-1.3 1.5-5.5 0-3.6 0.5-6 1.5-7 1-1 1.5-3.6 1.5-8 0-5.9 0.2-6.5 2.3-6.9 1.2-0.3 4.5-0.8 7.2-1.2 4.1-0.5 5.8-1.5 9.8-5.3 2.6-2.5 4.8-4.9 4.7-5.3 0-0.5-0.9-1-2-1.3-1.1-0.3-2-1-2-1.5 0-0.5 1-1.4 2.3-2 1.2-0.5 3.8-1.6 5.7-2.5 1.9-0.8 4.6-2.2 6-3 1.4-0.8 2.8-1.5 3.3-1.5zm52.2 113.4c-4.9 0.7-10.1 1.9-11.5 2.7-1.4 0.7-7.9 2.1-14.5 3l-12 1.7 80.5 0.2c-0.1-8.2-0.4-8.7-4.3-11.1-2.3-1.4-5-2.8-5.9-3.1-0.9-0.3-6.5 0.8-12.5 2.4-5.9 1.6-14.9 3.5-19.8 4.2zm-1724-21.3c1.7-0.1 5.7 0.8 9 1.9 3.7 1.3 7.4 3.5 9.8 5.8 2.1 2 4.8 6 6.1 8.7 1.2 2.8 2.8 7.9 3.6 11.5 0.8 3.8 1 8.5 0.6 11.5-0.3 2.8-1.8 7.5-3.2 10.5-1.4 3-3.9 7-5.7 8.8-1.8 1.8-5.4 4.6-8.2 6.1-2.7 1.6-7 3.3-9.5 3.9-2.5 0.6-5.6 1.3-7 1.6-1.4 0.3-5 0-8-0.5-3.2-0.6-7.7-2.5-10.7-4.5-2.9-1.9-6.4-4.9-7.6-6.6-1.3-1.8-3.1-5.1-4-7.3-0.8-2.2-1.8-7.1-2.2-11-0.6-6.1-0.3-7.9 2-14.5 2.3-6.4 3.7-8.4 9.4-13.9 3.6-3.5 7.8-7 9.4-7.7 1.5-0.8 5.1-2 8-2.8 2.8-0.8 6.6-1.5 8.2-1.5zm-101.5 4.1c1.4-0.1 3.1 0.2 3.8 0.6 0.7 0.4 1.7 2.5 2.2 4.7 0.5 2.2 1 6.1 1 8.8 0 4.1-0.3 4.8-2.2 5.1-1.3 0.2-7.7 0.9-14.3 1.6-6.6 0.6-15.1 1.6-19 2.2-5.5 0.9-7.6 1.8-12.5 6.8v47.8c0 26.2-0.7 64.6-1.5 85.2-0.8 20.6-1.5 54.5-1.5 75.3 0 20.7 0.4 49.1 1 63 0.5 13.8 1.5 29.9 2.1 35.7 0.8 7.3 1.8 11.7 3.3 14.2 1.8 3.2 2.8 3.9 7.1 4.7 2.8 0.5 11.5 1.7 19.5 2.6 8 0.9 15.4 2 16.5 2.4 1.6 0.7 2.1 2.1 2.6 7.2 0.4 3.5 0.3 7.1-0.2 7.9-0.7 1.3-8.9 1.5-64.6 1.5-35.1 0-70.8 0.4-79.3 0.9-13.8 0.8-15.7 0.7-17.2-0.7-1.3-1.3-1.8-3.3-1.8-7.7 0-4.2 0.5-6.5 1.6-7.5 0.9-0.9 3.5-1.5 6.2-1.6 2.6 0 7-0.4 9.7-0.9 2.8-0.4 7.7-1.4 11-2.2 3.3-0.7 7.3-2.1 8.8-3 1.5-1 3.6-3.3 4.6-5 1.7-2.9 2-6.1 2.6-27.8 0.3-13.5 1.3-51 2.1-83.5 0.8-32.5 1.9-63.3 2.4-68.5 0.5-5.2 1.1-28.4 1.5-51.5 0.3-23.1 0.7-51.7 1.5-85l-2.1 4c-1.1 2.2-4.1 9-6.6 15-2.5 6-6 15-7.8 20-1.8 5-5.8 15.5-8.8 23.5-3 8-7.4 19.2-9.7 25-2.3 5.8-5.9 15-8 20.5-2.1 5.5-6.5 17.2-9.8 26-3.4 8.8-8.2 21.4-10.7 28-2.6 6.6-6.5 16.7-8.7 22.5-2.2 5.8-6.2 16.6-9 24-2.7 7.4-6.7 18.2-8.7 24-2.1 5.8-4.8 12.8-5.9 15.5-1.2 2.8-3.6 8.8-5.3 13.5-1.7 4.7-4.4 12.1-6.1 16.5-1.6 4.4-3.6 9.4-4.3 11-0.8 1.6-3.2 8.4-5.5 15-2.2 6.6-4.9 13.8-5.9 16-1 2.2-3 7.7-4.5 12.3-2.5 7.9-2.7 8.2-6.3 9.2-2.1 0.5-8.3 2-13.8 3.4-6.5 1.5-10.6 2.1-11.7 1.5-1.1-0.6-3.3-5.3-5.7-12.6-2.1-6.5-5.9-17.4-8.4-24.3-2.5-6.9-6.5-17.9-9-24.5-2.5-6.6-6.5-17.4-8.9-24-2.5-6.6-5.2-13.6-6.1-15.5-0.9-1.9-3.1-7.5-4.8-12.5-1.7-5-4.2-11.2-5.4-14-1.2-2.7-2.6-6.1-3-7.5-0.4-1.4-3.2-8.8-6.2-16.5-3-7.7-6.7-17.1-8.3-21-1.6-3.9-4.3-10.8-6-15.5-1.7-4.7-3.8-9.9-4.5-11.5-0.8-1.6-2.8-6.8-4.5-11.5-1.7-4.7-3.7-9.9-4.5-11.5-0.7-1.6-4.4-10.6-8-20-3.7-9.4-7.8-19.9-9.2-23.5-1.4-3.6-4.1-10.8-5.9-16-1.8-5.2-5.6-15.6-8.4-23-2.9-7.4-6.9-18-8.9-23.5-2-5.5-4.2-10.9-4.9-12-0.9-1.5-1.1 11.5-1.1 58 0 33 0.4 79.4 0.9 103 0.4 23.6 1.3 59.9 1.9 80.5 0.6 20.6 1.6 43 2.1 49.8 0.6 6.9 1.7 13.5 2.5 15.2 0.8 1.6 2.9 4.4 4.5 6 1.7 1.6 4.7 3.4 6.8 3.9 2 0.5 8 1.5 13.2 2.1 5.2 0.7 13.9 1.7 19.3 2.3 6.6 0.8 10.1 1.7 10.7 2.7 0.5 0.8 1 4.2 1 7.5 0 3.3-0.4 6.5-0.8 7.1-0.5 0.7-21.6 1-69.7 1q-69 0-69.7-1.1c-0.4-0.5-0.8-3.5-0.8-6.5 0-3 0.5-6.3 1.2-7.3 1-1.4 3.8-2.1 12.8-3.2 6.3-0.7 14.2-2 17.5-2.9 3.3-0.9 7.1-2.4 8.5-3.4 1.4-1 3.7-4.2 5.2-7.2 1.5-3 3.2-8.2 3.8-11.5 0.7-3.3 1.5-11.9 2-19 0.5-7.1 1.3-26.5 1.9-43 0.6-16.5 1.5-50.2 2.1-75 0.5-24.7 1.2-70.4 1.6-101.5 0.4-31.1 0.4-58.9 0-61.7-0.5-4.9-1-5.5-4.8-8-3.5-2.2-6-2.9-13.3-3.5-4.9-0.4-13.4-1-18.7-1.3-6.8-0.3-10.3-1-11.3-2-1-1-1.5-3.5-1.5-7.7 0-3.5 0.5-7 1-7.8 0.8-1.3 8.5-1.5 61.2-1.3 33.2 0.2 60.5 0.3 60.8 0.3 0.3 0 2.5 5 4.9 11.2 2.5 6.2 7.6 18.7 11.4 27.8 3.8 9.1 8.6 20.8 10.6 26 2.1 5.2 4.7 11.5 5.9 14 1.2 2.5 3.7 8.5 5.5 13.5 1.9 5 5.6 14 8.2 20 2.6 6 6.6 15.5 9 21 2.3 5.5 6.4 15 9 21 2.6 6 6.4 15 8.5 20 2 5 4.6 10.8 5.8 13 1.1 2.2 3.2 7.1 4.7 11 1.4 3.9 3 7.5 3.5 8 0.4 0.5 2.8 6 5.3 12 2.5 6 6.6 16 9.2 22 2.6 6 6.4 15 8.5 20 2.1 5 4.5 10.4 5.4 12 1.4 2.8 1.6 2.8 2.2 1 0.4-1.1 2.9-7.4 5.6-14 2.7-6.6 8.3-20.3 12.5-30.5 4.2-10.2 9.3-23 11.5-28.5 2.2-5.5 4.6-11.4 5.4-13 0.7-1.6 3.7-8.6 6.5-15.5 2.8-6.9 6.8-16.8 8.9-22 2.1-5.2 6.3-15.6 9.3-23 3-7.4 7.6-18.5 10.2-24.5 2.6-6 6.5-15.5 8.7-21 2.2-5.5 6.2-15.6 8.8-22.5 2.7-6.9 7.2-18.4 10-25.5 2.9-7.1 6.5-16.6 8.2-21 1.6-4.4 3.5-9.3 4.1-10.9 0.7-1.6 1.9-3.2 2.7-3.7 0.8-0.4 6.5-0.3 12.5 0.3 7 0.7 23.8 0.8 46 0.3 19.3-0.4 38.6-1 43-1.4 4.4-0.5 9.1-0.9 10.5-0.9zm1744.5 81.3v26h-30l-0.2-6.2c-0.2-4.8-0.7-6.3-1.8-6.3-0.8 0-1.7-0.7-2-1.5-0.3-0.8-0.6-3.7-0.7-6.3-0.1-2.7 0.3-5.2 0.7-5.6 0.5-0.3 8.3-0.5 34-0.1zm-1343 25.2c4.4 0.3 12.3 1.6 17.5 2.9 5.2 1.4 12 3.6 15 5 3.5 1.5 7.8 4.7 11.6 8.7 3.4 3.4 7.7 8.5 9.6 11.2 1.8 2.8 4.2 7.3 5.3 10 1.1 2.8 3 6.6 4.2 8.5 1.3 1.9 2.4 4.6 2.4 6 0 1.4 0 5.9 0 10-0.1 4.1-0.4 10.7-0.7 14.5-0.3 3.9-1 7.5-1.5 8-0.6 0.6-0.9 9.5-0.9 21 0.1 11-0.1 22.9-0.5 26.5-0.4 3.9-1.2 6.9-2.1 7.5-1.2 0.8-1.3 3.5-0.8 15 0.3 7.7 0.5 30 0.3 85l2.3 2.3c1.3 1.2 4.1 2.6 6.3 3.2 2.2 0.5 8.5 1.2 14 1.6 5.9 0.5 10.5 1.3 11.3 2.1 0.7 0.8 1.2 4 1.2 7.8 0 5.2-0.4 6.9-2 8.5-1.4 1.4-3.3 2-6.2 2-2.4 0-16-0.5-30.3-1.1-19.7-0.9-31.5-0.9-48.5 0-12.4 0.6-26.3 1.4-31 1.8-7.1 0.5-8.8 0.3-10.2-1.1-1.1-1-1.8-3.1-1.8-5.3 0-2.1 0.5-5.5 1-7.5 0.9-3.3 1.5-3.9 4.8-4.7 2-0.5 6.6-1.3 10.2-1.6 3.6-0.4 8.3-1.5 10.4-2.4 2.1-0.9 4.8-2.9 6-4.6 2-2.9 2.1-4.2 2.1-31 0-15.4 0.4-35.4 0.9-44.5 0.6-12.3 0.4-22.3-0.8-39.5-1-15.3-1.4-30.6-0.7-68l-3.7-7.6c-2-4.1-5-8.7-6.7-10.1-1.6-1.5-4.7-3.3-6.7-4.2-2.1-0.9-8.2-1.9-13.5-2.2-5.5-0.4-13.3-0.1-17.8 0.5-6.4 0.9-10.4 2.3-20 7-9.4 4.7-13.3 7.2-17.8 11.8-3.2 3.2-7.1 7.8-8.8 10.3-1.6 2.5-4.2 8.1-5.6 12.5-2.6 7.9-2.6 8.5-3.3 47.5-0.4 21.7-0.3 49.4 0.1 61.5 0.5 12.1 1.3 23.8 1.8 26 0.6 2.2 1.2 9.9 1.3 17 0.2 10.4 0.7 13.6 2.1 15.8 1 1.6 3.2 3.1 5.5 3.7 2 0.6 7.7 1.4 12.6 1.8 5 0.4 9.6 1.3 10.3 2 0.7 0.6 1.3 2.9 1.3 5 0 2-0.5 5.3-1.1 7.2-0.7 1.9-1.6 4-2.1 4.5-0.6 0.6-18 1-48.1 1-26 0.1-54.4 0.5-63.2 0.9-14.2 0.8-16.2 0.7-17.7-0.8-1.4-1.2-1.8-3.2-1.8-8.1 0-4.4 0.5-7 1.5-8 1-1 4.3-1.7 9.3-2.1 4.2-0.3 10-0.9 12.7-1.4 2.8-0.5 6.3-2 7.9-3.2 1.6-1.3 3.3-3.2 3.9-4.3 0.6-1.1 1.4-5.6 1.9-10 0.4-4.4 1.3-11.6 1.8-16 0.5-4.4 1.5-26.2 2.1-48.5 0.6-22.3 1.2-49.8 1.3-61.2 0-11.5-0.2-20.8-0.6-20.8-0.5 0-1-3.3-1.2-7.2-0.3-4-0.9-11.3-1.5-16.3-0.6-5-1.1-11.9-1.1-15.5-0.1-3.6-0.3-7.3-0.6-8.2-0.2-1.1-2-2.2-4.1-2.8-2.1-0.5-8.5-1-14.3-1-5.8 0-11.1-0.4-11.8-0.8-1-0.5-1.1-2.3-0.6-7.7 0.5-3.8 1.4-7.6 2.2-8.2 0.8-0.8 4.1-1.3 8-1.3 3.7 0 13-1 20.7-2.1 7.7-1.1 23.2-3.8 34.5-5.8 18.7-3.4 20.6-3.6 22.1-2.2 0.9 0.9 1.9 4.7 2.4 9.1 0.5 4.1 0.9 12.7 1 30.6l3-2c1.7-1.2 5.5-4.2 8.5-6.7 3-2.5 10.2-8.1 16-12.4 5.8-4.4 13.9-9.6 18-11.8 4.1-2.1 12.5-5.4 18.5-7.3q11-3.5 23-4.9c6.6-0.7 15.6-1.1 20-0.8zm-269.7 6.4c0.6-0.1 1.8 0.5 2.5 1.2 0.9 1.1 1.1 21 0.9 94.3-0.1 51.1-0.3 103-0.4 115.4-0.2 19.4 0.1 22.9 1.5 25.8 0.9 1.7 3.1 3.9 4.7 4.7 1.7 0.8 8.4 2.1 15 2.8 8.6 0.8 12.3 1.6 13 2.7 0.5 0.8 1 4.2 1 7.5 0 3.3-0.5 6.8-1.2 7.9-1.2 1.7-2.9 1.8-25.3 1.7-13.2-0.1-26-0.4-28.5-0.8-2.5-0.3-21.7 0-42.8 0.8-33.9 1.2-38.4 1.2-39.2-0.1-0.5-0.8-1-4.3-1-7.7 0-3.7 0.5-6.8 1.3-7.6 0.6-0.7 7.3-2.1 14.7-3.1 7.4-1 15-2.4 16.8-3.2 1.7-0.8 3.6-2.2 4.1-3.1 0.5-1 1.5-4.7 2.1-8.3 0.6-3.6 1.5-20.5 2-37.5 0.6-20.3 0.6-43.1-0.1-66-0.6-19.2-1.2-47.8-1.3-63.5-0.2-15.7-0.6-29.5-0.9-30.7-0.5-1.6-1.9-2.6-4.4-3.3-2.1-0.5-9.5-1-16.5-1-9.4 0-12.9-0.3-13.2-1.2-0.2-0.7 0.1-4.2 0.5-7.8 0.5-3.6 1.3-7 1.8-7.5 0.5-0.5 2.8-1.3 5.2-1.7 2.4-0.4 10.9-1.2 18.9-1.8 8-0.6 21.9-2 31-3.1 9.1-1 21-2.8 26.5-3.8 5.5-1 10.6-1.9 11.3-2zm1790.6 105.1c5.8 0.2 8.1 0.7 8.7 1.8 0.5 0.8 1.3 4.1 1.9 7.3 1 5.4 1.1 5.7 4 5.7 2.7 0 3.1 0.4 4.6 5.3 0.9 2.8 2.2 5.8 2.8 6.5 0.6 0.7 2 1.3 3.1 1.3 1.2-0.1 4.7 2.8 16 14.9h9c8.3 0 9.4-0.2 13.5-2.9 2.8-1.8 5.2-4.4 6.3-6.8 1-2.1 2.2-6.5 2.7-9.8 0.6-3.7 1.6-6.5 2.7-7.3 1-0.7 2.2-1.2 2.8-1.3 0.6 0 1.5 0.6 2.1 1.3 0.7 0.7 1.5 3.3 1.9 5.8 0.3 2.5 1.5 6.9 2.6 9.8 1.7 4.8 1.8 5.5 0.4 8.7-1.1 2.5-2.1 3.5-3.7 3.5-1.5 0.1-4.4 2.4-8.3 6.5-5.3 5.8-6.4 6.5-9.7 6.5-2.9 0-4.3 0.6-6 2.7-1.3 1.5-4 4.5-6 6.7-3.6 4-3.8 4.1-10 4-4.8-0.1-7.7-0.9-12.3-3.1-3.3-1.7-6.8-4.2-7.7-5.7-1-1.4-1.6-3.3-1.3-4.1 0.4-1.1 2-1.5 11.5-1.5l-1.9-5.7c-1.8-5.7-1.9-5.8-6-6-3.5-0.3-4.6-0.9-7.4-4.5-1.9-2.4-4.3-5.9-5.5-7.8-1.2-1.9-2.8-4.8-3.6-6.5-0.8-1.6-2-4.5-4.1-9.6l-7.7 0.1c-4.4 0-8.9-0.6-10.2-1.2-2.2-1.2-2.3-1.6-1.3-3.8 0.7-1.4 2.2-4.1 3.5-6 1.3-1.9 2.9-3.8 3.5-4.2 0.7-0.5 4.8-0.7 9.1-0.6z"/></svg>